G04 #@! TF.FileFunction,Copper,L2,Inr,Signal*
%FSLAX46Y46*%
G04 Gerber Fmt 4.6, Leading zero omitted, Abs format (unit mm)*
G04 Created by KiCad (PCBNEW 4.0.4-stable) date Mon Nov 14 15:58:05 2016*
%MOMM*%
%LPD*%
G01*
G04 APERTURE LIST*
%ADD10C,0.100000*%
%ADD11R,2.032000X1.727200*%
%ADD12O,2.032000X1.727200*%
%ADD13C,0.800000*%
%ADD14C,1.000000*%
%ADD15C,0.600000*%
%ADD16C,0.230000*%
%ADD17C,0.381000*%
%ADD18C,0.508000*%
%ADD19C,0.254000*%
G04 APERTURE END LIST*
D10*
D11*
X227500000Y-106000000D03*
D12*
X227500000Y-108540000D03*
X227500000Y-111080000D03*
D13*
X230700000Y-147170000D03*
X209280000Y-151090000D03*
X205340000Y-126230000D03*
D14*
X192920000Y-128130000D03*
X195240000Y-142890000D03*
X186780000Y-141330000D03*
X207390000Y-128140000D03*
D13*
X177510000Y-132410000D03*
D15*
X177590000Y-135690000D03*
D13*
X178730000Y-130610000D03*
D15*
X180340000Y-125550000D03*
X178530000Y-127460000D03*
X178550000Y-128760000D03*
X188790000Y-112690000D03*
X188660000Y-109050000D03*
X188930000Y-101210000D03*
X190130000Y-106010000D03*
X188690000Y-104610000D03*
X191120000Y-101390000D03*
X188720000Y-96330000D03*
X191000000Y-92480000D03*
D13*
X181570000Y-130810000D03*
X182470000Y-132420000D03*
D15*
X212640000Y-82170000D03*
X210040000Y-82270000D03*
D13*
X179970000Y-130900000D03*
X184090000Y-135470000D03*
X181220000Y-142680000D03*
X179530000Y-142680000D03*
D14*
X198140000Y-146120000D03*
X204360000Y-147840000D03*
D13*
X235340000Y-149630000D03*
X228470000Y-140920000D03*
D14*
X205890000Y-147840000D03*
X206110000Y-153920000D03*
X206200000Y-150770000D03*
X209000000Y-142860000D03*
X208030000Y-145700000D03*
X211630000Y-135450000D03*
X211560000Y-138750000D03*
X207320000Y-138790000D03*
X208430000Y-136920000D03*
X198620000Y-129710000D03*
X199520000Y-122320000D03*
X211110000Y-116930000D03*
D13*
X204500000Y-116000000D03*
X201500000Y-118500000D03*
D15*
X209550000Y-117250000D03*
X206900000Y-117300000D03*
D14*
X212620000Y-115840000D03*
X221500000Y-121000000D03*
X222500000Y-124000000D03*
X222470000Y-117540000D03*
X225500000Y-140000000D03*
X225500000Y-136270000D03*
X225500000Y-132970000D03*
X225500000Y-130230000D03*
X222500000Y-130270000D03*
X222500000Y-133070000D03*
X221500000Y-137300000D03*
X221500000Y-135500000D03*
X168500000Y-93500000D03*
D15*
X169940000Y-80160000D03*
X170050000Y-82810000D03*
X169210000Y-84750000D03*
X169820000Y-87660000D03*
X169920000Y-89620000D03*
X199860000Y-115950000D03*
X198690000Y-117780000D03*
D13*
X175160000Y-101250000D03*
X174220000Y-125280000D03*
D15*
X173050000Y-120920000D03*
X173070000Y-117970000D03*
X173140000Y-114880000D03*
D13*
X171870000Y-124370000D03*
X172940000Y-123260000D03*
D15*
X171590000Y-127960000D03*
X171580000Y-132410000D03*
X171590000Y-141500000D03*
X169960000Y-146050000D03*
X171750000Y-147310000D03*
X170690000Y-149910000D03*
X170030000Y-148620000D03*
X169940000Y-125940000D03*
X169960000Y-140090000D03*
X169960000Y-136880000D03*
X169930000Y-134540000D03*
X169940000Y-132440000D03*
X169910000Y-130580000D03*
D13*
X170750000Y-122630000D03*
X171160000Y-111290000D03*
D15*
X171160000Y-120430000D03*
X171160000Y-117990000D03*
X171130000Y-114910000D03*
X199760000Y-114090000D03*
X202920000Y-102340000D03*
X202730000Y-109740000D03*
X200730000Y-101140000D03*
X203110000Y-101080000D03*
D13*
X196580000Y-100160000D03*
X204000000Y-97000000D03*
X204070000Y-99330000D03*
X210920000Y-93850000D03*
X214500000Y-95000000D03*
X217430000Y-94120000D03*
X213160000Y-105920000D03*
D15*
X210290000Y-107550000D03*
X197400000Y-114060000D03*
X195550000Y-116740000D03*
X194080000Y-119150000D03*
X196040000Y-118020000D03*
X195600000Y-119400000D03*
X196800000Y-115810000D03*
D13*
X188000000Y-120500000D03*
X205660000Y-103330000D03*
D15*
X219350000Y-98400000D03*
X224950000Y-97200000D03*
X221150000Y-97650000D03*
X223000000Y-97450000D03*
X219430000Y-94290000D03*
X219000000Y-83680000D03*
X214850000Y-79130000D03*
X222920000Y-94000000D03*
X221180000Y-100470000D03*
X219580000Y-117450000D03*
X218940000Y-115370000D03*
D13*
X176500000Y-148500000D03*
D15*
X174500000Y-147550000D03*
D14*
X177900000Y-108650000D03*
X177930000Y-111030000D03*
D15*
X176400000Y-92450000D03*
X175540000Y-87200000D03*
X177080000Y-82220000D03*
X179460000Y-79490000D03*
X185010000Y-79390000D03*
X186180000Y-80940000D03*
X188680000Y-82200000D03*
X186070000Y-78060000D03*
X175530000Y-80980000D03*
X187520000Y-79460000D03*
X223330000Y-79180000D03*
X195220000Y-78280000D03*
X196370000Y-76960000D03*
X197600000Y-75940000D03*
X198390000Y-75130000D03*
X221530000Y-77370000D03*
X220780000Y-76760000D03*
X219540000Y-75470000D03*
X194180000Y-79240000D03*
X188320000Y-75210000D03*
X172220000Y-80290000D03*
X175580000Y-75180000D03*
X174270000Y-75960000D03*
X172590000Y-77700000D03*
X192710000Y-79290000D03*
X191080000Y-77950000D03*
X189680000Y-76420000D03*
X186980000Y-76390000D03*
X189070000Y-78510000D03*
X174260000Y-79280000D03*
X180940000Y-83410000D03*
X182120000Y-84680000D03*
X182160000Y-83460000D03*
X182230000Y-82280000D03*
X183620000Y-80840000D03*
X187100000Y-82220000D03*
X189840000Y-83420000D03*
X185870000Y-83360000D03*
X203660000Y-83370000D03*
X204910000Y-84650000D03*
X210060000Y-84810000D03*
X208800000Y-83430000D03*
X217350000Y-76540000D03*
X209760000Y-76460000D03*
X220260000Y-79400000D03*
X209530000Y-78980000D03*
X208200000Y-79060000D03*
X203740000Y-81070000D03*
X202320000Y-79370000D03*
X204350000Y-79060000D03*
X205030000Y-80930000D03*
X206300000Y-80950000D03*
X205000000Y-82230000D03*
X203740000Y-82210000D03*
X193690000Y-101900000D03*
X191800000Y-106910000D03*
X205990000Y-119290000D03*
X217580000Y-123010000D03*
X217700000Y-126140000D03*
X214930000Y-130420000D03*
X218510000Y-131640000D03*
X214280000Y-132660000D03*
X211020000Y-131070000D03*
X214130000Y-138340000D03*
X214310000Y-133980000D03*
X218830000Y-138350000D03*
X214810000Y-126000000D03*
X215710000Y-125670000D03*
X217540000Y-119980000D03*
X218230000Y-118670000D03*
X222600000Y-114850000D03*
X222720000Y-112060000D03*
X219540000Y-113420000D03*
X222580000Y-107630000D03*
X222560000Y-104500000D03*
X224295000Y-103205000D03*
X223160000Y-100010000D03*
X219360000Y-101410000D03*
X219420000Y-106090000D03*
X219400000Y-104040000D03*
X219420000Y-110350000D03*
X219440000Y-107290000D03*
D13*
X193930000Y-144020000D03*
D14*
X184690000Y-143140000D03*
X185730000Y-144160000D03*
X194540000Y-154340000D03*
X194550000Y-150420000D03*
D13*
X200000000Y-159000000D03*
X203500000Y-159000000D03*
D14*
X206690000Y-159050000D03*
D15*
X181210000Y-103790000D03*
X181000000Y-107030000D03*
X180750000Y-96610000D03*
X180210000Y-94470000D03*
D13*
X192000000Y-98000000D03*
D15*
X193770000Y-95780000D03*
D14*
X177920000Y-112560000D03*
D15*
X178410000Y-118360000D03*
D13*
X207950000Y-105620000D03*
X213190000Y-107510000D03*
X210690000Y-110280000D03*
X213160000Y-103130000D03*
D15*
X204220000Y-109760000D03*
D13*
X205890000Y-110630000D03*
X227960000Y-149500000D03*
X231610000Y-149480000D03*
X225190000Y-153060000D03*
X220220000Y-153650000D03*
X224950000Y-154600000D03*
X225840000Y-151570000D03*
X215540000Y-141620000D03*
X215500000Y-140170000D03*
X175260000Y-97320000D03*
X173140000Y-101530000D03*
X171140000Y-102250000D03*
D14*
X177800000Y-123990000D03*
D13*
X173140000Y-111300000D03*
D14*
X192900000Y-122150000D03*
D15*
X210750000Y-121400000D03*
D14*
X204500000Y-122000000D03*
X201500000Y-122500000D03*
D15*
X228300000Y-98050000D03*
X227000000Y-100500000D03*
D13*
X217000000Y-104500000D03*
D15*
X228000000Y-100500000D03*
D14*
X194500000Y-133000000D03*
D13*
X195000000Y-136000000D03*
X183500000Y-162500000D03*
X198000000Y-159000000D03*
D14*
X199960000Y-155570000D03*
D13*
X217000000Y-110000000D03*
X217000000Y-108000000D03*
X214500000Y-98500000D03*
X215500000Y-101500000D03*
X211000000Y-96000000D03*
X210500000Y-99500000D03*
X206500000Y-100000000D03*
X207500000Y-95500000D03*
D15*
X198500000Y-101350000D03*
D13*
X184000000Y-94000000D03*
X184000000Y-99500000D03*
X184000000Y-104000000D03*
X185500000Y-108500000D03*
X191500000Y-109500000D03*
X180500000Y-110500000D03*
X182000000Y-110500000D03*
X185500000Y-116000000D03*
X185500000Y-110500000D03*
X182000000Y-124500000D03*
X182000000Y-122500000D03*
X180500000Y-122500000D03*
X182000000Y-119000000D03*
X184000000Y-119000000D03*
X180500000Y-119000000D03*
X186500000Y-125500000D03*
X186500000Y-123500000D03*
X186500000Y-121000000D03*
X173500000Y-145000000D03*
X173500000Y-141500000D03*
X173500000Y-136500000D03*
X173500000Y-132500000D03*
X173500000Y-128000000D03*
X177500000Y-150500000D03*
X177500000Y-153500000D03*
X169000000Y-154000000D03*
X168000000Y-151000000D03*
X168000000Y-148000000D03*
X168000000Y-146000000D03*
X168000000Y-144000000D03*
X168000000Y-122000000D03*
X168000000Y-124000000D03*
X168000000Y-126000000D03*
X168000000Y-128000000D03*
X168000000Y-130500000D03*
X168000000Y-132500000D03*
X168000000Y-134500000D03*
X168000000Y-136500000D03*
X168000000Y-139000000D03*
X168000000Y-141500000D03*
D14*
X168500000Y-119500000D03*
X168500000Y-95500000D03*
X168500000Y-97500000D03*
X168500000Y-99500000D03*
X168500000Y-101500000D03*
X168500000Y-103500000D03*
X168500000Y-105500000D03*
D15*
X173390000Y-92610000D03*
D14*
X168500000Y-117500000D03*
X168500000Y-115500000D03*
X168500000Y-113500000D03*
X168500000Y-111500000D03*
X168500000Y-109500000D03*
X168500000Y-107500000D03*
X206000000Y-134500000D03*
X196500000Y-132000000D03*
X196500000Y-130500000D03*
X200000000Y-129500000D03*
X227500000Y-115000000D03*
X225500000Y-117500000D03*
X224500000Y-116000000D03*
X225500000Y-124000000D03*
X229000000Y-119000000D03*
X229000000Y-122000000D03*
X229000000Y-125000000D03*
X229000000Y-128000000D03*
X225500000Y-128000000D03*
X229000000Y-134000000D03*
X229000000Y-131000000D03*
X222500000Y-127500000D03*
X221500000Y-139500000D03*
D13*
X195330000Y-112360000D03*
X195220000Y-111310000D03*
X234510000Y-163540000D03*
X235900000Y-159840000D03*
X234000000Y-156470000D03*
X234500000Y-153490000D03*
X224000000Y-157830000D03*
X171205000Y-162255000D03*
X173200000Y-162280000D03*
X175160000Y-162280000D03*
X176870000Y-162280000D03*
X181545000Y-162205000D03*
X179145000Y-162205000D03*
X212740000Y-154760000D03*
X210140000Y-158250000D03*
X193860000Y-125590000D03*
X192960000Y-124710000D03*
X197660000Y-119410000D03*
D15*
X218950000Y-121810000D03*
D13*
X218840000Y-120850000D03*
D15*
X215312500Y-117912500D03*
D13*
X215312500Y-119087500D03*
X216487500Y-117912500D03*
D15*
X214810000Y-128090000D03*
D14*
X192950000Y-141290000D03*
X186490000Y-130540000D03*
X185730000Y-132320000D03*
X189360000Y-134680000D03*
X188700000Y-140230000D03*
D15*
X208850000Y-89780000D03*
X211350000Y-88550000D03*
X215130000Y-88520000D03*
X213770000Y-88410000D03*
X206250000Y-88450000D03*
X197350000Y-88490000D03*
X202520000Y-88580000D03*
X201210000Y-89900000D03*
X199220000Y-92410000D03*
X195870000Y-92540000D03*
X191750000Y-93600000D03*
X188060000Y-92500000D03*
D14*
X169940000Y-156670000D03*
X179880000Y-153370000D03*
X189700000Y-146540000D03*
X188190000Y-146630000D03*
X186930000Y-146470000D03*
X185700000Y-145400000D03*
X188250000Y-153140000D03*
X198410000Y-154720000D03*
X199030000Y-139590000D03*
X202620000Y-143330000D03*
X202190000Y-144840000D03*
D15*
X172290000Y-87500000D03*
X175160000Y-92870000D03*
X172730000Y-89790000D03*
X172210000Y-84890000D03*
X172250000Y-82820000D03*
X180820000Y-84720000D03*
X177080000Y-84760000D03*
X180350000Y-92540000D03*
X182110000Y-88390000D03*
X185950000Y-89840000D03*
X183570000Y-92600000D03*
X203650000Y-92400000D03*
X206400000Y-92580000D03*
X211330000Y-92610000D03*
X214080000Y-92480000D03*
X218850000Y-92460000D03*
X225620000Y-91980000D03*
X225310000Y-85310000D03*
X225320000Y-83350000D03*
X224710000Y-80810000D03*
X217600000Y-84840000D03*
X213800000Y-84960000D03*
X215090000Y-86100000D03*
X202520000Y-84740000D03*
X197440000Y-84710000D03*
X194830000Y-84830000D03*
X189770000Y-84720000D03*
X187180000Y-84710000D03*
X188470000Y-87250000D03*
X188610000Y-88520000D03*
X193680000Y-88470000D03*
X196070000Y-88550000D03*
X208830000Y-82150000D03*
X213920000Y-82280000D03*
X216410000Y-81000000D03*
X221640000Y-80860000D03*
X199815000Y-83335000D03*
X196100000Y-127200000D03*
X195930000Y-126260000D03*
X201050000Y-113300000D03*
X195930000Y-113250000D03*
X198470000Y-113100000D03*
D13*
X216640000Y-151230000D03*
X219270000Y-147290000D03*
X218700000Y-152170000D03*
X218680000Y-142360000D03*
X220930000Y-146100000D03*
X212910000Y-147580000D03*
X215930000Y-147290000D03*
X221770000Y-143180000D03*
X210270000Y-147710000D03*
X213900000Y-145860000D03*
X215110000Y-144640000D03*
X216230000Y-143370000D03*
X210230000Y-154660000D03*
D15*
X212817500Y-114622500D03*
X216960000Y-113440000D03*
X202280000Y-113340000D03*
X195290000Y-101490000D03*
X175965165Y-147765165D03*
X179575000Y-95400000D03*
X183400000Y-83500000D03*
X175434835Y-147234835D03*
X178825000Y-95400000D03*
X184500000Y-83600000D03*
X220715000Y-95500000D03*
X217065165Y-144975165D03*
X201200000Y-82200000D03*
X219965000Y-95500000D03*
X216534835Y-144444835D03*
X202500000Y-82200000D03*
X174365165Y-146765165D03*
X184800000Y-82200000D03*
X177365165Y-95565165D03*
X173834835Y-146234835D03*
X176834835Y-95034835D03*
X186000000Y-82200000D03*
X212775165Y-146175165D03*
X218845000Y-95460000D03*
X206300000Y-82200000D03*
X183440000Y-89770000D03*
X175310000Y-96090000D03*
X212244835Y-145644835D03*
X218095000Y-95460000D03*
X207600000Y-82200000D03*
X205000000Y-87300000D03*
X174575000Y-95300000D03*
X175775000Y-150400000D03*
X187300000Y-83500000D03*
X184630000Y-89800000D03*
X188500000Y-83500000D03*
X173825000Y-95300000D03*
X175025000Y-150400000D03*
X219515165Y-145545165D03*
X222355165Y-94724835D03*
X197400000Y-83500000D03*
X187160000Y-89760000D03*
X206300000Y-87400000D03*
X181840000Y-107050000D03*
X218984835Y-145014835D03*
X221824835Y-95255165D03*
X198700000Y-83500000D03*
X208800000Y-87300000D03*
X175900000Y-95360000D03*
X180600000Y-155930000D03*
X181870000Y-155490000D03*
X176375000Y-152700000D03*
X172475000Y-95200000D03*
X189900000Y-82200000D03*
X188630000Y-89700000D03*
X191100000Y-82200000D03*
X171725000Y-95200000D03*
X175625000Y-152700000D03*
X224475000Y-94950000D03*
X223545165Y-146565165D03*
X196100000Y-82200000D03*
X212640000Y-87070000D03*
X210100000Y-87400000D03*
X222720000Y-156840000D03*
X193810000Y-116300000D03*
X188120000Y-113780000D03*
X223725000Y-94950000D03*
X223014835Y-146034835D03*
X197400000Y-82200000D03*
X197400000Y-87300000D03*
X192910000Y-116400000D03*
X188030000Y-114700000D03*
X221900000Y-156840000D03*
D13*
X170675000Y-95300000D03*
D15*
X177875000Y-155700000D03*
X191000000Y-83500000D03*
X213840000Y-87240000D03*
D13*
X169725000Y-95300000D03*
D15*
X177125000Y-155700000D03*
X192200000Y-83500000D03*
X225435165Y-147205165D03*
X226135165Y-94164835D03*
X193600000Y-83500000D03*
X216360000Y-87290000D03*
X198700000Y-87400000D03*
X224904835Y-146674835D03*
X225604835Y-94695165D03*
X194900000Y-83500000D03*
X201100000Y-87400000D03*
X192100000Y-157030000D03*
X221120000Y-156930000D03*
X203330000Y-156700000D03*
X201670000Y-157220000D03*
X180170000Y-157570000D03*
X187950000Y-115700000D03*
X192080000Y-116430000D03*
X217710000Y-87270000D03*
X213990000Y-89730000D03*
X202500000Y-87300000D03*
X219620000Y-157530000D03*
X191050000Y-116490000D03*
X187710000Y-116480000D03*
X190970000Y-89770000D03*
X215180000Y-89810000D03*
X217620000Y-89720000D03*
X192290000Y-89790000D03*
X194880000Y-89750000D03*
X218920000Y-89830000D03*
X182100000Y-87300000D03*
X196150000Y-89720000D03*
X206250000Y-89740000D03*
X183400000Y-87300000D03*
X185900000Y-87400000D03*
X207550000Y-89790000D03*
X210050000Y-89720000D03*
X187200000Y-87400000D03*
X189800000Y-87300000D03*
X211480000Y-89690000D03*
D13*
X187270000Y-148620000D03*
X177580000Y-142610000D03*
D14*
X214350000Y-105000000D03*
D13*
X226463860Y-84571840D03*
X203130000Y-146320000D03*
X204130000Y-145300000D03*
D15*
X207580000Y-121080000D03*
X198710000Y-89800000D03*
X191000000Y-87300000D03*
X193600000Y-87300000D03*
X199980000Y-89730000D03*
D13*
X182970000Y-142670000D03*
D15*
X190880000Y-159380000D03*
X231160000Y-158590000D03*
X202310000Y-89770000D03*
X194800000Y-87300000D03*
X203900000Y-89730000D03*
X211120000Y-115600000D03*
X216190000Y-112710000D03*
X226620000Y-113840000D03*
X216165165Y-99365165D03*
X214934835Y-96534835D03*
X215634835Y-98834835D03*
X215465165Y-97065165D03*
X191434835Y-96365165D03*
X192125000Y-101000000D03*
X191965165Y-95834835D03*
X192875000Y-101000000D03*
X208497653Y-100590711D03*
X207834835Y-96934835D03*
X207967323Y-101121041D03*
X208365165Y-97465165D03*
X201637300Y-96165346D03*
X201134835Y-94765165D03*
X201106970Y-96695676D03*
X201665165Y-94234835D03*
X203580000Y-113240000D03*
X195530000Y-102550000D03*
X201470000Y-101650000D03*
X204390000Y-113000000D03*
X205350000Y-112620000D03*
X202490000Y-101660000D03*
D14*
X192920000Y-130260000D03*
X191190000Y-113800000D03*
D15*
X208750000Y-107530000D03*
X180990000Y-85980000D03*
X180940000Y-93090000D03*
X183010000Y-107230000D03*
X196750000Y-123680000D03*
X197850000Y-122660000D03*
X196450000Y-119550000D03*
X193630000Y-118350000D03*
X183890000Y-107140000D03*
X212070000Y-108180000D03*
X206170000Y-118300000D03*
X197720000Y-117010000D03*
X203180000Y-118290000D03*
X194070000Y-117330000D03*
X184900000Y-107100000D03*
X208230000Y-161330000D03*
X231025000Y-156525000D03*
X192820000Y-159400000D03*
X205110000Y-163100000D03*
X189180000Y-159460000D03*
X230790000Y-160570000D03*
X196000000Y-159140000D03*
X229690000Y-155290000D03*
X183040000Y-154610000D03*
X183110000Y-157080000D03*
X203200000Y-109140000D03*
X194950000Y-114180000D03*
X193060000Y-134680000D03*
D13*
X228508560Y-90738960D03*
D15*
X171060000Y-88550000D03*
X210280000Y-83640000D03*
X211430000Y-83420000D03*
D16*
X172940000Y-123260000D02*
X172940000Y-123300000D01*
X172940000Y-123300000D02*
X171870000Y-124370000D01*
X171380000Y-123260000D02*
X170750000Y-122630000D01*
X171380000Y-123260000D02*
X172940000Y-123260000D01*
X174220000Y-125280000D02*
X174220000Y-124540000D01*
X177800000Y-123990000D02*
X175510000Y-123990000D01*
X175510000Y-123990000D02*
X174220000Y-125280000D01*
X174220000Y-124540000D02*
X172940000Y-123260000D01*
X172940000Y-111500000D02*
X173140000Y-111300000D01*
X172940000Y-123260000D02*
X172940000Y-111500000D01*
X204000000Y-97000000D02*
X204000000Y-99260000D01*
X204000000Y-99260000D02*
X204070000Y-99330000D01*
D17*
X214930000Y-130420000D02*
X217290000Y-130420000D01*
X214280000Y-131070000D02*
X214930000Y-130420000D01*
X214280000Y-132660000D02*
X214280000Y-131070000D01*
X217290000Y-130420000D02*
X218510000Y-131640000D01*
X214280000Y-132660000D02*
X212610000Y-132660000D01*
X212610000Y-132660000D02*
X211020000Y-131070000D01*
D16*
X175160000Y-101250000D02*
X175160000Y-97650000D01*
X175160000Y-97650000D02*
X175260000Y-97550000D01*
X175260000Y-97550000D02*
X175260000Y-97320000D01*
X174880000Y-101530000D02*
X175160000Y-101250000D01*
X173140000Y-101530000D02*
X174880000Y-101530000D01*
X172420000Y-102250000D02*
X173140000Y-101530000D01*
X171160000Y-111290000D02*
X171160000Y-102270000D01*
X171160000Y-102270000D02*
X171140000Y-102250000D01*
X171140000Y-102250000D02*
X172420000Y-102250000D01*
X173140000Y-111300000D02*
X171170000Y-111300000D01*
X171170000Y-111300000D02*
X171160000Y-111290000D01*
D18*
X210500000Y-96500000D02*
X211000000Y-96000000D01*
X206000000Y-97000000D02*
X208000000Y-99000000D01*
X210000000Y-99000000D02*
X210500000Y-99500000D01*
X208000000Y-99000000D02*
X210000000Y-99000000D01*
X210500000Y-99500000D02*
X210500000Y-96500000D01*
X206000000Y-97000000D02*
X206000000Y-99500000D01*
X206000000Y-99500000D02*
X206500000Y-100000000D01*
X204000000Y-97000000D02*
X206000000Y-97000000D01*
X201500000Y-99500000D02*
X204000000Y-97000000D01*
X198500000Y-99500000D02*
X201500000Y-99500000D01*
X206000000Y-97000000D02*
X207500000Y-95500000D01*
X198500000Y-101350000D02*
X198500000Y-99500000D01*
X190500000Y-99500000D02*
X192000000Y-98000000D01*
X190500000Y-99500000D02*
X184000000Y-99500000D01*
X197000000Y-98000000D02*
X192000000Y-98000000D01*
X198500000Y-99500000D02*
X197000000Y-98000000D01*
X229000000Y-128000000D02*
X225500000Y-128000000D01*
D16*
X210270000Y-147710000D02*
X210270000Y-154620000D01*
X210270000Y-154620000D02*
X210230000Y-154660000D01*
D19*
G36*
X229544000Y-136000000D02*
X229578711Y-136174504D01*
X229677559Y-136322441D01*
X229825496Y-136421289D01*
X230000000Y-136456000D01*
X236544000Y-136456000D01*
X236544000Y-164044000D01*
X167456000Y-164044000D01*
X167456000Y-163234865D01*
X204428882Y-163234865D01*
X204532339Y-163485252D01*
X204723741Y-163676987D01*
X204973946Y-163780882D01*
X205244865Y-163781118D01*
X205495252Y-163677661D01*
X205686987Y-163486259D01*
X205790882Y-163236054D01*
X205791118Y-162965135D01*
X205687661Y-162714748D01*
X205496259Y-162523013D01*
X205246054Y-162419118D01*
X204975135Y-162418882D01*
X204724748Y-162522339D01*
X204533013Y-162713741D01*
X204429118Y-162963946D01*
X204428882Y-163234865D01*
X167456000Y-163234865D01*
X167456000Y-161464865D01*
X207548882Y-161464865D01*
X207652339Y-161715252D01*
X207843741Y-161906987D01*
X208093946Y-162010882D01*
X208364865Y-162011118D01*
X208615252Y-161907661D01*
X208806987Y-161716259D01*
X208910882Y-161466054D01*
X208911118Y-161195135D01*
X208807661Y-160944748D01*
X208616259Y-160753013D01*
X208500307Y-160704865D01*
X230108882Y-160704865D01*
X230212339Y-160955252D01*
X230403741Y-161146987D01*
X230653946Y-161250882D01*
X230924865Y-161251118D01*
X231175252Y-161147661D01*
X231366987Y-160956259D01*
X231470882Y-160706054D01*
X231471118Y-160435135D01*
X231367661Y-160184748D01*
X231176259Y-159993013D01*
X230926054Y-159889118D01*
X230655135Y-159888882D01*
X230404748Y-159992339D01*
X230213013Y-160183741D01*
X230109118Y-160433946D01*
X230108882Y-160704865D01*
X208500307Y-160704865D01*
X208366054Y-160649118D01*
X208095135Y-160648882D01*
X207844748Y-160752339D01*
X207653013Y-160943741D01*
X207549118Y-161193946D01*
X207548882Y-161464865D01*
X167456000Y-161464865D01*
X167456000Y-159594865D01*
X188498882Y-159594865D01*
X188602339Y-159845252D01*
X188793741Y-160036987D01*
X189043946Y-160140882D01*
X189314865Y-160141118D01*
X189565252Y-160037661D01*
X189756987Y-159846259D01*
X189860882Y-159596054D01*
X189860952Y-159514865D01*
X190198882Y-159514865D01*
X190302339Y-159765252D01*
X190493741Y-159956987D01*
X190743946Y-160060882D01*
X191014865Y-160061118D01*
X191265252Y-159957661D01*
X191456987Y-159766259D01*
X191553070Y-159534865D01*
X192138882Y-159534865D01*
X192242339Y-159785252D01*
X192433741Y-159976987D01*
X192683946Y-160080882D01*
X192954865Y-160081118D01*
X193205252Y-159977661D01*
X193396987Y-159786259D01*
X193500882Y-159536054D01*
X193501109Y-159274865D01*
X195318882Y-159274865D01*
X195422339Y-159525252D01*
X195613741Y-159716987D01*
X195863946Y-159820882D01*
X196134865Y-159821118D01*
X196385252Y-159717661D01*
X196576987Y-159526259D01*
X196680882Y-159276054D01*
X196681118Y-159005135D01*
X196577661Y-158754748D01*
X196547830Y-158724865D01*
X230478882Y-158724865D01*
X230582339Y-158975252D01*
X230773741Y-159166987D01*
X231023946Y-159270882D01*
X231294865Y-159271118D01*
X231545252Y-159167661D01*
X231736987Y-158976259D01*
X231840882Y-158726054D01*
X231841118Y-158455135D01*
X231737661Y-158204748D01*
X231546259Y-158013013D01*
X231296054Y-157909118D01*
X231025135Y-157908882D01*
X230774748Y-158012339D01*
X230583013Y-158203741D01*
X230479118Y-158453946D01*
X230478882Y-158724865D01*
X196547830Y-158724865D01*
X196386259Y-158563013D01*
X196136054Y-158459118D01*
X195865135Y-158458882D01*
X195614748Y-158562339D01*
X195423013Y-158753741D01*
X195319118Y-159003946D01*
X195318882Y-159274865D01*
X193501109Y-159274865D01*
X193501118Y-159265135D01*
X193397661Y-159014748D01*
X193206259Y-158823013D01*
X192956054Y-158719118D01*
X192685135Y-158718882D01*
X192434748Y-158822339D01*
X192243013Y-159013741D01*
X192139118Y-159263946D01*
X192138882Y-159534865D01*
X191553070Y-159534865D01*
X191560882Y-159516054D01*
X191561118Y-159245135D01*
X191457661Y-158994748D01*
X191266259Y-158803013D01*
X191016054Y-158699118D01*
X190745135Y-158698882D01*
X190494748Y-158802339D01*
X190303013Y-158993741D01*
X190199118Y-159243946D01*
X190198882Y-159514865D01*
X189860952Y-159514865D01*
X189861118Y-159325135D01*
X189757661Y-159074748D01*
X189566259Y-158883013D01*
X189316054Y-158779118D01*
X189045135Y-158778882D01*
X188794748Y-158882339D01*
X188603013Y-159073741D01*
X188499118Y-159323946D01*
X188498882Y-159594865D01*
X167456000Y-159594865D01*
X167456000Y-157704865D01*
X179488882Y-157704865D01*
X179592339Y-157955252D01*
X179783741Y-158146987D01*
X180033946Y-158250882D01*
X180304865Y-158251118D01*
X180555252Y-158147661D01*
X180746987Y-157956259D01*
X180850882Y-157706054D01*
X180851118Y-157435135D01*
X180760105Y-157214865D01*
X182428882Y-157214865D01*
X182532339Y-157465252D01*
X182723741Y-157656987D01*
X182973946Y-157760882D01*
X183244865Y-157761118D01*
X183495252Y-157657661D01*
X183686987Y-157466259D01*
X183790882Y-157216054D01*
X183790926Y-157164865D01*
X191418882Y-157164865D01*
X191522339Y-157415252D01*
X191713741Y-157606987D01*
X191963946Y-157710882D01*
X192234865Y-157711118D01*
X192485252Y-157607661D01*
X192676987Y-157416259D01*
X192702480Y-157354865D01*
X200988882Y-157354865D01*
X201092339Y-157605252D01*
X201283741Y-157796987D01*
X201533946Y-157900882D01*
X201804865Y-157901118D01*
X202055252Y-157797661D01*
X202188279Y-157664865D01*
X218938882Y-157664865D01*
X219042339Y-157915252D01*
X219233741Y-158106987D01*
X219483946Y-158210882D01*
X219754865Y-158211118D01*
X220005252Y-158107661D01*
X220196987Y-157916259D01*
X220300882Y-157666054D01*
X220301118Y-157395135D01*
X220197661Y-157144748D01*
X220117917Y-157064865D01*
X220438882Y-157064865D01*
X220542339Y-157315252D01*
X220733741Y-157506987D01*
X220983946Y-157610882D01*
X221254865Y-157611118D01*
X221505252Y-157507661D01*
X221571894Y-157441135D01*
X221763946Y-157520882D01*
X222034865Y-157521118D01*
X222285252Y-157417661D01*
X222309876Y-157393080D01*
X222333741Y-157416987D01*
X222583946Y-157520882D01*
X222854865Y-157521118D01*
X223105252Y-157417661D01*
X223296987Y-157226259D01*
X223400882Y-156976054D01*
X223401118Y-156705135D01*
X223382413Y-156659865D01*
X230343882Y-156659865D01*
X230447339Y-156910252D01*
X230638741Y-157101987D01*
X230888946Y-157205882D01*
X231159865Y-157206118D01*
X231410252Y-157102661D01*
X231601987Y-156911259D01*
X231705882Y-156661054D01*
X231706118Y-156390135D01*
X231602661Y-156139748D01*
X231411259Y-155948013D01*
X231161054Y-155844118D01*
X230890135Y-155843882D01*
X230639748Y-155947339D01*
X230448013Y-156138741D01*
X230344118Y-156388946D01*
X230343882Y-156659865D01*
X223382413Y-156659865D01*
X223297661Y-156454748D01*
X223106259Y-156263013D01*
X222856054Y-156159118D01*
X222585135Y-156158882D01*
X222334748Y-156262339D01*
X222310124Y-156286920D01*
X222286259Y-156263013D01*
X222036054Y-156159118D01*
X221765135Y-156158882D01*
X221514748Y-156262339D01*
X221448106Y-156328865D01*
X221256054Y-156249118D01*
X220985135Y-156248882D01*
X220734748Y-156352339D01*
X220543013Y-156543741D01*
X220439118Y-156793946D01*
X220438882Y-157064865D01*
X220117917Y-157064865D01*
X220006259Y-156953013D01*
X219756054Y-156849118D01*
X219485135Y-156848882D01*
X219234748Y-156952339D01*
X219043013Y-157143741D01*
X218939118Y-157393946D01*
X218938882Y-157664865D01*
X202188279Y-157664865D01*
X202246987Y-157606259D01*
X202350882Y-157356054D01*
X202351118Y-157085135D01*
X202247710Y-156834865D01*
X202648882Y-156834865D01*
X202752339Y-157085252D01*
X202943741Y-157276987D01*
X203193946Y-157380882D01*
X203464865Y-157381118D01*
X203715252Y-157277661D01*
X203906987Y-157086259D01*
X204010882Y-156836054D01*
X204011118Y-156565135D01*
X203907661Y-156314748D01*
X203716259Y-156123013D01*
X203466054Y-156019118D01*
X203195135Y-156018882D01*
X202944748Y-156122339D01*
X202753013Y-156313741D01*
X202649118Y-156563946D01*
X202648882Y-156834865D01*
X202247710Y-156834865D01*
X202247661Y-156834748D01*
X202056259Y-156643013D01*
X201806054Y-156539118D01*
X201535135Y-156538882D01*
X201284748Y-156642339D01*
X201093013Y-156833741D01*
X200989118Y-157083946D01*
X200988882Y-157354865D01*
X192702480Y-157354865D01*
X192780882Y-157166054D01*
X192781118Y-156895135D01*
X192677661Y-156644748D01*
X192486259Y-156453013D01*
X192236054Y-156349118D01*
X191965135Y-156348882D01*
X191714748Y-156452339D01*
X191523013Y-156643741D01*
X191419118Y-156893946D01*
X191418882Y-157164865D01*
X183790926Y-157164865D01*
X183791118Y-156945135D01*
X183687661Y-156694748D01*
X183496259Y-156503013D01*
X183246054Y-156399118D01*
X182975135Y-156398882D01*
X182724748Y-156502339D01*
X182533013Y-156693741D01*
X182429118Y-156943946D01*
X182428882Y-157214865D01*
X180760105Y-157214865D01*
X180747661Y-157184748D01*
X180556259Y-156993013D01*
X180306054Y-156889118D01*
X180035135Y-156888882D01*
X179784748Y-156992339D01*
X179593013Y-157183741D01*
X179489118Y-157433946D01*
X179488882Y-157704865D01*
X167456000Y-157704865D01*
X167456000Y-155834865D01*
X176443882Y-155834865D01*
X176547339Y-156085252D01*
X176738741Y-156276987D01*
X176988946Y-156380882D01*
X177259865Y-156381118D01*
X177500283Y-156281780D01*
X177738946Y-156380882D01*
X178009865Y-156381118D01*
X178260252Y-156277661D01*
X178451987Y-156086259D01*
X178460870Y-156064865D01*
X179918882Y-156064865D01*
X180022339Y-156315252D01*
X180213741Y-156506987D01*
X180463946Y-156610882D01*
X180734865Y-156611118D01*
X180985252Y-156507661D01*
X181176987Y-156316259D01*
X181280882Y-156066054D01*
X181281072Y-155847983D01*
X181292339Y-155875252D01*
X181483741Y-156066987D01*
X181733946Y-156170882D01*
X182004865Y-156171118D01*
X182255252Y-156067661D01*
X182446987Y-155876259D01*
X182550882Y-155626054D01*
X182551057Y-155424865D01*
X229008882Y-155424865D01*
X229112339Y-155675252D01*
X229303741Y-155866987D01*
X229553946Y-155970882D01*
X229824865Y-155971118D01*
X230075252Y-155867661D01*
X230266987Y-155676259D01*
X230370882Y-155426054D01*
X230371118Y-155155135D01*
X230267661Y-154904748D01*
X230076259Y-154713013D01*
X229826054Y-154609118D01*
X229555135Y-154608882D01*
X229304748Y-154712339D01*
X229113013Y-154903741D01*
X229009118Y-155153946D01*
X229008882Y-155424865D01*
X182551057Y-155424865D01*
X182551118Y-155355135D01*
X182447661Y-155104748D01*
X182256259Y-154913013D01*
X182006054Y-154809118D01*
X181735135Y-154808882D01*
X181484748Y-154912339D01*
X181293013Y-155103741D01*
X181189118Y-155353946D01*
X181188928Y-155572017D01*
X181177661Y-155544748D01*
X180986259Y-155353013D01*
X180736054Y-155249118D01*
X180465135Y-155248882D01*
X180214748Y-155352339D01*
X180023013Y-155543741D01*
X179919118Y-155793946D01*
X179918882Y-156064865D01*
X178460870Y-156064865D01*
X178555882Y-155836054D01*
X178556118Y-155565135D01*
X178452661Y-155314748D01*
X178261259Y-155123013D01*
X178011054Y-155019118D01*
X177740135Y-155018882D01*
X177499717Y-155118220D01*
X177261054Y-155019118D01*
X176990135Y-155018882D01*
X176739748Y-155122339D01*
X176548013Y-155313741D01*
X176444118Y-155563946D01*
X176443882Y-155834865D01*
X167456000Y-155834865D01*
X167456000Y-154744865D01*
X182358882Y-154744865D01*
X182462339Y-154995252D01*
X182653741Y-155186987D01*
X182903946Y-155290882D01*
X183174865Y-155291118D01*
X183425252Y-155187661D01*
X183616987Y-154996259D01*
X183720882Y-154746054D01*
X183721118Y-154475135D01*
X183617661Y-154224748D01*
X183426259Y-154033013D01*
X183176054Y-153929118D01*
X182905135Y-153928882D01*
X182654748Y-154032339D01*
X182463013Y-154223741D01*
X182359118Y-154473946D01*
X182358882Y-154744865D01*
X167456000Y-154744865D01*
X167456000Y-152834865D01*
X174943882Y-152834865D01*
X175047339Y-153085252D01*
X175238741Y-153276987D01*
X175488946Y-153380882D01*
X175759865Y-153381118D01*
X176000283Y-153281780D01*
X176238946Y-153380882D01*
X176509865Y-153381118D01*
X176760252Y-153277661D01*
X176951987Y-153086259D01*
X177055882Y-152836054D01*
X177056118Y-152565135D01*
X176952661Y-152314748D01*
X176761259Y-152123013D01*
X176511054Y-152019118D01*
X176240135Y-152018882D01*
X175999717Y-152118220D01*
X175761054Y-152019118D01*
X175490135Y-152018882D01*
X175239748Y-152122339D01*
X175048013Y-152313741D01*
X174944118Y-152563946D01*
X174943882Y-152834865D01*
X167456000Y-152834865D01*
X167456000Y-151244669D01*
X208498864Y-151244669D01*
X208617514Y-151531823D01*
X208837021Y-151751714D01*
X209123968Y-151870864D01*
X209434669Y-151871136D01*
X209721823Y-151752486D01*
X209941714Y-151532979D01*
X210060864Y-151246032D01*
X210061136Y-150935331D01*
X209942486Y-150648177D01*
X209722979Y-150428286D01*
X209436032Y-150309136D01*
X209125331Y-150308864D01*
X208838177Y-150427514D01*
X208618286Y-150647021D01*
X208499136Y-150933968D01*
X208498864Y-151244669D01*
X167456000Y-151244669D01*
X167456000Y-150534865D01*
X174343882Y-150534865D01*
X174447339Y-150785252D01*
X174638741Y-150976987D01*
X174888946Y-151080882D01*
X175159865Y-151081118D01*
X175400283Y-150981780D01*
X175638946Y-151080882D01*
X175909865Y-151081118D01*
X176160252Y-150977661D01*
X176351987Y-150786259D01*
X176455882Y-150536054D01*
X176456118Y-150265135D01*
X176352661Y-150014748D01*
X176161259Y-149823013D01*
X175911054Y-149719118D01*
X175640135Y-149718882D01*
X175399717Y-149818220D01*
X175161054Y-149719118D01*
X174890135Y-149718882D01*
X174639748Y-149822339D01*
X174448013Y-150013741D01*
X174344118Y-150263946D01*
X174343882Y-150534865D01*
X167456000Y-150534865D01*
X167456000Y-148774669D01*
X186488864Y-148774669D01*
X186607514Y-149061823D01*
X186827021Y-149281714D01*
X187113968Y-149400864D01*
X187424669Y-149401136D01*
X187711823Y-149282486D01*
X187931714Y-149062979D01*
X188050864Y-148776032D01*
X188051136Y-148465331D01*
X187932486Y-148178177D01*
X187712979Y-147958286D01*
X187426032Y-147839136D01*
X187115331Y-147838864D01*
X186828177Y-147957514D01*
X186608286Y-148177021D01*
X186489136Y-148463968D01*
X186488864Y-148774669D01*
X167456000Y-148774669D01*
X167456000Y-146369700D01*
X173153717Y-146369700D01*
X173257174Y-146620087D01*
X173448576Y-146811822D01*
X173688820Y-146911581D01*
X173787504Y-147150417D01*
X173978906Y-147342152D01*
X174229111Y-147446047D01*
X174500030Y-147446283D01*
X174750417Y-147342826D01*
X174753743Y-147339505D01*
X174753717Y-147369700D01*
X174857174Y-147620087D01*
X175048576Y-147811822D01*
X175288820Y-147911581D01*
X175387504Y-148150417D01*
X175578906Y-148342152D01*
X175829111Y-148446047D01*
X176100030Y-148446283D01*
X176350417Y-148342826D01*
X176542152Y-148151424D01*
X176646047Y-147901219D01*
X176646283Y-147630300D01*
X176542826Y-147379913D01*
X176351424Y-147188178D01*
X176111180Y-147088419D01*
X176012496Y-146849583D01*
X175821094Y-146657848D01*
X175570889Y-146553953D01*
X175299970Y-146553717D01*
X175049583Y-146657174D01*
X175046257Y-146660495D01*
X175046283Y-146630300D01*
X174981979Y-146474669D01*
X202348864Y-146474669D01*
X202467514Y-146761823D01*
X202687021Y-146981714D01*
X202973968Y-147100864D01*
X203284669Y-147101136D01*
X203571823Y-146982486D01*
X203791714Y-146762979D01*
X203910864Y-146476032D01*
X203911136Y-146165331D01*
X203855994Y-146031877D01*
X203973968Y-146080864D01*
X204284669Y-146081136D01*
X204571823Y-145962486D01*
X204754928Y-145779700D01*
X211563717Y-145779700D01*
X211667174Y-146030087D01*
X211858576Y-146221822D01*
X212098820Y-146321581D01*
X212197504Y-146560417D01*
X212388906Y-146752152D01*
X212639111Y-146856047D01*
X212910030Y-146856283D01*
X213160417Y-146752826D01*
X213352152Y-146561424D01*
X213456047Y-146311219D01*
X213456283Y-146040300D01*
X213352826Y-145789913D01*
X213161424Y-145598178D01*
X212921180Y-145498419D01*
X212822496Y-145259583D01*
X212631094Y-145067848D01*
X212380889Y-144963953D01*
X212109970Y-144963717D01*
X211859583Y-145067174D01*
X211667848Y-145258576D01*
X211563953Y-145508781D01*
X211563717Y-145779700D01*
X204754928Y-145779700D01*
X204791714Y-145742979D01*
X204910864Y-145456032D01*
X204911136Y-145145331D01*
X204792486Y-144858177D01*
X204572979Y-144638286D01*
X204431888Y-144579700D01*
X215853717Y-144579700D01*
X215957174Y-144830087D01*
X216148576Y-145021822D01*
X216388820Y-145121581D01*
X216487504Y-145360417D01*
X216678906Y-145552152D01*
X216929111Y-145656047D01*
X217200030Y-145656283D01*
X217450417Y-145552826D01*
X217642152Y-145361424D01*
X217730068Y-145149700D01*
X218303717Y-145149700D01*
X218407174Y-145400087D01*
X218598576Y-145591822D01*
X218838820Y-145691581D01*
X218937504Y-145930417D01*
X219128906Y-146122152D01*
X219379111Y-146226047D01*
X219650030Y-146226283D01*
X219786972Y-146169700D01*
X222333717Y-146169700D01*
X222437174Y-146420087D01*
X222628576Y-146611822D01*
X222868820Y-146711581D01*
X222967504Y-146950417D01*
X223158906Y-147142152D01*
X223409111Y-147246047D01*
X223680030Y-147246283D01*
X223930417Y-147142826D01*
X224122152Y-146951424D01*
X224223807Y-146706614D01*
X224223717Y-146809700D01*
X224327174Y-147060087D01*
X224518576Y-147251822D01*
X224758820Y-147351581D01*
X224857504Y-147590417D01*
X225048906Y-147782152D01*
X225299111Y-147886047D01*
X225570030Y-147886283D01*
X225820417Y-147782826D01*
X226012152Y-147591424D01*
X226116047Y-147341219D01*
X226116061Y-147324669D01*
X229918864Y-147324669D01*
X230037514Y-147611823D01*
X230257021Y-147831714D01*
X230543968Y-147950864D01*
X230854669Y-147951136D01*
X231141823Y-147832486D01*
X231361714Y-147612979D01*
X231480864Y-147326032D01*
X231481136Y-147015331D01*
X231362486Y-146728177D01*
X231142979Y-146508286D01*
X230856032Y-146389136D01*
X230545331Y-146388864D01*
X230258177Y-146507514D01*
X230038286Y-146727021D01*
X229919136Y-147013968D01*
X229918864Y-147324669D01*
X226116061Y-147324669D01*
X226116283Y-147070300D01*
X226012826Y-146819913D01*
X225821424Y-146628178D01*
X225581180Y-146528419D01*
X225482496Y-146289583D01*
X225291094Y-146097848D01*
X225040889Y-145993953D01*
X224769970Y-145993717D01*
X224519583Y-146097174D01*
X224327848Y-146288576D01*
X224226193Y-146533386D01*
X224226283Y-146430300D01*
X224122826Y-146179913D01*
X223931424Y-145988178D01*
X223691180Y-145888419D01*
X223592496Y-145649583D01*
X223401094Y-145457848D01*
X223150889Y-145353953D01*
X222879970Y-145353717D01*
X222629583Y-145457174D01*
X222437848Y-145648576D01*
X222333953Y-145898781D01*
X222333717Y-146169700D01*
X219786972Y-146169700D01*
X219900417Y-146122826D01*
X220092152Y-145931424D01*
X220196047Y-145681219D01*
X220196283Y-145410300D01*
X220092826Y-145159913D01*
X219901424Y-144968178D01*
X219661180Y-144868419D01*
X219562496Y-144629583D01*
X219371094Y-144437848D01*
X219120889Y-144333953D01*
X218849970Y-144333717D01*
X218599583Y-144437174D01*
X218407848Y-144628576D01*
X218303953Y-144878781D01*
X218303717Y-145149700D01*
X217730068Y-145149700D01*
X217746047Y-145111219D01*
X217746283Y-144840300D01*
X217642826Y-144589913D01*
X217451424Y-144398178D01*
X217211180Y-144298419D01*
X217112496Y-144059583D01*
X216921094Y-143867848D01*
X216670889Y-143763953D01*
X216399970Y-143763717D01*
X216149583Y-143867174D01*
X215957848Y-144058576D01*
X215853953Y-144308781D01*
X215853717Y-144579700D01*
X204431888Y-144579700D01*
X204286032Y-144519136D01*
X203975331Y-144518864D01*
X203688177Y-144637514D01*
X203468286Y-144857021D01*
X203349136Y-145143968D01*
X203348864Y-145454669D01*
X203404006Y-145588123D01*
X203286032Y-145539136D01*
X202975331Y-145538864D01*
X202688177Y-145657514D01*
X202468286Y-145877021D01*
X202349136Y-146163968D01*
X202348864Y-146474669D01*
X174981979Y-146474669D01*
X174942826Y-146379913D01*
X174751424Y-146188178D01*
X174511180Y-146088419D01*
X174412496Y-145849583D01*
X174221094Y-145657848D01*
X173970889Y-145553953D01*
X173699970Y-145553717D01*
X173449583Y-145657174D01*
X173257848Y-145848576D01*
X173153953Y-146098781D01*
X173153717Y-146369700D01*
X167456000Y-146369700D01*
X167456000Y-142764669D01*
X176798864Y-142764669D01*
X176917514Y-143051823D01*
X177137021Y-143271714D01*
X177423968Y-143390864D01*
X177734669Y-143391136D01*
X178021823Y-143272486D01*
X178241714Y-143052979D01*
X178336515Y-142824669D01*
X182188864Y-142824669D01*
X182307514Y-143111823D01*
X182527021Y-143331714D01*
X182813968Y-143450864D01*
X183124669Y-143451136D01*
X183411823Y-143332486D01*
X183631714Y-143112979D01*
X183651855Y-143064473D01*
X194358847Y-143064473D01*
X194492689Y-143388395D01*
X194740302Y-143636440D01*
X195063989Y-143770847D01*
X195414473Y-143771153D01*
X195738395Y-143637311D01*
X195986440Y-143389698D01*
X196120847Y-143066011D01*
X196121153Y-142715527D01*
X195987311Y-142391605D01*
X195739698Y-142143560D01*
X195416011Y-142009153D01*
X195065527Y-142008847D01*
X194741605Y-142142689D01*
X194493560Y-142390302D01*
X194359153Y-142713989D01*
X194358847Y-143064473D01*
X183651855Y-143064473D01*
X183750864Y-142826032D01*
X183751136Y-142515331D01*
X183632486Y-142228177D01*
X183412979Y-142008286D01*
X183126032Y-141889136D01*
X182815331Y-141888864D01*
X182528177Y-142007514D01*
X182308286Y-142227021D01*
X182189136Y-142513968D01*
X182188864Y-142824669D01*
X178336515Y-142824669D01*
X178360864Y-142766032D01*
X178361136Y-142455331D01*
X178242486Y-142168177D01*
X178022979Y-141948286D01*
X177736032Y-141829136D01*
X177425331Y-141828864D01*
X177138177Y-141947514D01*
X176918286Y-142167021D01*
X176799136Y-142453968D01*
X176798864Y-142764669D01*
X167456000Y-142764669D01*
X167456000Y-141504473D01*
X185898847Y-141504473D01*
X186032689Y-141828395D01*
X186280302Y-142076440D01*
X186603989Y-142210847D01*
X186954473Y-142211153D01*
X187278395Y-142077311D01*
X187526440Y-141829698D01*
X187660847Y-141506011D01*
X187661153Y-141155527D01*
X187527311Y-140831605D01*
X187279698Y-140583560D01*
X186956011Y-140449153D01*
X186605527Y-140448847D01*
X186281605Y-140582689D01*
X186033560Y-140830302D01*
X185899153Y-141153989D01*
X185898847Y-141504473D01*
X167456000Y-141504473D01*
X167456000Y-134814865D01*
X192378882Y-134814865D01*
X192482339Y-135065252D01*
X192673741Y-135256987D01*
X192923946Y-135360882D01*
X193194865Y-135361118D01*
X193445252Y-135257661D01*
X193636987Y-135066259D01*
X193740882Y-134816054D01*
X193741118Y-134545135D01*
X193637661Y-134294748D01*
X193446259Y-134103013D01*
X193196054Y-133999118D01*
X192925135Y-133998882D01*
X192674748Y-134102339D01*
X192483013Y-134293741D01*
X192379118Y-134543946D01*
X192378882Y-134814865D01*
X167456000Y-134814865D01*
X167456000Y-130434473D01*
X192038847Y-130434473D01*
X192172689Y-130758395D01*
X192420302Y-131006440D01*
X192743989Y-131140847D01*
X193094473Y-131141153D01*
X193418395Y-131007311D01*
X193666440Y-130759698D01*
X193800847Y-130436011D01*
X193801153Y-130085527D01*
X193667311Y-129761605D01*
X193419698Y-129513560D01*
X193096011Y-129379153D01*
X192745527Y-129378847D01*
X192421605Y-129512689D01*
X192173560Y-129760302D01*
X192039153Y-130083989D01*
X192038847Y-130434473D01*
X167456000Y-130434473D01*
X167456000Y-128304473D01*
X192038847Y-128304473D01*
X192172689Y-128628395D01*
X192420302Y-128876440D01*
X192743989Y-129010847D01*
X193094473Y-129011153D01*
X193418395Y-128877311D01*
X193666440Y-128629698D01*
X193797333Y-128314473D01*
X206508847Y-128314473D01*
X206642689Y-128638395D01*
X206890302Y-128886440D01*
X207213989Y-129020847D01*
X207564473Y-129021153D01*
X207888395Y-128887311D01*
X208136440Y-128639698D01*
X208270847Y-128316011D01*
X208271153Y-127965527D01*
X208137311Y-127641605D01*
X207889698Y-127393560D01*
X207566011Y-127259153D01*
X207215527Y-127258847D01*
X206891605Y-127392689D01*
X206643560Y-127640302D01*
X206509153Y-127963989D01*
X206508847Y-128314473D01*
X193797333Y-128314473D01*
X193800847Y-128306011D01*
X193801153Y-127955527D01*
X193667311Y-127631605D01*
X193419698Y-127383560D01*
X193096011Y-127249153D01*
X192745527Y-127248847D01*
X192421605Y-127382689D01*
X192173560Y-127630302D01*
X192039153Y-127953989D01*
X192038847Y-128304473D01*
X167456000Y-128304473D01*
X167456000Y-126384669D01*
X204558864Y-126384669D01*
X204677514Y-126671823D01*
X204897021Y-126891714D01*
X205183968Y-127010864D01*
X205494669Y-127011136D01*
X205781823Y-126892486D01*
X206001714Y-126672979D01*
X206120864Y-126386032D01*
X206121136Y-126075331D01*
X206002486Y-125788177D01*
X205782979Y-125568286D01*
X205496032Y-125449136D01*
X205185331Y-125448864D01*
X204898177Y-125567514D01*
X204678286Y-125787021D01*
X204559136Y-126073968D01*
X204558864Y-126384669D01*
X167456000Y-126384669D01*
X167456000Y-123814865D01*
X196068882Y-123814865D01*
X196172339Y-124065252D01*
X196363741Y-124256987D01*
X196613946Y-124360882D01*
X196884865Y-124361118D01*
X197135252Y-124257661D01*
X197326987Y-124066259D01*
X197430882Y-123816054D01*
X197431118Y-123545135D01*
X197327661Y-123294748D01*
X197136259Y-123103013D01*
X196886054Y-122999118D01*
X196615135Y-122998882D01*
X196364748Y-123102339D01*
X196173013Y-123293741D01*
X196069118Y-123543946D01*
X196068882Y-123814865D01*
X167456000Y-123814865D01*
X167456000Y-122794865D01*
X197168882Y-122794865D01*
X197272339Y-123045252D01*
X197463741Y-123236987D01*
X197713946Y-123340882D01*
X197984865Y-123341118D01*
X198235252Y-123237661D01*
X198426987Y-123046259D01*
X198530882Y-122796054D01*
X198531118Y-122525135D01*
X198427661Y-122274748D01*
X198236259Y-122083013D01*
X197986054Y-121979118D01*
X197715135Y-121978882D01*
X197464748Y-122082339D01*
X197273013Y-122273741D01*
X197169118Y-122523946D01*
X197168882Y-122794865D01*
X167456000Y-122794865D01*
X167456000Y-121214865D01*
X206898882Y-121214865D01*
X207002339Y-121465252D01*
X207193741Y-121656987D01*
X207443946Y-121760882D01*
X207714865Y-121761118D01*
X207965252Y-121657661D01*
X208156987Y-121466259D01*
X208260882Y-121216054D01*
X208261118Y-120945135D01*
X208157661Y-120694748D01*
X207966259Y-120503013D01*
X207716054Y-120399118D01*
X207445135Y-120398882D01*
X207194748Y-120502339D01*
X207003013Y-120693741D01*
X206899118Y-120943946D01*
X206898882Y-121214865D01*
X167456000Y-121214865D01*
X167456000Y-120500000D01*
X167421289Y-120325496D01*
X167322441Y-120177559D01*
X167174504Y-120078711D01*
X167000000Y-120044000D01*
X137456000Y-120044000D01*
X137456000Y-119684865D01*
X195768882Y-119684865D01*
X195872339Y-119935252D01*
X196063741Y-120126987D01*
X196313946Y-120230882D01*
X196584865Y-120231118D01*
X196835252Y-120127661D01*
X197026987Y-119936259D01*
X197130882Y-119686054D01*
X197131118Y-119415135D01*
X197027661Y-119164748D01*
X196836259Y-118973013D01*
X196586054Y-118869118D01*
X196315135Y-118868882D01*
X196064748Y-118972339D01*
X195873013Y-119163741D01*
X195769118Y-119413946D01*
X195768882Y-119684865D01*
X137456000Y-119684865D01*
X137456000Y-116614865D01*
X187028882Y-116614865D01*
X187132339Y-116865252D01*
X187323741Y-117056987D01*
X187573946Y-117160882D01*
X187844865Y-117161118D01*
X188095252Y-117057661D01*
X188286987Y-116866259D01*
X188387223Y-116624865D01*
X190368882Y-116624865D01*
X190472339Y-116875252D01*
X190663741Y-117066987D01*
X190913946Y-117170882D01*
X191184865Y-117171118D01*
X191435252Y-117067661D01*
X191595058Y-116908132D01*
X191693741Y-117006987D01*
X191943946Y-117110882D01*
X192214865Y-117111118D01*
X192465252Y-117007661D01*
X192509884Y-116963106D01*
X192523741Y-116976987D01*
X192773946Y-117080882D01*
X193044865Y-117081118D01*
X193295252Y-116977661D01*
X193409945Y-116863167D01*
X193423741Y-116876987D01*
X193519889Y-116916912D01*
X193493013Y-116943741D01*
X193389118Y-117193946D01*
X193388882Y-117464865D01*
X193476381Y-117676631D01*
X193244748Y-117772339D01*
X193053013Y-117963741D01*
X192949118Y-118213946D01*
X192948882Y-118484865D01*
X193052339Y-118735252D01*
X193243741Y-118926987D01*
X193493946Y-119030882D01*
X193764865Y-119031118D01*
X194015252Y-118927661D01*
X194206987Y-118736259D01*
X194310882Y-118486054D01*
X194310935Y-118424865D01*
X202498882Y-118424865D01*
X202602339Y-118675252D01*
X202793741Y-118866987D01*
X203043946Y-118970882D01*
X203314865Y-118971118D01*
X203565252Y-118867661D01*
X203756987Y-118676259D01*
X203857223Y-118434865D01*
X205488882Y-118434865D01*
X205592339Y-118685252D01*
X205783741Y-118876987D01*
X206033946Y-118980882D01*
X206304865Y-118981118D01*
X206555252Y-118877661D01*
X206746987Y-118686259D01*
X206850882Y-118436054D01*
X206851118Y-118165135D01*
X206747661Y-117914748D01*
X206556259Y-117723013D01*
X206306054Y-117619118D01*
X206035135Y-117618882D01*
X205784748Y-117722339D01*
X205593013Y-117913741D01*
X205489118Y-118163946D01*
X205488882Y-118434865D01*
X203857223Y-118434865D01*
X203860882Y-118426054D01*
X203861118Y-118155135D01*
X203757661Y-117904748D01*
X203566259Y-117713013D01*
X203316054Y-117609118D01*
X203045135Y-117608882D01*
X202794748Y-117712339D01*
X202603013Y-117903741D01*
X202499118Y-118153946D01*
X202498882Y-118424865D01*
X194310935Y-118424865D01*
X194311118Y-118215135D01*
X194223619Y-118003369D01*
X194455252Y-117907661D01*
X194646987Y-117716259D01*
X194750882Y-117466054D01*
X194751118Y-117195135D01*
X194730348Y-117144865D01*
X197038882Y-117144865D01*
X197142339Y-117395252D01*
X197333741Y-117586987D01*
X197583946Y-117690882D01*
X197854865Y-117691118D01*
X198105252Y-117587661D01*
X198296987Y-117396259D01*
X198400882Y-117146054D01*
X198401118Y-116875135D01*
X198297661Y-116624748D01*
X198106259Y-116433013D01*
X197856054Y-116329118D01*
X197585135Y-116328882D01*
X197334748Y-116432339D01*
X197143013Y-116623741D01*
X197039118Y-116873946D01*
X197038882Y-117144865D01*
X194730348Y-117144865D01*
X194647661Y-116944748D01*
X194456259Y-116753013D01*
X194360111Y-116713088D01*
X194386987Y-116686259D01*
X194490882Y-116436054D01*
X194491118Y-116165135D01*
X194387661Y-115914748D01*
X194208091Y-115734865D01*
X210438882Y-115734865D01*
X210542339Y-115985252D01*
X210733741Y-116176987D01*
X210983946Y-116280882D01*
X211254865Y-116281118D01*
X211505252Y-116177661D01*
X211696987Y-115986259D01*
X211800882Y-115736054D01*
X211801118Y-115465135D01*
X211697661Y-115214748D01*
X211506259Y-115023013D01*
X211256054Y-114919118D01*
X210985135Y-114918882D01*
X210734748Y-115022339D01*
X210543013Y-115213741D01*
X210439118Y-115463946D01*
X210438882Y-115734865D01*
X194208091Y-115734865D01*
X194196259Y-115723013D01*
X193946054Y-115619118D01*
X193675135Y-115618882D01*
X193424748Y-115722339D01*
X193310055Y-115836833D01*
X193296259Y-115823013D01*
X193046054Y-115719118D01*
X192775135Y-115718882D01*
X192524748Y-115822339D01*
X192480116Y-115866894D01*
X192466259Y-115853013D01*
X192216054Y-115749118D01*
X191945135Y-115748882D01*
X191694748Y-115852339D01*
X191534942Y-116011868D01*
X191436259Y-115913013D01*
X191186054Y-115809118D01*
X190915135Y-115808882D01*
X190664748Y-115912339D01*
X190473013Y-116103741D01*
X190369118Y-116353946D01*
X190368882Y-116624865D01*
X188387223Y-116624865D01*
X188390882Y-116616054D01*
X188391118Y-116345135D01*
X188355066Y-116257882D01*
X188526987Y-116086259D01*
X188630882Y-115836054D01*
X188631118Y-115565135D01*
X188527661Y-115314748D01*
X188453011Y-115239968D01*
X188606987Y-115086259D01*
X188710882Y-114836054D01*
X188711118Y-114565135D01*
X188607661Y-114314748D01*
X188578002Y-114285037D01*
X188696987Y-114166259D01*
X188776624Y-113974473D01*
X190308847Y-113974473D01*
X190442689Y-114298395D01*
X190690302Y-114546440D01*
X191013989Y-114680847D01*
X191364473Y-114681153D01*
X191688395Y-114547311D01*
X191921246Y-114314865D01*
X194268882Y-114314865D01*
X194372339Y-114565252D01*
X194563741Y-114756987D01*
X194813946Y-114860882D01*
X195084865Y-114861118D01*
X195335252Y-114757661D01*
X195335548Y-114757365D01*
X212136382Y-114757365D01*
X212239839Y-115007752D01*
X212431241Y-115199487D01*
X212681446Y-115303382D01*
X212952365Y-115303618D01*
X213202752Y-115200161D01*
X213394487Y-115008759D01*
X213498382Y-114758554D01*
X213498618Y-114487635D01*
X213395161Y-114237248D01*
X213203759Y-114045513D01*
X212953554Y-113941618D01*
X212682635Y-113941382D01*
X212432248Y-114044839D01*
X212240513Y-114236241D01*
X212136618Y-114486446D01*
X212136382Y-114757365D01*
X195335548Y-114757365D01*
X195526987Y-114566259D01*
X195630882Y-114316054D01*
X195631118Y-114045135D01*
X195527661Y-113794748D01*
X195336259Y-113603013D01*
X195086054Y-113499118D01*
X194815135Y-113498882D01*
X194564748Y-113602339D01*
X194373013Y-113793741D01*
X194269118Y-114043946D01*
X194268882Y-114314865D01*
X191921246Y-114314865D01*
X191936440Y-114299698D01*
X192070847Y-113976011D01*
X192071153Y-113625527D01*
X192008901Y-113474865D01*
X201598882Y-113474865D01*
X201702339Y-113725252D01*
X201893741Y-113916987D01*
X202143946Y-114020882D01*
X202414865Y-114021118D01*
X202665252Y-113917661D01*
X202856987Y-113726259D01*
X202950762Y-113500425D01*
X203002339Y-113625252D01*
X203193741Y-113816987D01*
X203443946Y-113920882D01*
X203714865Y-113921118D01*
X203965252Y-113817661D01*
X204146827Y-113636402D01*
X204253946Y-113680882D01*
X204524865Y-113681118D01*
X204775252Y-113577661D01*
X204966987Y-113386259D01*
X205033544Y-113225972D01*
X205213946Y-113300882D01*
X205484865Y-113301118D01*
X205735252Y-113197661D01*
X205926987Y-113006259D01*
X205994004Y-112844865D01*
X215508882Y-112844865D01*
X215612339Y-113095252D01*
X215803741Y-113286987D01*
X216053946Y-113390882D01*
X216279042Y-113391078D01*
X216278882Y-113574865D01*
X216382339Y-113825252D01*
X216573741Y-114016987D01*
X216823946Y-114120882D01*
X217094865Y-114121118D01*
X217345252Y-114017661D01*
X217388122Y-113974865D01*
X225938882Y-113974865D01*
X226042339Y-114225252D01*
X226233741Y-114416987D01*
X226483946Y-114520882D01*
X226754865Y-114521118D01*
X227005252Y-114417661D01*
X227196987Y-114226259D01*
X227300882Y-113976054D01*
X227301118Y-113705135D01*
X227197661Y-113454748D01*
X227006259Y-113263013D01*
X226756054Y-113159118D01*
X226485135Y-113158882D01*
X226234748Y-113262339D01*
X226043013Y-113453741D01*
X225939118Y-113703946D01*
X225938882Y-113974865D01*
X217388122Y-113974865D01*
X217536987Y-113826259D01*
X217640882Y-113576054D01*
X217641118Y-113305135D01*
X217537661Y-113054748D01*
X217346259Y-112863013D01*
X217096054Y-112759118D01*
X216870958Y-112758922D01*
X216871118Y-112575135D01*
X216767661Y-112324748D01*
X216576259Y-112133013D01*
X216326054Y-112029118D01*
X216055135Y-112028882D01*
X215804748Y-112132339D01*
X215613013Y-112323741D01*
X215509118Y-112573946D01*
X215508882Y-112844865D01*
X205994004Y-112844865D01*
X206030882Y-112756054D01*
X206031118Y-112485135D01*
X205927661Y-112234748D01*
X205736259Y-112043013D01*
X205486054Y-111939118D01*
X205215135Y-111938882D01*
X204964748Y-112042339D01*
X204773013Y-112233741D01*
X204706456Y-112394028D01*
X204526054Y-112319118D01*
X204255135Y-112318882D01*
X204004748Y-112422339D01*
X203823173Y-112603598D01*
X203716054Y-112559118D01*
X203445135Y-112558882D01*
X203194748Y-112662339D01*
X203003013Y-112853741D01*
X202909238Y-113079575D01*
X202857661Y-112954748D01*
X202666259Y-112763013D01*
X202416054Y-112659118D01*
X202145135Y-112658882D01*
X201894748Y-112762339D01*
X201703013Y-112953741D01*
X201599118Y-113203946D01*
X201598882Y-113474865D01*
X192008901Y-113474865D01*
X191937311Y-113301605D01*
X191689698Y-113053560D01*
X191366011Y-112919153D01*
X191015527Y-112918847D01*
X190691605Y-113052689D01*
X190443560Y-113300302D01*
X190309153Y-113623989D01*
X190308847Y-113974473D01*
X188776624Y-113974473D01*
X188800882Y-113916054D01*
X188801118Y-113645135D01*
X188697661Y-113394748D01*
X188506259Y-113203013D01*
X188256054Y-113099118D01*
X187985135Y-113098882D01*
X187734748Y-113202339D01*
X187543013Y-113393741D01*
X187439118Y-113643946D01*
X187438882Y-113914865D01*
X187542339Y-114165252D01*
X187571998Y-114194963D01*
X187453013Y-114313741D01*
X187349118Y-114563946D01*
X187348882Y-114834865D01*
X187452339Y-115085252D01*
X187526989Y-115160032D01*
X187373013Y-115313741D01*
X187269118Y-115563946D01*
X187268882Y-115834865D01*
X187304934Y-115922118D01*
X187133013Y-116093741D01*
X187029118Y-116343946D01*
X187028882Y-116614865D01*
X137456000Y-116614865D01*
X137456000Y-111080000D01*
X226075631Y-111080000D01*
X226170371Y-111556288D01*
X226440166Y-111960065D01*
X226843943Y-112229860D01*
X227320231Y-112324600D01*
X227679769Y-112324600D01*
X228156057Y-112229860D01*
X228559834Y-111960065D01*
X228829629Y-111556288D01*
X228924369Y-111080000D01*
X228829629Y-110603712D01*
X228559834Y-110199935D01*
X228156057Y-109930140D01*
X227679769Y-109835400D01*
X227320231Y-109835400D01*
X226843943Y-109930140D01*
X226440166Y-110199935D01*
X226170371Y-110603712D01*
X226075631Y-111080000D01*
X137456000Y-111080000D01*
X137456000Y-109274865D01*
X202518882Y-109274865D01*
X202622339Y-109525252D01*
X202813741Y-109716987D01*
X203063946Y-109820882D01*
X203334865Y-109821118D01*
X203585252Y-109717661D01*
X203776987Y-109526259D01*
X203880882Y-109276054D01*
X203881118Y-109005135D01*
X203777661Y-108754748D01*
X203586259Y-108563013D01*
X203336054Y-108459118D01*
X203065135Y-108458882D01*
X202814748Y-108562339D01*
X202623013Y-108753741D01*
X202519118Y-109003946D01*
X202518882Y-109274865D01*
X137456000Y-109274865D01*
X137456000Y-108314865D01*
X211388882Y-108314865D01*
X211492339Y-108565252D01*
X211683741Y-108756987D01*
X211933946Y-108860882D01*
X212204865Y-108861118D01*
X212455252Y-108757661D01*
X212646987Y-108566259D01*
X212657890Y-108540000D01*
X226075631Y-108540000D01*
X226170371Y-109016288D01*
X226440166Y-109420065D01*
X226843943Y-109689860D01*
X227320231Y-109784600D01*
X227679769Y-109784600D01*
X228156057Y-109689860D01*
X228559834Y-109420065D01*
X228829629Y-109016288D01*
X228924369Y-108540000D01*
X228829629Y-108063712D01*
X228559834Y-107659935D01*
X228156057Y-107390140D01*
X227679769Y-107295400D01*
X227320231Y-107295400D01*
X226843943Y-107390140D01*
X226440166Y-107659935D01*
X226170371Y-108063712D01*
X226075631Y-108540000D01*
X212657890Y-108540000D01*
X212750882Y-108316054D01*
X212751118Y-108045135D01*
X212647661Y-107794748D01*
X212456259Y-107603013D01*
X212206054Y-107499118D01*
X211935135Y-107498882D01*
X211684748Y-107602339D01*
X211493013Y-107793741D01*
X211389118Y-108043946D01*
X211388882Y-108314865D01*
X137456000Y-108314865D01*
X137456000Y-107184865D01*
X181158882Y-107184865D01*
X181262339Y-107435252D01*
X181453741Y-107626987D01*
X181703946Y-107730882D01*
X181974865Y-107731118D01*
X182225252Y-107627661D01*
X182375495Y-107477679D01*
X182432339Y-107615252D01*
X182623741Y-107806987D01*
X182873946Y-107910882D01*
X183144865Y-107911118D01*
X183395252Y-107807661D01*
X183494928Y-107708158D01*
X183503741Y-107716987D01*
X183753946Y-107820882D01*
X184024865Y-107821118D01*
X184275252Y-107717661D01*
X184415041Y-107578115D01*
X184513741Y-107676987D01*
X184763946Y-107780882D01*
X185034865Y-107781118D01*
X185285252Y-107677661D01*
X185298070Y-107664865D01*
X208068882Y-107664865D01*
X208172339Y-107915252D01*
X208363741Y-108106987D01*
X208613946Y-108210882D01*
X208884865Y-108211118D01*
X209135252Y-108107661D01*
X209326987Y-107916259D01*
X209430882Y-107666054D01*
X209431118Y-107395135D01*
X209327661Y-107144748D01*
X209136259Y-106953013D01*
X208886054Y-106849118D01*
X208615135Y-106848882D01*
X208364748Y-106952339D01*
X208173013Y-107143741D01*
X208069118Y-107393946D01*
X208068882Y-107664865D01*
X185298070Y-107664865D01*
X185476987Y-107486259D01*
X185580882Y-107236054D01*
X185581118Y-106965135D01*
X185477661Y-106714748D01*
X185286259Y-106523013D01*
X185036054Y-106419118D01*
X184765135Y-106418882D01*
X184514748Y-106522339D01*
X184374959Y-106661885D01*
X184276259Y-106563013D01*
X184026054Y-106459118D01*
X183755135Y-106458882D01*
X183504748Y-106562339D01*
X183405072Y-106661842D01*
X183396259Y-106653013D01*
X183146054Y-106549118D01*
X182875135Y-106548882D01*
X182624748Y-106652339D01*
X182474505Y-106802321D01*
X182417661Y-106664748D01*
X182226259Y-106473013D01*
X181976054Y-106369118D01*
X181705135Y-106368882D01*
X181454748Y-106472339D01*
X181263013Y-106663741D01*
X181159118Y-106913946D01*
X181158882Y-107184865D01*
X137456000Y-107184865D01*
X137456000Y-105174473D01*
X213468847Y-105174473D01*
X213602689Y-105498395D01*
X213850302Y-105746440D01*
X214173989Y-105880847D01*
X214524473Y-105881153D01*
X214848395Y-105747311D01*
X215096440Y-105499698D01*
X215230847Y-105176011D01*
X215230881Y-105136400D01*
X226095536Y-105136400D01*
X226095536Y-106863600D01*
X226122103Y-107004790D01*
X226205546Y-107134465D01*
X226332866Y-107221459D01*
X226484000Y-107252064D01*
X228516000Y-107252064D01*
X228657190Y-107225497D01*
X228786865Y-107142054D01*
X228873859Y-107014734D01*
X228904464Y-106863600D01*
X228904464Y-105136400D01*
X228877897Y-104995210D01*
X228794454Y-104865535D01*
X228667134Y-104778541D01*
X228516000Y-104747936D01*
X226484000Y-104747936D01*
X226342810Y-104774503D01*
X226213135Y-104857946D01*
X226126141Y-104985266D01*
X226095536Y-105136400D01*
X215230881Y-105136400D01*
X215231153Y-104825527D01*
X215097311Y-104501605D01*
X214849698Y-104253560D01*
X214526011Y-104119153D01*
X214175527Y-104118847D01*
X213851605Y-104252689D01*
X213603560Y-104500302D01*
X213469153Y-104823989D01*
X213468847Y-105174473D01*
X137456000Y-105174473D01*
X137456000Y-103956000D01*
X167000000Y-103956000D01*
X167174504Y-103921289D01*
X167322441Y-103822441D01*
X167421289Y-103674504D01*
X167456000Y-103500000D01*
X167456000Y-101134865D01*
X191443882Y-101134865D01*
X191547339Y-101385252D01*
X191738741Y-101576987D01*
X191988946Y-101680882D01*
X192259865Y-101681118D01*
X192500283Y-101581780D01*
X192738946Y-101680882D01*
X193009865Y-101681118D01*
X193146008Y-101624865D01*
X194608882Y-101624865D01*
X194712339Y-101875252D01*
X194903741Y-102066987D01*
X195006988Y-102109859D01*
X194953013Y-102163741D01*
X194849118Y-102413946D01*
X194848882Y-102684865D01*
X194952339Y-102935252D01*
X195143741Y-103126987D01*
X195393946Y-103230882D01*
X195664865Y-103231118D01*
X195915252Y-103127661D01*
X196106987Y-102936259D01*
X196210882Y-102686054D01*
X196211118Y-102415135D01*
X196107661Y-102164748D01*
X195916259Y-101973013D01*
X195813012Y-101930141D01*
X195866987Y-101876259D01*
X195904937Y-101784865D01*
X200788882Y-101784865D01*
X200892339Y-102035252D01*
X201083741Y-102226987D01*
X201333946Y-102330882D01*
X201604865Y-102331118D01*
X201855252Y-102227661D01*
X201975049Y-102108072D01*
X202103741Y-102236987D01*
X202353946Y-102340882D01*
X202624865Y-102341118D01*
X202875252Y-102237661D01*
X203066987Y-102046259D01*
X203170882Y-101796054D01*
X203171118Y-101525135D01*
X203067661Y-101274748D01*
X203048852Y-101255906D01*
X207286205Y-101255906D01*
X207389662Y-101506293D01*
X207581064Y-101698028D01*
X207831269Y-101801923D01*
X208102188Y-101802159D01*
X208352575Y-101698702D01*
X208544310Y-101507300D01*
X208644069Y-101267056D01*
X208882905Y-101168372D01*
X209074640Y-100976970D01*
X209178535Y-100726765D01*
X209178771Y-100455846D01*
X209075314Y-100205459D01*
X208883912Y-100013724D01*
X208633707Y-99909829D01*
X208362788Y-99909593D01*
X208112401Y-100013050D01*
X207920666Y-100204452D01*
X207820907Y-100444696D01*
X207582071Y-100543380D01*
X207390336Y-100734782D01*
X207286441Y-100984987D01*
X207286205Y-101255906D01*
X203048852Y-101255906D01*
X202876259Y-101083013D01*
X202626054Y-100979118D01*
X202355135Y-100978882D01*
X202104748Y-101082339D01*
X201984951Y-101201928D01*
X201856259Y-101073013D01*
X201606054Y-100969118D01*
X201335135Y-100968882D01*
X201084748Y-101072339D01*
X200893013Y-101263741D01*
X200789118Y-101513946D01*
X200788882Y-101784865D01*
X195904937Y-101784865D01*
X195970882Y-101626054D01*
X195971118Y-101355135D01*
X195867661Y-101104748D01*
X195676259Y-100913013D01*
X195426054Y-100809118D01*
X195155135Y-100808882D01*
X194904748Y-100912339D01*
X194713013Y-101103741D01*
X194609118Y-101353946D01*
X194608882Y-101624865D01*
X193146008Y-101624865D01*
X193260252Y-101577661D01*
X193451987Y-101386259D01*
X193555882Y-101136054D01*
X193556118Y-100865135D01*
X193452661Y-100614748D01*
X193261259Y-100423013D01*
X193011054Y-100319118D01*
X192740135Y-100318882D01*
X192499717Y-100418220D01*
X192261054Y-100319118D01*
X191990135Y-100318882D01*
X191739748Y-100422339D01*
X191548013Y-100613741D01*
X191444118Y-100863946D01*
X191443882Y-101134865D01*
X167456000Y-101134865D01*
X167456000Y-98969700D01*
X214953717Y-98969700D01*
X215057174Y-99220087D01*
X215248576Y-99411822D01*
X215488820Y-99511581D01*
X215587504Y-99750417D01*
X215778906Y-99942152D01*
X216029111Y-100046047D01*
X216300030Y-100046283D01*
X216550417Y-99942826D01*
X216742152Y-99751424D01*
X216846047Y-99501219D01*
X216846283Y-99230300D01*
X216742826Y-98979913D01*
X216551424Y-98788178D01*
X216311180Y-98688419D01*
X216212496Y-98449583D01*
X216021094Y-98257848D01*
X215770889Y-98153953D01*
X215499970Y-98153717D01*
X215249583Y-98257174D01*
X215057848Y-98448576D01*
X214953953Y-98698781D01*
X214953717Y-98969700D01*
X167456000Y-98969700D01*
X167456000Y-95454669D01*
X168943864Y-95454669D01*
X169062514Y-95741823D01*
X169282021Y-95961714D01*
X169568968Y-96080864D01*
X169879669Y-96081136D01*
X170166823Y-95962486D01*
X170199865Y-95929502D01*
X170232021Y-95961714D01*
X170518968Y-96080864D01*
X170829669Y-96081136D01*
X171116823Y-95962486D01*
X171320725Y-95758940D01*
X171338741Y-95776987D01*
X171588946Y-95880882D01*
X171859865Y-95881118D01*
X172100283Y-95781780D01*
X172338946Y-95880882D01*
X172609865Y-95881118D01*
X172860252Y-95777661D01*
X173051987Y-95586259D01*
X173143943Y-95364806D01*
X173143882Y-95434865D01*
X173247339Y-95685252D01*
X173438741Y-95876987D01*
X173688946Y-95980882D01*
X173959865Y-95981118D01*
X174200283Y-95881780D01*
X174438946Y-95980882D01*
X174629094Y-95981048D01*
X174628882Y-96224865D01*
X174732339Y-96475252D01*
X174923741Y-96666987D01*
X175173946Y-96770882D01*
X175444865Y-96771118D01*
X175695252Y-96667661D01*
X175863174Y-96500030D01*
X190753717Y-96500030D01*
X190857174Y-96750417D01*
X191048576Y-96942152D01*
X191298781Y-97046047D01*
X191569700Y-97046283D01*
X191820087Y-96942826D01*
X191932567Y-96830541D01*
X200425852Y-96830541D01*
X200529309Y-97080928D01*
X200720711Y-97272663D01*
X200970916Y-97376558D01*
X201241835Y-97376794D01*
X201492222Y-97273337D01*
X201683957Y-97081935D01*
X201689037Y-97069700D01*
X207153717Y-97069700D01*
X207257174Y-97320087D01*
X207448576Y-97511822D01*
X207688820Y-97611581D01*
X207787504Y-97850417D01*
X207978906Y-98042152D01*
X208229111Y-98146047D01*
X208500030Y-98146283D01*
X208750417Y-98042826D01*
X208942152Y-97851424D01*
X209046047Y-97601219D01*
X209046283Y-97330300D01*
X208942826Y-97079913D01*
X208751424Y-96888178D01*
X208511180Y-96788419D01*
X208462127Y-96669700D01*
X214253717Y-96669700D01*
X214357174Y-96920087D01*
X214548576Y-97111822D01*
X214788820Y-97211581D01*
X214887504Y-97450417D01*
X215078906Y-97642152D01*
X215329111Y-97746047D01*
X215600030Y-97746283D01*
X215850417Y-97642826D01*
X216042152Y-97451424D01*
X216146047Y-97201219D01*
X216146283Y-96930300D01*
X216042826Y-96679913D01*
X215851424Y-96488178D01*
X215611180Y-96388419D01*
X215512496Y-96149583D01*
X215321094Y-95957848D01*
X215070889Y-95853953D01*
X214799970Y-95853717D01*
X214549583Y-95957174D01*
X214357848Y-96148576D01*
X214253953Y-96398781D01*
X214253717Y-96669700D01*
X208462127Y-96669700D01*
X208412496Y-96549583D01*
X208221094Y-96357848D01*
X207970889Y-96253953D01*
X207699970Y-96253717D01*
X207449583Y-96357174D01*
X207257848Y-96548576D01*
X207153953Y-96798781D01*
X207153717Y-97069700D01*
X201689037Y-97069700D01*
X201783716Y-96841691D01*
X202022552Y-96743007D01*
X202214287Y-96551605D01*
X202318182Y-96301400D01*
X202318418Y-96030481D01*
X202214961Y-95780094D01*
X202030054Y-95594865D01*
X217413882Y-95594865D01*
X217517339Y-95845252D01*
X217708741Y-96036987D01*
X217958946Y-96140882D01*
X218229865Y-96141118D01*
X218470283Y-96041780D01*
X218708946Y-96140882D01*
X218979865Y-96141118D01*
X219230252Y-96037661D01*
X219386050Y-95882133D01*
X219387339Y-95885252D01*
X219578741Y-96076987D01*
X219828946Y-96180882D01*
X220099865Y-96181118D01*
X220340283Y-96081780D01*
X220578946Y-96180882D01*
X220849865Y-96181118D01*
X221100252Y-96077661D01*
X221291987Y-95886259D01*
X221350917Y-95744341D01*
X221438576Y-95832152D01*
X221688781Y-95936047D01*
X221959700Y-95936283D01*
X222210087Y-95832826D01*
X222401822Y-95641424D01*
X222501581Y-95401180D01*
X222740417Y-95302496D01*
X222932152Y-95111094D01*
X222943043Y-95084865D01*
X223043882Y-95084865D01*
X223147339Y-95335252D01*
X223338741Y-95526987D01*
X223588946Y-95630882D01*
X223859865Y-95631118D01*
X224100283Y-95531780D01*
X224338946Y-95630882D01*
X224609865Y-95631118D01*
X224860252Y-95527661D01*
X225051987Y-95336259D01*
X225119725Y-95173129D01*
X225218576Y-95272152D01*
X225468781Y-95376047D01*
X225739700Y-95376283D01*
X225990087Y-95272826D01*
X226181822Y-95081424D01*
X226281581Y-94841180D01*
X226520417Y-94742496D01*
X226712152Y-94551094D01*
X226816047Y-94300889D01*
X226816283Y-94029970D01*
X226712826Y-93779583D01*
X226521424Y-93587848D01*
X226271219Y-93483953D01*
X226000300Y-93483717D01*
X225749913Y-93587174D01*
X225558178Y-93778576D01*
X225458419Y-94018820D01*
X225219583Y-94117504D01*
X225027848Y-94308906D01*
X224960110Y-94472036D01*
X224861259Y-94373013D01*
X224611054Y-94269118D01*
X224340135Y-94268882D01*
X224099717Y-94368220D01*
X223861054Y-94269118D01*
X223590135Y-94268882D01*
X223339748Y-94372339D01*
X223148013Y-94563741D01*
X223044118Y-94813946D01*
X223043882Y-95084865D01*
X222943043Y-95084865D01*
X223036047Y-94860889D01*
X223036283Y-94589970D01*
X222932826Y-94339583D01*
X222741424Y-94147848D01*
X222491219Y-94043953D01*
X222220300Y-94043717D01*
X221969913Y-94147174D01*
X221778178Y-94338576D01*
X221678419Y-94578820D01*
X221439583Y-94677504D01*
X221247848Y-94868906D01*
X221188918Y-95010824D01*
X221101259Y-94923013D01*
X220851054Y-94819118D01*
X220580135Y-94818882D01*
X220339717Y-94918220D01*
X220101054Y-94819118D01*
X219830135Y-94818882D01*
X219579748Y-94922339D01*
X219423950Y-95077867D01*
X219422661Y-95074748D01*
X219231259Y-94883013D01*
X218981054Y-94779118D01*
X218710135Y-94778882D01*
X218469717Y-94878220D01*
X218231054Y-94779118D01*
X217960135Y-94778882D01*
X217709748Y-94882339D01*
X217518013Y-95073741D01*
X217414118Y-95323946D01*
X217413882Y-95594865D01*
X202030054Y-95594865D01*
X202023559Y-95588359D01*
X201773354Y-95484464D01*
X201502435Y-95484228D01*
X201252048Y-95587685D01*
X201060313Y-95779087D01*
X200960554Y-96019331D01*
X200721718Y-96118015D01*
X200529983Y-96309417D01*
X200426088Y-96559622D01*
X200425852Y-96830541D01*
X191932567Y-96830541D01*
X192011822Y-96751424D01*
X192111581Y-96511180D01*
X192350417Y-96412496D01*
X192542152Y-96221094D01*
X192646047Y-95970889D01*
X192646283Y-95699970D01*
X192542826Y-95449583D01*
X192351424Y-95257848D01*
X192101219Y-95153953D01*
X191830300Y-95153717D01*
X191579913Y-95257174D01*
X191388178Y-95448576D01*
X191288419Y-95688820D01*
X191049583Y-95787504D01*
X190857848Y-95978906D01*
X190753953Y-96229111D01*
X190753717Y-96500030D01*
X175863174Y-96500030D01*
X175886987Y-96476259D01*
X175990882Y-96226054D01*
X175991043Y-96041080D01*
X176034865Y-96041118D01*
X176285252Y-95937661D01*
X176476987Y-95746259D01*
X176520423Y-95641656D01*
X176688820Y-95711581D01*
X176787504Y-95950417D01*
X176978906Y-96142152D01*
X177229111Y-96246047D01*
X177500030Y-96246283D01*
X177750417Y-96142826D01*
X177942152Y-95951424D01*
X178046047Y-95701219D01*
X178046191Y-95534865D01*
X178143882Y-95534865D01*
X178247339Y-95785252D01*
X178438741Y-95976987D01*
X178688946Y-96080882D01*
X178959865Y-96081118D01*
X179200283Y-95981780D01*
X179438946Y-96080882D01*
X179709865Y-96081118D01*
X179960252Y-95977661D01*
X180151987Y-95786259D01*
X180255882Y-95536054D01*
X180256118Y-95265135D01*
X180152661Y-95014748D01*
X180038143Y-94900030D01*
X200453717Y-94900030D01*
X200557174Y-95150417D01*
X200748576Y-95342152D01*
X200998781Y-95446047D01*
X201269700Y-95446283D01*
X201520087Y-95342826D01*
X201711822Y-95151424D01*
X201811581Y-94911180D01*
X202050417Y-94812496D01*
X202242152Y-94621094D01*
X202346047Y-94370889D01*
X202346283Y-94099970D01*
X202242826Y-93849583D01*
X202051424Y-93657848D01*
X201801219Y-93553953D01*
X201530300Y-93553717D01*
X201279913Y-93657174D01*
X201088178Y-93848576D01*
X200988419Y-94088820D01*
X200749583Y-94187504D01*
X200557848Y-94378906D01*
X200453953Y-94629111D01*
X200453717Y-94900030D01*
X180038143Y-94900030D01*
X179961259Y-94823013D01*
X179711054Y-94719118D01*
X179440135Y-94718882D01*
X179199717Y-94818220D01*
X178961054Y-94719118D01*
X178690135Y-94718882D01*
X178439748Y-94822339D01*
X178248013Y-95013741D01*
X178144118Y-95263946D01*
X178143882Y-95534865D01*
X178046191Y-95534865D01*
X178046283Y-95430300D01*
X177942826Y-95179913D01*
X177751424Y-94988178D01*
X177511180Y-94888419D01*
X177412496Y-94649583D01*
X177221094Y-94457848D01*
X176970889Y-94353953D01*
X176699970Y-94353717D01*
X176449583Y-94457174D01*
X176257848Y-94648576D01*
X176214412Y-94753179D01*
X176036054Y-94679118D01*
X175765135Y-94678882D01*
X175514748Y-94782339D01*
X175323013Y-94973741D01*
X175249844Y-95149950D01*
X175152661Y-94914748D01*
X174961259Y-94723013D01*
X174711054Y-94619118D01*
X174440135Y-94618882D01*
X174199717Y-94718220D01*
X173961054Y-94619118D01*
X173690135Y-94618882D01*
X173439748Y-94722339D01*
X173248013Y-94913741D01*
X173156057Y-95135194D01*
X173156118Y-95065135D01*
X173052661Y-94814748D01*
X172861259Y-94623013D01*
X172611054Y-94519118D01*
X172340135Y-94518882D01*
X172099717Y-94618220D01*
X171861054Y-94519118D01*
X171590135Y-94518882D01*
X171339748Y-94622339D01*
X171220697Y-94741183D01*
X171117979Y-94638286D01*
X170831032Y-94519136D01*
X170520331Y-94518864D01*
X170233177Y-94637514D01*
X170200135Y-94670498D01*
X170167979Y-94638286D01*
X169881032Y-94519136D01*
X169570331Y-94518864D01*
X169283177Y-94637514D01*
X169063286Y-94857021D01*
X168944136Y-95143968D01*
X168943864Y-95454669D01*
X167456000Y-95454669D01*
X167456000Y-93224865D01*
X180258882Y-93224865D01*
X180362339Y-93475252D01*
X180553741Y-93666987D01*
X180803946Y-93770882D01*
X181074865Y-93771118D01*
X181325252Y-93667661D01*
X181516987Y-93476259D01*
X181620882Y-93226054D01*
X181621118Y-92955135D01*
X181517661Y-92704748D01*
X181326259Y-92513013D01*
X181076054Y-92409118D01*
X180805135Y-92408882D01*
X180554748Y-92512339D01*
X180363013Y-92703741D01*
X180259118Y-92953946D01*
X180258882Y-93224865D01*
X167456000Y-93224865D01*
X167456000Y-90893629D01*
X227727424Y-90893629D01*
X227846074Y-91180783D01*
X228065581Y-91400674D01*
X228352528Y-91519824D01*
X228663229Y-91520096D01*
X228950383Y-91401446D01*
X229170274Y-91181939D01*
X229289424Y-90894992D01*
X229289696Y-90584291D01*
X229171046Y-90297137D01*
X228951539Y-90077246D01*
X228664592Y-89958096D01*
X228353891Y-89957824D01*
X228066737Y-90076474D01*
X227846846Y-90295981D01*
X227727696Y-90582928D01*
X227727424Y-90893629D01*
X167456000Y-90893629D01*
X167456000Y-89904865D01*
X182758882Y-89904865D01*
X182862339Y-90155252D01*
X183053741Y-90346987D01*
X183303946Y-90450882D01*
X183574865Y-90451118D01*
X183825252Y-90347661D01*
X184016987Y-90156259D01*
X184028702Y-90128046D01*
X184052339Y-90185252D01*
X184243741Y-90376987D01*
X184493946Y-90480882D01*
X184764865Y-90481118D01*
X185015252Y-90377661D01*
X185206987Y-90186259D01*
X185310882Y-89936054D01*
X185310917Y-89894865D01*
X186478882Y-89894865D01*
X186582339Y-90145252D01*
X186773741Y-90336987D01*
X187023946Y-90440882D01*
X187294865Y-90441118D01*
X187545252Y-90337661D01*
X187736987Y-90146259D01*
X187840882Y-89896054D01*
X187840935Y-89834865D01*
X187948882Y-89834865D01*
X188052339Y-90085252D01*
X188243741Y-90276987D01*
X188493946Y-90380882D01*
X188764865Y-90381118D01*
X189015252Y-90277661D01*
X189206987Y-90086259D01*
X189282308Y-89904865D01*
X190288882Y-89904865D01*
X190392339Y-90155252D01*
X190583741Y-90346987D01*
X190833946Y-90450882D01*
X191104865Y-90451118D01*
X191355252Y-90347661D01*
X191546987Y-90156259D01*
X191625934Y-89966135D01*
X191712339Y-90175252D01*
X191903741Y-90366987D01*
X192153946Y-90470882D01*
X192424865Y-90471118D01*
X192675252Y-90367661D01*
X192866987Y-90176259D01*
X192970882Y-89926054D01*
X192970917Y-89884865D01*
X194198882Y-89884865D01*
X194302339Y-90135252D01*
X194493741Y-90326987D01*
X194743946Y-90430882D01*
X195014865Y-90431118D01*
X195265252Y-90327661D01*
X195456987Y-90136259D01*
X195521228Y-89981552D01*
X195572339Y-90105252D01*
X195763741Y-90296987D01*
X196013946Y-90400882D01*
X196284865Y-90401118D01*
X196535252Y-90297661D01*
X196726987Y-90106259D01*
X196798156Y-89934865D01*
X198028882Y-89934865D01*
X198132339Y-90185252D01*
X198323741Y-90376987D01*
X198573946Y-90480882D01*
X198844865Y-90481118D01*
X199095252Y-90377661D01*
X199286987Y-90186259D01*
X199359512Y-90011601D01*
X199402339Y-90115252D01*
X199593741Y-90306987D01*
X199843946Y-90410882D01*
X200114865Y-90411118D01*
X200365252Y-90307661D01*
X200556987Y-90116259D01*
X200644766Y-89904865D01*
X201628882Y-89904865D01*
X201732339Y-90155252D01*
X201923741Y-90346987D01*
X202173946Y-90450882D01*
X202444865Y-90451118D01*
X202695252Y-90347661D01*
X202886987Y-90156259D01*
X202990882Y-89906054D01*
X202990917Y-89864865D01*
X203218882Y-89864865D01*
X203322339Y-90115252D01*
X203513741Y-90306987D01*
X203763946Y-90410882D01*
X204034865Y-90411118D01*
X204285252Y-90307661D01*
X204476987Y-90116259D01*
X204577223Y-89874865D01*
X205568882Y-89874865D01*
X205672339Y-90125252D01*
X205863741Y-90316987D01*
X206113946Y-90420882D01*
X206384865Y-90421118D01*
X206635252Y-90317661D01*
X206826987Y-90126259D01*
X206889696Y-89975240D01*
X206972339Y-90175252D01*
X207163741Y-90366987D01*
X207413946Y-90470882D01*
X207684865Y-90471118D01*
X207935252Y-90367661D01*
X208126987Y-90176259D01*
X208230882Y-89926054D01*
X208230944Y-89854865D01*
X209368882Y-89854865D01*
X209472339Y-90105252D01*
X209663741Y-90296987D01*
X209913946Y-90400882D01*
X210184865Y-90401118D01*
X210435252Y-90297661D01*
X210626987Y-90106259D01*
X210730882Y-89856054D01*
X210730909Y-89824865D01*
X210798882Y-89824865D01*
X210902339Y-90075252D01*
X211093741Y-90266987D01*
X211343946Y-90370882D01*
X211614865Y-90371118D01*
X211865252Y-90267661D01*
X212056987Y-90076259D01*
X212144766Y-89864865D01*
X213308882Y-89864865D01*
X213412339Y-90115252D01*
X213603741Y-90306987D01*
X213853946Y-90410882D01*
X214124865Y-90411118D01*
X214375252Y-90307661D01*
X214566987Y-90116259D01*
X214568347Y-90112984D01*
X214602339Y-90195252D01*
X214793741Y-90386987D01*
X215043946Y-90490882D01*
X215314865Y-90491118D01*
X215565252Y-90387661D01*
X215756987Y-90196259D01*
X215860882Y-89946054D01*
X215860961Y-89854865D01*
X216938882Y-89854865D01*
X217042339Y-90105252D01*
X217233741Y-90296987D01*
X217483946Y-90400882D01*
X217754865Y-90401118D01*
X218005252Y-90297661D01*
X218196987Y-90106259D01*
X218247270Y-89985165D01*
X218342339Y-90215252D01*
X218533741Y-90406987D01*
X218783946Y-90510882D01*
X219054865Y-90511118D01*
X219305252Y-90407661D01*
X219496987Y-90216259D01*
X219600882Y-89966054D01*
X219601118Y-89695135D01*
X219497661Y-89444748D01*
X219306259Y-89253013D01*
X219277830Y-89241208D01*
X224833824Y-89241208D01*
X224988175Y-89614766D01*
X225273731Y-89900821D01*
X225647018Y-90055824D01*
X226051208Y-90056176D01*
X226424766Y-89901825D01*
X226710821Y-89616269D01*
X226865824Y-89242982D01*
X226866176Y-88838792D01*
X226711825Y-88465234D01*
X226426269Y-88179179D01*
X226052982Y-88024176D01*
X225648792Y-88023824D01*
X225275234Y-88178175D01*
X224989179Y-88463731D01*
X224834176Y-88837018D01*
X224833824Y-89241208D01*
X219277830Y-89241208D01*
X219056054Y-89149118D01*
X218785135Y-89148882D01*
X218534748Y-89252339D01*
X218343013Y-89443741D01*
X218292730Y-89564835D01*
X218197661Y-89334748D01*
X218006259Y-89143013D01*
X217756054Y-89039118D01*
X217485135Y-89038882D01*
X217234748Y-89142339D01*
X217043013Y-89333741D01*
X216939118Y-89583946D01*
X216938882Y-89854865D01*
X215860961Y-89854865D01*
X215861118Y-89675135D01*
X215757661Y-89424748D01*
X215566259Y-89233013D01*
X215316054Y-89129118D01*
X215045135Y-89128882D01*
X214794748Y-89232339D01*
X214603013Y-89423741D01*
X214601653Y-89427016D01*
X214567661Y-89344748D01*
X214376259Y-89153013D01*
X214126054Y-89049118D01*
X213855135Y-89048882D01*
X213604748Y-89152339D01*
X213413013Y-89343741D01*
X213309118Y-89593946D01*
X213308882Y-89864865D01*
X212144766Y-89864865D01*
X212160882Y-89826054D01*
X212161118Y-89555135D01*
X212057661Y-89304748D01*
X211866259Y-89113013D01*
X211616054Y-89009118D01*
X211345135Y-89008882D01*
X211094748Y-89112339D01*
X210903013Y-89303741D01*
X210799118Y-89553946D01*
X210798882Y-89824865D01*
X210730909Y-89824865D01*
X210731118Y-89585135D01*
X210627661Y-89334748D01*
X210436259Y-89143013D01*
X210186054Y-89039118D01*
X209915135Y-89038882D01*
X209664748Y-89142339D01*
X209473013Y-89333741D01*
X209369118Y-89583946D01*
X209368882Y-89854865D01*
X208230944Y-89854865D01*
X208231118Y-89655135D01*
X208127661Y-89404748D01*
X207936259Y-89213013D01*
X207686054Y-89109118D01*
X207415135Y-89108882D01*
X207164748Y-89212339D01*
X206973013Y-89403741D01*
X206910304Y-89554760D01*
X206827661Y-89354748D01*
X206636259Y-89163013D01*
X206386054Y-89059118D01*
X206115135Y-89058882D01*
X205864748Y-89162339D01*
X205673013Y-89353741D01*
X205569118Y-89603946D01*
X205568882Y-89874865D01*
X204577223Y-89874865D01*
X204580882Y-89866054D01*
X204581118Y-89595135D01*
X204477661Y-89344748D01*
X204286259Y-89153013D01*
X204036054Y-89049118D01*
X203765135Y-89048882D01*
X203514748Y-89152339D01*
X203323013Y-89343741D01*
X203219118Y-89593946D01*
X203218882Y-89864865D01*
X202990917Y-89864865D01*
X202991118Y-89635135D01*
X202887661Y-89384748D01*
X202696259Y-89193013D01*
X202446054Y-89089118D01*
X202175135Y-89088882D01*
X201924748Y-89192339D01*
X201733013Y-89383741D01*
X201629118Y-89633946D01*
X201628882Y-89904865D01*
X200644766Y-89904865D01*
X200660882Y-89866054D01*
X200661118Y-89595135D01*
X200557661Y-89344748D01*
X200366259Y-89153013D01*
X200116054Y-89049118D01*
X199845135Y-89048882D01*
X199594748Y-89152339D01*
X199403013Y-89343741D01*
X199330488Y-89518399D01*
X199287661Y-89414748D01*
X199096259Y-89223013D01*
X198846054Y-89119118D01*
X198575135Y-89118882D01*
X198324748Y-89222339D01*
X198133013Y-89413741D01*
X198029118Y-89663946D01*
X198028882Y-89934865D01*
X196798156Y-89934865D01*
X196830882Y-89856054D01*
X196831118Y-89585135D01*
X196727661Y-89334748D01*
X196536259Y-89143013D01*
X196286054Y-89039118D01*
X196015135Y-89038882D01*
X195764748Y-89142339D01*
X195573013Y-89333741D01*
X195508772Y-89488448D01*
X195457661Y-89364748D01*
X195266259Y-89173013D01*
X195016054Y-89069118D01*
X194745135Y-89068882D01*
X194494748Y-89172339D01*
X194303013Y-89363741D01*
X194199118Y-89613946D01*
X194198882Y-89884865D01*
X192970917Y-89884865D01*
X192971118Y-89655135D01*
X192867661Y-89404748D01*
X192676259Y-89213013D01*
X192426054Y-89109118D01*
X192155135Y-89108882D01*
X191904748Y-89212339D01*
X191713013Y-89403741D01*
X191634066Y-89593865D01*
X191547661Y-89384748D01*
X191356259Y-89193013D01*
X191106054Y-89089118D01*
X190835135Y-89088882D01*
X190584748Y-89192339D01*
X190393013Y-89383741D01*
X190289118Y-89633946D01*
X190288882Y-89904865D01*
X189282308Y-89904865D01*
X189310882Y-89836054D01*
X189311118Y-89565135D01*
X189207661Y-89314748D01*
X189016259Y-89123013D01*
X188766054Y-89019118D01*
X188495135Y-89018882D01*
X188244748Y-89122339D01*
X188053013Y-89313741D01*
X187949118Y-89563946D01*
X187948882Y-89834865D01*
X187840935Y-89834865D01*
X187841118Y-89625135D01*
X187737661Y-89374748D01*
X187546259Y-89183013D01*
X187296054Y-89079118D01*
X187025135Y-89078882D01*
X186774748Y-89182339D01*
X186583013Y-89373741D01*
X186479118Y-89623946D01*
X186478882Y-89894865D01*
X185310917Y-89894865D01*
X185311118Y-89665135D01*
X185207661Y-89414748D01*
X185016259Y-89223013D01*
X184766054Y-89119118D01*
X184495135Y-89118882D01*
X184244748Y-89222339D01*
X184053013Y-89413741D01*
X184041298Y-89441954D01*
X184017661Y-89384748D01*
X183826259Y-89193013D01*
X183576054Y-89089118D01*
X183305135Y-89088882D01*
X183054748Y-89192339D01*
X182863013Y-89383741D01*
X182759118Y-89633946D01*
X182758882Y-89904865D01*
X167456000Y-89904865D01*
X167456000Y-88684865D01*
X170378882Y-88684865D01*
X170482339Y-88935252D01*
X170673741Y-89126987D01*
X170923946Y-89230882D01*
X171194865Y-89231118D01*
X171445252Y-89127661D01*
X171636987Y-88936259D01*
X171740882Y-88686054D01*
X171741118Y-88415135D01*
X171637661Y-88164748D01*
X171446259Y-87973013D01*
X171196054Y-87869118D01*
X170925135Y-87868882D01*
X170674748Y-87972339D01*
X170483013Y-88163741D01*
X170379118Y-88413946D01*
X170378882Y-88684865D01*
X167456000Y-88684865D01*
X167456000Y-87434865D01*
X181418882Y-87434865D01*
X181522339Y-87685252D01*
X181713741Y-87876987D01*
X181963946Y-87980882D01*
X182234865Y-87981118D01*
X182485252Y-87877661D01*
X182676987Y-87686259D01*
X182750051Y-87510302D01*
X182822339Y-87685252D01*
X183013741Y-87876987D01*
X183263946Y-87980882D01*
X183534865Y-87981118D01*
X183785252Y-87877661D01*
X183976987Y-87686259D01*
X184039851Y-87534865D01*
X185218882Y-87534865D01*
X185322339Y-87785252D01*
X185513741Y-87976987D01*
X185763946Y-88080882D01*
X186034865Y-88081118D01*
X186285252Y-87977661D01*
X186476987Y-87786259D01*
X186550051Y-87610302D01*
X186622339Y-87785252D01*
X186813741Y-87976987D01*
X187063946Y-88080882D01*
X187334865Y-88081118D01*
X187585252Y-87977661D01*
X187776987Y-87786259D01*
X187880882Y-87536054D01*
X187880970Y-87434865D01*
X189118882Y-87434865D01*
X189222339Y-87685252D01*
X189413741Y-87876987D01*
X189663946Y-87980882D01*
X189934865Y-87981118D01*
X190185252Y-87877661D01*
X190376987Y-87686259D01*
X190399928Y-87631012D01*
X190422339Y-87685252D01*
X190613741Y-87876987D01*
X190863946Y-87980882D01*
X191134865Y-87981118D01*
X191385252Y-87877661D01*
X191576987Y-87686259D01*
X191680882Y-87436054D01*
X191680883Y-87434865D01*
X192918882Y-87434865D01*
X193022339Y-87685252D01*
X193213741Y-87876987D01*
X193463946Y-87980882D01*
X193734865Y-87981118D01*
X193985252Y-87877661D01*
X194176987Y-87686259D01*
X194199928Y-87631012D01*
X194222339Y-87685252D01*
X194413741Y-87876987D01*
X194663946Y-87980882D01*
X194934865Y-87981118D01*
X195185252Y-87877661D01*
X195376987Y-87686259D01*
X195480882Y-87436054D01*
X195480883Y-87434865D01*
X196718882Y-87434865D01*
X196822339Y-87685252D01*
X197013741Y-87876987D01*
X197263946Y-87980882D01*
X197534865Y-87981118D01*
X197785252Y-87877661D01*
X197976987Y-87686259D01*
X198029341Y-87560178D01*
X198122339Y-87785252D01*
X198313741Y-87976987D01*
X198563946Y-88080882D01*
X198834865Y-88081118D01*
X199085252Y-87977661D01*
X199276987Y-87786259D01*
X199380882Y-87536054D01*
X199380883Y-87534865D01*
X200418882Y-87534865D01*
X200522339Y-87785252D01*
X200713741Y-87976987D01*
X200963946Y-88080882D01*
X201234865Y-88081118D01*
X201485252Y-87977661D01*
X201676987Y-87786259D01*
X201780882Y-87536054D01*
X201780970Y-87434865D01*
X201818882Y-87434865D01*
X201922339Y-87685252D01*
X202113741Y-87876987D01*
X202363946Y-87980882D01*
X202634865Y-87981118D01*
X202885252Y-87877661D01*
X203076987Y-87686259D01*
X203180882Y-87436054D01*
X203180883Y-87434865D01*
X204318882Y-87434865D01*
X204422339Y-87685252D01*
X204613741Y-87876987D01*
X204863946Y-87980882D01*
X205134865Y-87981118D01*
X205385252Y-87877661D01*
X205576987Y-87686259D01*
X205629341Y-87560178D01*
X205722339Y-87785252D01*
X205913741Y-87976987D01*
X206163946Y-88080882D01*
X206434865Y-88081118D01*
X206685252Y-87977661D01*
X206876987Y-87786259D01*
X206980882Y-87536054D01*
X206980970Y-87434865D01*
X208118882Y-87434865D01*
X208222339Y-87685252D01*
X208413741Y-87876987D01*
X208663946Y-87980882D01*
X208934865Y-87981118D01*
X209185252Y-87877661D01*
X209376987Y-87686259D01*
X209429341Y-87560178D01*
X209522339Y-87785252D01*
X209713741Y-87976987D01*
X209963946Y-88080882D01*
X210234865Y-88081118D01*
X210485252Y-87977661D01*
X210676987Y-87786259D01*
X210780882Y-87536054D01*
X210781118Y-87265135D01*
X210756216Y-87204865D01*
X211958882Y-87204865D01*
X212062339Y-87455252D01*
X212253741Y-87646987D01*
X212503946Y-87750882D01*
X212774865Y-87751118D01*
X213025252Y-87647661D01*
X213199660Y-87473556D01*
X213262339Y-87625252D01*
X213453741Y-87816987D01*
X213703946Y-87920882D01*
X213974865Y-87921118D01*
X214225252Y-87817661D01*
X214416987Y-87626259D01*
X214500613Y-87424865D01*
X215678882Y-87424865D01*
X215782339Y-87675252D01*
X215973741Y-87866987D01*
X216223946Y-87970882D01*
X216494865Y-87971118D01*
X216745252Y-87867661D01*
X216936987Y-87676259D01*
X217039256Y-87429971D01*
X217132339Y-87655252D01*
X217323741Y-87846987D01*
X217573946Y-87950882D01*
X217844865Y-87951118D01*
X218095252Y-87847661D01*
X218286987Y-87656259D01*
X218390882Y-87406054D01*
X218391118Y-87135135D01*
X218287661Y-86884748D01*
X218096259Y-86693013D01*
X217846054Y-86589118D01*
X217575135Y-86588882D01*
X217324748Y-86692339D01*
X217133013Y-86883741D01*
X217030744Y-87130029D01*
X216937661Y-86904748D01*
X216746259Y-86713013D01*
X216496054Y-86609118D01*
X216225135Y-86608882D01*
X215974748Y-86712339D01*
X215783013Y-86903741D01*
X215679118Y-87153946D01*
X215678882Y-87424865D01*
X214500613Y-87424865D01*
X214520882Y-87376054D01*
X214521118Y-87105135D01*
X214417661Y-86854748D01*
X214226259Y-86663013D01*
X213976054Y-86559118D01*
X213705135Y-86558882D01*
X213454748Y-86662339D01*
X213280340Y-86836444D01*
X213217661Y-86684748D01*
X213026259Y-86493013D01*
X212776054Y-86389118D01*
X212505135Y-86388882D01*
X212254748Y-86492339D01*
X212063013Y-86683741D01*
X211959118Y-86933946D01*
X211958882Y-87204865D01*
X210756216Y-87204865D01*
X210677661Y-87014748D01*
X210486259Y-86823013D01*
X210236054Y-86719118D01*
X209965135Y-86718882D01*
X209714748Y-86822339D01*
X209523013Y-87013741D01*
X209470659Y-87139822D01*
X209377661Y-86914748D01*
X209186259Y-86723013D01*
X208936054Y-86619118D01*
X208665135Y-86618882D01*
X208414748Y-86722339D01*
X208223013Y-86913741D01*
X208119118Y-87163946D01*
X208118882Y-87434865D01*
X206980970Y-87434865D01*
X206981118Y-87265135D01*
X206877661Y-87014748D01*
X206686259Y-86823013D01*
X206436054Y-86719118D01*
X206165135Y-86718882D01*
X205914748Y-86822339D01*
X205723013Y-87013741D01*
X205670659Y-87139822D01*
X205577661Y-86914748D01*
X205386259Y-86723013D01*
X205136054Y-86619118D01*
X204865135Y-86618882D01*
X204614748Y-86722339D01*
X204423013Y-86913741D01*
X204319118Y-87163946D01*
X204318882Y-87434865D01*
X203180883Y-87434865D01*
X203181118Y-87165135D01*
X203077661Y-86914748D01*
X202886259Y-86723013D01*
X202636054Y-86619118D01*
X202365135Y-86618882D01*
X202114748Y-86722339D01*
X201923013Y-86913741D01*
X201819118Y-87163946D01*
X201818882Y-87434865D01*
X201780970Y-87434865D01*
X201781118Y-87265135D01*
X201677661Y-87014748D01*
X201486259Y-86823013D01*
X201236054Y-86719118D01*
X200965135Y-86718882D01*
X200714748Y-86822339D01*
X200523013Y-87013741D01*
X200419118Y-87263946D01*
X200418882Y-87534865D01*
X199380883Y-87534865D01*
X199381118Y-87265135D01*
X199277661Y-87014748D01*
X199086259Y-86823013D01*
X198836054Y-86719118D01*
X198565135Y-86718882D01*
X198314748Y-86822339D01*
X198123013Y-87013741D01*
X198070659Y-87139822D01*
X197977661Y-86914748D01*
X197786259Y-86723013D01*
X197536054Y-86619118D01*
X197265135Y-86618882D01*
X197014748Y-86722339D01*
X196823013Y-86913741D01*
X196719118Y-87163946D01*
X196718882Y-87434865D01*
X195480883Y-87434865D01*
X195481118Y-87165135D01*
X195377661Y-86914748D01*
X195186259Y-86723013D01*
X194936054Y-86619118D01*
X194665135Y-86618882D01*
X194414748Y-86722339D01*
X194223013Y-86913741D01*
X194200072Y-86968988D01*
X194177661Y-86914748D01*
X193986259Y-86723013D01*
X193736054Y-86619118D01*
X193465135Y-86618882D01*
X193214748Y-86722339D01*
X193023013Y-86913741D01*
X192919118Y-87163946D01*
X192918882Y-87434865D01*
X191680883Y-87434865D01*
X191681118Y-87165135D01*
X191577661Y-86914748D01*
X191386259Y-86723013D01*
X191136054Y-86619118D01*
X190865135Y-86618882D01*
X190614748Y-86722339D01*
X190423013Y-86913741D01*
X190400072Y-86968988D01*
X190377661Y-86914748D01*
X190186259Y-86723013D01*
X189936054Y-86619118D01*
X189665135Y-86618882D01*
X189414748Y-86722339D01*
X189223013Y-86913741D01*
X189119118Y-87163946D01*
X189118882Y-87434865D01*
X187880970Y-87434865D01*
X187881118Y-87265135D01*
X187777661Y-87014748D01*
X187586259Y-86823013D01*
X187336054Y-86719118D01*
X187065135Y-86718882D01*
X186814748Y-86822339D01*
X186623013Y-87013741D01*
X186549949Y-87189698D01*
X186477661Y-87014748D01*
X186286259Y-86823013D01*
X186036054Y-86719118D01*
X185765135Y-86718882D01*
X185514748Y-86822339D01*
X185323013Y-87013741D01*
X185219118Y-87263946D01*
X185218882Y-87534865D01*
X184039851Y-87534865D01*
X184080882Y-87436054D01*
X184081118Y-87165135D01*
X183977661Y-86914748D01*
X183786259Y-86723013D01*
X183536054Y-86619118D01*
X183265135Y-86618882D01*
X183014748Y-86722339D01*
X182823013Y-86913741D01*
X182749949Y-87089698D01*
X182677661Y-86914748D01*
X182486259Y-86723013D01*
X182236054Y-86619118D01*
X181965135Y-86618882D01*
X181714748Y-86722339D01*
X181523013Y-86913741D01*
X181419118Y-87163946D01*
X181418882Y-87434865D01*
X167456000Y-87434865D01*
X167456000Y-86191208D01*
X170453824Y-86191208D01*
X170608175Y-86564766D01*
X170893731Y-86850821D01*
X171267018Y-87005824D01*
X171671208Y-87006176D01*
X172044766Y-86851825D01*
X172330821Y-86566269D01*
X172485824Y-86192982D01*
X172485892Y-86114865D01*
X180308882Y-86114865D01*
X180412339Y-86365252D01*
X180603741Y-86556987D01*
X180853946Y-86660882D01*
X181124865Y-86661118D01*
X181375252Y-86557661D01*
X181566987Y-86366259D01*
X181670882Y-86116054D01*
X181671118Y-85845135D01*
X181567661Y-85594748D01*
X181376259Y-85403013D01*
X181126054Y-85299118D01*
X180855135Y-85298882D01*
X180604748Y-85402339D01*
X180413013Y-85593741D01*
X180309118Y-85843946D01*
X180308882Y-86114865D01*
X172485892Y-86114865D01*
X172486176Y-85788792D01*
X172331825Y-85415234D01*
X172046269Y-85129179D01*
X171672982Y-84974176D01*
X171268792Y-84973824D01*
X170895234Y-85128175D01*
X170609179Y-85413731D01*
X170454176Y-85787018D01*
X170453824Y-86191208D01*
X167456000Y-86191208D01*
X167456000Y-84726509D01*
X225682724Y-84726509D01*
X225801374Y-85013663D01*
X226020881Y-85233554D01*
X226307828Y-85352704D01*
X226618529Y-85352976D01*
X226905683Y-85234326D01*
X227125574Y-85014819D01*
X227244724Y-84727872D01*
X227244996Y-84417171D01*
X227126346Y-84130017D01*
X226906839Y-83910126D01*
X226619892Y-83790976D01*
X226309191Y-83790704D01*
X226022037Y-83909354D01*
X225802146Y-84128861D01*
X225682996Y-84415808D01*
X225682724Y-84726509D01*
X167456000Y-84726509D01*
X167456000Y-83634865D01*
X182718882Y-83634865D01*
X182822339Y-83885252D01*
X183013741Y-84076987D01*
X183263946Y-84180882D01*
X183534865Y-84181118D01*
X183785252Y-84077661D01*
X183909339Y-83953789D01*
X183922339Y-83985252D01*
X184113741Y-84176987D01*
X184363946Y-84280882D01*
X184634865Y-84281118D01*
X184885252Y-84177661D01*
X185076987Y-83986259D01*
X185180882Y-83736054D01*
X185180970Y-83634865D01*
X186618882Y-83634865D01*
X186722339Y-83885252D01*
X186913741Y-84076987D01*
X187163946Y-84180882D01*
X187434865Y-84181118D01*
X187685252Y-84077661D01*
X187876987Y-83886259D01*
X187899928Y-83831012D01*
X187922339Y-83885252D01*
X188113741Y-84076987D01*
X188363946Y-84180882D01*
X188634865Y-84181118D01*
X188885252Y-84077661D01*
X189076987Y-83886259D01*
X189180882Y-83636054D01*
X189181118Y-83365135D01*
X189077661Y-83114748D01*
X188886259Y-82923013D01*
X188636054Y-82819118D01*
X188365135Y-82818882D01*
X188114748Y-82922339D01*
X187923013Y-83113741D01*
X187900072Y-83168988D01*
X187877661Y-83114748D01*
X187686259Y-82923013D01*
X187436054Y-82819118D01*
X187165135Y-82818882D01*
X186914748Y-82922339D01*
X186723013Y-83113741D01*
X186619118Y-83363946D01*
X186618882Y-83634865D01*
X185180970Y-83634865D01*
X185181118Y-83465135D01*
X185077661Y-83214748D01*
X184886259Y-83023013D01*
X184636054Y-82919118D01*
X184365135Y-82918882D01*
X184114748Y-83022339D01*
X183990661Y-83146211D01*
X183977661Y-83114748D01*
X183786259Y-82923013D01*
X183536054Y-82819118D01*
X183265135Y-82818882D01*
X183014748Y-82922339D01*
X182823013Y-83113741D01*
X182719118Y-83363946D01*
X182718882Y-83634865D01*
X167456000Y-83634865D01*
X167456000Y-82334865D01*
X184118882Y-82334865D01*
X184222339Y-82585252D01*
X184413741Y-82776987D01*
X184663946Y-82880882D01*
X184934865Y-82881118D01*
X185185252Y-82777661D01*
X185376987Y-82586259D01*
X185399928Y-82531012D01*
X185422339Y-82585252D01*
X185613741Y-82776987D01*
X185863946Y-82880882D01*
X186134865Y-82881118D01*
X186385252Y-82777661D01*
X186576987Y-82586259D01*
X186680882Y-82336054D01*
X186680883Y-82334865D01*
X189218882Y-82334865D01*
X189322339Y-82585252D01*
X189513741Y-82776987D01*
X189763946Y-82880882D01*
X190034865Y-82881118D01*
X190285252Y-82777661D01*
X190476987Y-82586259D01*
X190499928Y-82531012D01*
X190522339Y-82585252D01*
X190713741Y-82776987D01*
X190839822Y-82829341D01*
X190614748Y-82922339D01*
X190423013Y-83113741D01*
X190319118Y-83363946D01*
X190318882Y-83634865D01*
X190422339Y-83885252D01*
X190613741Y-84076987D01*
X190863946Y-84180882D01*
X191134865Y-84181118D01*
X191385252Y-84077661D01*
X191576987Y-83886259D01*
X191599928Y-83831012D01*
X191622339Y-83885252D01*
X191813741Y-84076987D01*
X192063946Y-84180882D01*
X192334865Y-84181118D01*
X192585252Y-84077661D01*
X192776987Y-83886259D01*
X192880882Y-83636054D01*
X192880883Y-83634865D01*
X192918882Y-83634865D01*
X193022339Y-83885252D01*
X193213741Y-84076987D01*
X193463946Y-84180882D01*
X193734865Y-84181118D01*
X193985252Y-84077661D01*
X194176987Y-83886259D01*
X194250051Y-83710302D01*
X194322339Y-83885252D01*
X194513741Y-84076987D01*
X194763946Y-84180882D01*
X195034865Y-84181118D01*
X195285252Y-84077661D01*
X195476987Y-83886259D01*
X195580882Y-83636054D01*
X195581118Y-83365135D01*
X195477661Y-83114748D01*
X195286259Y-82923013D01*
X195036054Y-82819118D01*
X194765135Y-82818882D01*
X194514748Y-82922339D01*
X194323013Y-83113741D01*
X194249949Y-83289698D01*
X194177661Y-83114748D01*
X193986259Y-82923013D01*
X193736054Y-82819118D01*
X193465135Y-82818882D01*
X193214748Y-82922339D01*
X193023013Y-83113741D01*
X192919118Y-83363946D01*
X192918882Y-83634865D01*
X192880883Y-83634865D01*
X192881118Y-83365135D01*
X192777661Y-83114748D01*
X192586259Y-82923013D01*
X192336054Y-82819118D01*
X192065135Y-82818882D01*
X191814748Y-82922339D01*
X191623013Y-83113741D01*
X191600072Y-83168988D01*
X191577661Y-83114748D01*
X191386259Y-82923013D01*
X191260178Y-82870659D01*
X191485252Y-82777661D01*
X191676987Y-82586259D01*
X191780882Y-82336054D01*
X191780883Y-82334865D01*
X195418882Y-82334865D01*
X195522339Y-82585252D01*
X195713741Y-82776987D01*
X195963946Y-82880882D01*
X196234865Y-82881118D01*
X196485252Y-82777661D01*
X196676987Y-82586259D01*
X196750051Y-82410302D01*
X196822339Y-82585252D01*
X197013741Y-82776987D01*
X197189698Y-82850051D01*
X197014748Y-82922339D01*
X196823013Y-83113741D01*
X196719118Y-83363946D01*
X196718882Y-83634865D01*
X196822339Y-83885252D01*
X197013741Y-84076987D01*
X197263946Y-84180882D01*
X197534865Y-84181118D01*
X197785252Y-84077661D01*
X197976987Y-83886259D01*
X198050051Y-83710302D01*
X198122339Y-83885252D01*
X198313741Y-84076987D01*
X198563946Y-84180882D01*
X198834865Y-84181118D01*
X199085252Y-84077661D01*
X199276987Y-83886259D01*
X199323242Y-83774865D01*
X209598882Y-83774865D01*
X209702339Y-84025252D01*
X209893741Y-84216987D01*
X210143946Y-84320882D01*
X210414865Y-84321118D01*
X210665252Y-84217661D01*
X210856987Y-84026259D01*
X210920433Y-83873465D01*
X211043741Y-83996987D01*
X211293946Y-84100882D01*
X211564865Y-84101118D01*
X211815252Y-83997661D01*
X212006987Y-83806259D01*
X212110882Y-83556054D01*
X212111118Y-83285135D01*
X212007661Y-83034748D01*
X211816259Y-82843013D01*
X211566054Y-82739118D01*
X211295135Y-82738882D01*
X211044748Y-82842339D01*
X210853013Y-83033741D01*
X210789567Y-83186535D01*
X210666259Y-83063013D01*
X210416054Y-82959118D01*
X210145135Y-82958882D01*
X209894748Y-83062339D01*
X209703013Y-83253741D01*
X209599118Y-83503946D01*
X209598882Y-83774865D01*
X199323242Y-83774865D01*
X199380882Y-83636054D01*
X199381118Y-83365135D01*
X199277661Y-83114748D01*
X199086259Y-82923013D01*
X198836054Y-82819118D01*
X198565135Y-82818882D01*
X198314748Y-82922339D01*
X198123013Y-83113741D01*
X198049949Y-83289698D01*
X197977661Y-83114748D01*
X197786259Y-82923013D01*
X197610302Y-82849949D01*
X197785252Y-82777661D01*
X197976987Y-82586259D01*
X198080882Y-82336054D01*
X198080883Y-82334865D01*
X200518882Y-82334865D01*
X200622339Y-82585252D01*
X200813741Y-82776987D01*
X201063946Y-82880882D01*
X201334865Y-82881118D01*
X201585252Y-82777661D01*
X201776987Y-82586259D01*
X201850051Y-82410302D01*
X201922339Y-82585252D01*
X202113741Y-82776987D01*
X202363946Y-82880882D01*
X202634865Y-82881118D01*
X202885252Y-82777661D01*
X203076987Y-82586259D01*
X203180882Y-82336054D01*
X203180883Y-82334865D01*
X205618882Y-82334865D01*
X205722339Y-82585252D01*
X205913741Y-82776987D01*
X206163946Y-82880882D01*
X206434865Y-82881118D01*
X206685252Y-82777661D01*
X206876987Y-82586259D01*
X206950051Y-82410302D01*
X207022339Y-82585252D01*
X207213741Y-82776987D01*
X207463946Y-82880882D01*
X207734865Y-82881118D01*
X207985252Y-82777661D01*
X208176987Y-82586259D01*
X208280882Y-82336054D01*
X208281118Y-82065135D01*
X208177661Y-81814748D01*
X207986259Y-81623013D01*
X207736054Y-81519118D01*
X207465135Y-81518882D01*
X207214748Y-81622339D01*
X207023013Y-81813741D01*
X206949949Y-81989698D01*
X206877661Y-81814748D01*
X206686259Y-81623013D01*
X206436054Y-81519118D01*
X206165135Y-81518882D01*
X205914748Y-81622339D01*
X205723013Y-81813741D01*
X205619118Y-82063946D01*
X205618882Y-82334865D01*
X203180883Y-82334865D01*
X203181118Y-82065135D01*
X203077661Y-81814748D01*
X202886259Y-81623013D01*
X202636054Y-81519118D01*
X202365135Y-81518882D01*
X202114748Y-81622339D01*
X201923013Y-81813741D01*
X201849949Y-81989698D01*
X201777661Y-81814748D01*
X201586259Y-81623013D01*
X201336054Y-81519118D01*
X201065135Y-81518882D01*
X200814748Y-81622339D01*
X200623013Y-81813741D01*
X200519118Y-82063946D01*
X200518882Y-82334865D01*
X198080883Y-82334865D01*
X198081118Y-82065135D01*
X197977661Y-81814748D01*
X197786259Y-81623013D01*
X197536054Y-81519118D01*
X197265135Y-81518882D01*
X197014748Y-81622339D01*
X196823013Y-81813741D01*
X196749949Y-81989698D01*
X196677661Y-81814748D01*
X196486259Y-81623013D01*
X196236054Y-81519118D01*
X195965135Y-81518882D01*
X195714748Y-81622339D01*
X195523013Y-81813741D01*
X195419118Y-82063946D01*
X195418882Y-82334865D01*
X191780883Y-82334865D01*
X191781118Y-82065135D01*
X191677661Y-81814748D01*
X191486259Y-81623013D01*
X191236054Y-81519118D01*
X190965135Y-81518882D01*
X190714748Y-81622339D01*
X190523013Y-81813741D01*
X190500072Y-81868988D01*
X190477661Y-81814748D01*
X190286259Y-81623013D01*
X190036054Y-81519118D01*
X189765135Y-81518882D01*
X189514748Y-81622339D01*
X189323013Y-81813741D01*
X189219118Y-82063946D01*
X189218882Y-82334865D01*
X186680883Y-82334865D01*
X186681118Y-82065135D01*
X186577661Y-81814748D01*
X186386259Y-81623013D01*
X186136054Y-81519118D01*
X185865135Y-81518882D01*
X185614748Y-81622339D01*
X185423013Y-81813741D01*
X185400072Y-81868988D01*
X185377661Y-81814748D01*
X185186259Y-81623013D01*
X184936054Y-81519118D01*
X184665135Y-81518882D01*
X184414748Y-81622339D01*
X184223013Y-81813741D01*
X184119118Y-82063946D01*
X184118882Y-82334865D01*
X167456000Y-82334865D01*
X167456000Y-74956000D01*
X229544000Y-74956000D01*
X229544000Y-136000000D01*
X229544000Y-136000000D01*
G37*
X229544000Y-136000000D02*
X229578711Y-136174504D01*
X229677559Y-136322441D01*
X229825496Y-136421289D01*
X230000000Y-136456000D01*
X236544000Y-136456000D01*
X236544000Y-164044000D01*
X167456000Y-164044000D01*
X167456000Y-163234865D01*
X204428882Y-163234865D01*
X204532339Y-163485252D01*
X204723741Y-163676987D01*
X204973946Y-163780882D01*
X205244865Y-163781118D01*
X205495252Y-163677661D01*
X205686987Y-163486259D01*
X205790882Y-163236054D01*
X205791118Y-162965135D01*
X205687661Y-162714748D01*
X205496259Y-162523013D01*
X205246054Y-162419118D01*
X204975135Y-162418882D01*
X204724748Y-162522339D01*
X204533013Y-162713741D01*
X204429118Y-162963946D01*
X204428882Y-163234865D01*
X167456000Y-163234865D01*
X167456000Y-161464865D01*
X207548882Y-161464865D01*
X207652339Y-161715252D01*
X207843741Y-161906987D01*
X208093946Y-162010882D01*
X208364865Y-162011118D01*
X208615252Y-161907661D01*
X208806987Y-161716259D01*
X208910882Y-161466054D01*
X208911118Y-161195135D01*
X208807661Y-160944748D01*
X208616259Y-160753013D01*
X208500307Y-160704865D01*
X230108882Y-160704865D01*
X230212339Y-160955252D01*
X230403741Y-161146987D01*
X230653946Y-161250882D01*
X230924865Y-161251118D01*
X231175252Y-161147661D01*
X231366987Y-160956259D01*
X231470882Y-160706054D01*
X231471118Y-160435135D01*
X231367661Y-160184748D01*
X231176259Y-159993013D01*
X230926054Y-159889118D01*
X230655135Y-159888882D01*
X230404748Y-159992339D01*
X230213013Y-160183741D01*
X230109118Y-160433946D01*
X230108882Y-160704865D01*
X208500307Y-160704865D01*
X208366054Y-160649118D01*
X208095135Y-160648882D01*
X207844748Y-160752339D01*
X207653013Y-160943741D01*
X207549118Y-161193946D01*
X207548882Y-161464865D01*
X167456000Y-161464865D01*
X167456000Y-159594865D01*
X188498882Y-159594865D01*
X188602339Y-159845252D01*
X188793741Y-160036987D01*
X189043946Y-160140882D01*
X189314865Y-160141118D01*
X189565252Y-160037661D01*
X189756987Y-159846259D01*
X189860882Y-159596054D01*
X189860952Y-159514865D01*
X190198882Y-159514865D01*
X190302339Y-159765252D01*
X190493741Y-159956987D01*
X190743946Y-160060882D01*
X191014865Y-160061118D01*
X191265252Y-159957661D01*
X191456987Y-159766259D01*
X191553070Y-159534865D01*
X192138882Y-159534865D01*
X192242339Y-159785252D01*
X192433741Y-159976987D01*
X192683946Y-160080882D01*
X192954865Y-160081118D01*
X193205252Y-159977661D01*
X193396987Y-159786259D01*
X193500882Y-159536054D01*
X193501109Y-159274865D01*
X195318882Y-159274865D01*
X195422339Y-159525252D01*
X195613741Y-159716987D01*
X195863946Y-159820882D01*
X196134865Y-159821118D01*
X196385252Y-159717661D01*
X196576987Y-159526259D01*
X196680882Y-159276054D01*
X196681118Y-159005135D01*
X196577661Y-158754748D01*
X196547830Y-158724865D01*
X230478882Y-158724865D01*
X230582339Y-158975252D01*
X230773741Y-159166987D01*
X231023946Y-159270882D01*
X231294865Y-159271118D01*
X231545252Y-159167661D01*
X231736987Y-158976259D01*
X231840882Y-158726054D01*
X231841118Y-158455135D01*
X231737661Y-158204748D01*
X231546259Y-158013013D01*
X231296054Y-157909118D01*
X231025135Y-157908882D01*
X230774748Y-158012339D01*
X230583013Y-158203741D01*
X230479118Y-158453946D01*
X230478882Y-158724865D01*
X196547830Y-158724865D01*
X196386259Y-158563013D01*
X196136054Y-158459118D01*
X195865135Y-158458882D01*
X195614748Y-158562339D01*
X195423013Y-158753741D01*
X195319118Y-159003946D01*
X195318882Y-159274865D01*
X193501109Y-159274865D01*
X193501118Y-159265135D01*
X193397661Y-159014748D01*
X193206259Y-158823013D01*
X192956054Y-158719118D01*
X192685135Y-158718882D01*
X192434748Y-158822339D01*
X192243013Y-159013741D01*
X192139118Y-159263946D01*
X192138882Y-159534865D01*
X191553070Y-159534865D01*
X191560882Y-159516054D01*
X191561118Y-159245135D01*
X191457661Y-158994748D01*
X191266259Y-158803013D01*
X191016054Y-158699118D01*
X190745135Y-158698882D01*
X190494748Y-158802339D01*
X190303013Y-158993741D01*
X190199118Y-159243946D01*
X190198882Y-159514865D01*
X189860952Y-159514865D01*
X189861118Y-159325135D01*
X189757661Y-159074748D01*
X189566259Y-158883013D01*
X189316054Y-158779118D01*
X189045135Y-158778882D01*
X188794748Y-158882339D01*
X188603013Y-159073741D01*
X188499118Y-159323946D01*
X188498882Y-159594865D01*
X167456000Y-159594865D01*
X167456000Y-157704865D01*
X179488882Y-157704865D01*
X179592339Y-157955252D01*
X179783741Y-158146987D01*
X180033946Y-158250882D01*
X180304865Y-158251118D01*
X180555252Y-158147661D01*
X180746987Y-157956259D01*
X180850882Y-157706054D01*
X180851118Y-157435135D01*
X180760105Y-157214865D01*
X182428882Y-157214865D01*
X182532339Y-157465252D01*
X182723741Y-157656987D01*
X182973946Y-157760882D01*
X183244865Y-157761118D01*
X183495252Y-157657661D01*
X183686987Y-157466259D01*
X183790882Y-157216054D01*
X183790926Y-157164865D01*
X191418882Y-157164865D01*
X191522339Y-157415252D01*
X191713741Y-157606987D01*
X191963946Y-157710882D01*
X192234865Y-157711118D01*
X192485252Y-157607661D01*
X192676987Y-157416259D01*
X192702480Y-157354865D01*
X200988882Y-157354865D01*
X201092339Y-157605252D01*
X201283741Y-157796987D01*
X201533946Y-157900882D01*
X201804865Y-157901118D01*
X202055252Y-157797661D01*
X202188279Y-157664865D01*
X218938882Y-157664865D01*
X219042339Y-157915252D01*
X219233741Y-158106987D01*
X219483946Y-158210882D01*
X219754865Y-158211118D01*
X220005252Y-158107661D01*
X220196987Y-157916259D01*
X220300882Y-157666054D01*
X220301118Y-157395135D01*
X220197661Y-157144748D01*
X220117917Y-157064865D01*
X220438882Y-157064865D01*
X220542339Y-157315252D01*
X220733741Y-157506987D01*
X220983946Y-157610882D01*
X221254865Y-157611118D01*
X221505252Y-157507661D01*
X221571894Y-157441135D01*
X221763946Y-157520882D01*
X222034865Y-157521118D01*
X222285252Y-157417661D01*
X222309876Y-157393080D01*
X222333741Y-157416987D01*
X222583946Y-157520882D01*
X222854865Y-157521118D01*
X223105252Y-157417661D01*
X223296987Y-157226259D01*
X223400882Y-156976054D01*
X223401118Y-156705135D01*
X223382413Y-156659865D01*
X230343882Y-156659865D01*
X230447339Y-156910252D01*
X230638741Y-157101987D01*
X230888946Y-157205882D01*
X231159865Y-157206118D01*
X231410252Y-157102661D01*
X231601987Y-156911259D01*
X231705882Y-156661054D01*
X231706118Y-156390135D01*
X231602661Y-156139748D01*
X231411259Y-155948013D01*
X231161054Y-155844118D01*
X230890135Y-155843882D01*
X230639748Y-155947339D01*
X230448013Y-156138741D01*
X230344118Y-156388946D01*
X230343882Y-156659865D01*
X223382413Y-156659865D01*
X223297661Y-156454748D01*
X223106259Y-156263013D01*
X222856054Y-156159118D01*
X222585135Y-156158882D01*
X222334748Y-156262339D01*
X222310124Y-156286920D01*
X222286259Y-156263013D01*
X222036054Y-156159118D01*
X221765135Y-156158882D01*
X221514748Y-156262339D01*
X221448106Y-156328865D01*
X221256054Y-156249118D01*
X220985135Y-156248882D01*
X220734748Y-156352339D01*
X220543013Y-156543741D01*
X220439118Y-156793946D01*
X220438882Y-157064865D01*
X220117917Y-157064865D01*
X220006259Y-156953013D01*
X219756054Y-156849118D01*
X219485135Y-156848882D01*
X219234748Y-156952339D01*
X219043013Y-157143741D01*
X218939118Y-157393946D01*
X218938882Y-157664865D01*
X202188279Y-157664865D01*
X202246987Y-157606259D01*
X202350882Y-157356054D01*
X202351118Y-157085135D01*
X202247710Y-156834865D01*
X202648882Y-156834865D01*
X202752339Y-157085252D01*
X202943741Y-157276987D01*
X203193946Y-157380882D01*
X203464865Y-157381118D01*
X203715252Y-157277661D01*
X203906987Y-157086259D01*
X204010882Y-156836054D01*
X204011118Y-156565135D01*
X203907661Y-156314748D01*
X203716259Y-156123013D01*
X203466054Y-156019118D01*
X203195135Y-156018882D01*
X202944748Y-156122339D01*
X202753013Y-156313741D01*
X202649118Y-156563946D01*
X202648882Y-156834865D01*
X202247710Y-156834865D01*
X202247661Y-156834748D01*
X202056259Y-156643013D01*
X201806054Y-156539118D01*
X201535135Y-156538882D01*
X201284748Y-156642339D01*
X201093013Y-156833741D01*
X200989118Y-157083946D01*
X200988882Y-157354865D01*
X192702480Y-157354865D01*
X192780882Y-157166054D01*
X192781118Y-156895135D01*
X192677661Y-156644748D01*
X192486259Y-156453013D01*
X192236054Y-156349118D01*
X191965135Y-156348882D01*
X191714748Y-156452339D01*
X191523013Y-156643741D01*
X191419118Y-156893946D01*
X191418882Y-157164865D01*
X183790926Y-157164865D01*
X183791118Y-156945135D01*
X183687661Y-156694748D01*
X183496259Y-156503013D01*
X183246054Y-156399118D01*
X182975135Y-156398882D01*
X182724748Y-156502339D01*
X182533013Y-156693741D01*
X182429118Y-156943946D01*
X182428882Y-157214865D01*
X180760105Y-157214865D01*
X180747661Y-157184748D01*
X180556259Y-156993013D01*
X180306054Y-156889118D01*
X180035135Y-156888882D01*
X179784748Y-156992339D01*
X179593013Y-157183741D01*
X179489118Y-157433946D01*
X179488882Y-157704865D01*
X167456000Y-157704865D01*
X167456000Y-155834865D01*
X176443882Y-155834865D01*
X176547339Y-156085252D01*
X176738741Y-156276987D01*
X176988946Y-156380882D01*
X177259865Y-156381118D01*
X177500283Y-156281780D01*
X177738946Y-156380882D01*
X178009865Y-156381118D01*
X178260252Y-156277661D01*
X178451987Y-156086259D01*
X178460870Y-156064865D01*
X179918882Y-156064865D01*
X180022339Y-156315252D01*
X180213741Y-156506987D01*
X180463946Y-156610882D01*
X180734865Y-156611118D01*
X180985252Y-156507661D01*
X181176987Y-156316259D01*
X181280882Y-156066054D01*
X181281072Y-155847983D01*
X181292339Y-155875252D01*
X181483741Y-156066987D01*
X181733946Y-156170882D01*
X182004865Y-156171118D01*
X182255252Y-156067661D01*
X182446987Y-155876259D01*
X182550882Y-155626054D01*
X182551057Y-155424865D01*
X229008882Y-155424865D01*
X229112339Y-155675252D01*
X229303741Y-155866987D01*
X229553946Y-155970882D01*
X229824865Y-155971118D01*
X230075252Y-155867661D01*
X230266987Y-155676259D01*
X230370882Y-155426054D01*
X230371118Y-155155135D01*
X230267661Y-154904748D01*
X230076259Y-154713013D01*
X229826054Y-154609118D01*
X229555135Y-154608882D01*
X229304748Y-154712339D01*
X229113013Y-154903741D01*
X229009118Y-155153946D01*
X229008882Y-155424865D01*
X182551057Y-155424865D01*
X182551118Y-155355135D01*
X182447661Y-155104748D01*
X182256259Y-154913013D01*
X182006054Y-154809118D01*
X181735135Y-154808882D01*
X181484748Y-154912339D01*
X181293013Y-155103741D01*
X181189118Y-155353946D01*
X181188928Y-155572017D01*
X181177661Y-155544748D01*
X180986259Y-155353013D01*
X180736054Y-155249118D01*
X180465135Y-155248882D01*
X180214748Y-155352339D01*
X180023013Y-155543741D01*
X179919118Y-155793946D01*
X179918882Y-156064865D01*
X178460870Y-156064865D01*
X178555882Y-155836054D01*
X178556118Y-155565135D01*
X178452661Y-155314748D01*
X178261259Y-155123013D01*
X178011054Y-155019118D01*
X177740135Y-155018882D01*
X177499717Y-155118220D01*
X177261054Y-155019118D01*
X176990135Y-155018882D01*
X176739748Y-155122339D01*
X176548013Y-155313741D01*
X176444118Y-155563946D01*
X176443882Y-155834865D01*
X167456000Y-155834865D01*
X167456000Y-154744865D01*
X182358882Y-154744865D01*
X182462339Y-154995252D01*
X182653741Y-155186987D01*
X182903946Y-155290882D01*
X183174865Y-155291118D01*
X183425252Y-155187661D01*
X183616987Y-154996259D01*
X183720882Y-154746054D01*
X183721118Y-154475135D01*
X183617661Y-154224748D01*
X183426259Y-154033013D01*
X183176054Y-153929118D01*
X182905135Y-153928882D01*
X182654748Y-154032339D01*
X182463013Y-154223741D01*
X182359118Y-154473946D01*
X182358882Y-154744865D01*
X167456000Y-154744865D01*
X167456000Y-152834865D01*
X174943882Y-152834865D01*
X175047339Y-153085252D01*
X175238741Y-153276987D01*
X175488946Y-153380882D01*
X175759865Y-153381118D01*
X176000283Y-153281780D01*
X176238946Y-153380882D01*
X176509865Y-153381118D01*
X176760252Y-153277661D01*
X176951987Y-153086259D01*
X177055882Y-152836054D01*
X177056118Y-152565135D01*
X176952661Y-152314748D01*
X176761259Y-152123013D01*
X176511054Y-152019118D01*
X176240135Y-152018882D01*
X175999717Y-152118220D01*
X175761054Y-152019118D01*
X175490135Y-152018882D01*
X175239748Y-152122339D01*
X175048013Y-152313741D01*
X174944118Y-152563946D01*
X174943882Y-152834865D01*
X167456000Y-152834865D01*
X167456000Y-151244669D01*
X208498864Y-151244669D01*
X208617514Y-151531823D01*
X208837021Y-151751714D01*
X209123968Y-151870864D01*
X209434669Y-151871136D01*
X209721823Y-151752486D01*
X209941714Y-151532979D01*
X210060864Y-151246032D01*
X210061136Y-150935331D01*
X209942486Y-150648177D01*
X209722979Y-150428286D01*
X209436032Y-150309136D01*
X209125331Y-150308864D01*
X208838177Y-150427514D01*
X208618286Y-150647021D01*
X208499136Y-150933968D01*
X208498864Y-151244669D01*
X167456000Y-151244669D01*
X167456000Y-150534865D01*
X174343882Y-150534865D01*
X174447339Y-150785252D01*
X174638741Y-150976987D01*
X174888946Y-151080882D01*
X175159865Y-151081118D01*
X175400283Y-150981780D01*
X175638946Y-151080882D01*
X175909865Y-151081118D01*
X176160252Y-150977661D01*
X176351987Y-150786259D01*
X176455882Y-150536054D01*
X176456118Y-150265135D01*
X176352661Y-150014748D01*
X176161259Y-149823013D01*
X175911054Y-149719118D01*
X175640135Y-149718882D01*
X175399717Y-149818220D01*
X175161054Y-149719118D01*
X174890135Y-149718882D01*
X174639748Y-149822339D01*
X174448013Y-150013741D01*
X174344118Y-150263946D01*
X174343882Y-150534865D01*
X167456000Y-150534865D01*
X167456000Y-148774669D01*
X186488864Y-148774669D01*
X186607514Y-149061823D01*
X186827021Y-149281714D01*
X187113968Y-149400864D01*
X187424669Y-149401136D01*
X187711823Y-149282486D01*
X187931714Y-149062979D01*
X188050864Y-148776032D01*
X188051136Y-148465331D01*
X187932486Y-148178177D01*
X187712979Y-147958286D01*
X187426032Y-147839136D01*
X187115331Y-147838864D01*
X186828177Y-147957514D01*
X186608286Y-148177021D01*
X186489136Y-148463968D01*
X186488864Y-148774669D01*
X167456000Y-148774669D01*
X167456000Y-146369700D01*
X173153717Y-146369700D01*
X173257174Y-146620087D01*
X173448576Y-146811822D01*
X173688820Y-146911581D01*
X173787504Y-147150417D01*
X173978906Y-147342152D01*
X174229111Y-147446047D01*
X174500030Y-147446283D01*
X174750417Y-147342826D01*
X174753743Y-147339505D01*
X174753717Y-147369700D01*
X174857174Y-147620087D01*
X175048576Y-147811822D01*
X175288820Y-147911581D01*
X175387504Y-148150417D01*
X175578906Y-148342152D01*
X175829111Y-148446047D01*
X176100030Y-148446283D01*
X176350417Y-148342826D01*
X176542152Y-148151424D01*
X176646047Y-147901219D01*
X176646283Y-147630300D01*
X176542826Y-147379913D01*
X176351424Y-147188178D01*
X176111180Y-147088419D01*
X176012496Y-146849583D01*
X175821094Y-146657848D01*
X175570889Y-146553953D01*
X175299970Y-146553717D01*
X175049583Y-146657174D01*
X175046257Y-146660495D01*
X175046283Y-146630300D01*
X174981979Y-146474669D01*
X202348864Y-146474669D01*
X202467514Y-146761823D01*
X202687021Y-146981714D01*
X202973968Y-147100864D01*
X203284669Y-147101136D01*
X203571823Y-146982486D01*
X203791714Y-146762979D01*
X203910864Y-146476032D01*
X203911136Y-146165331D01*
X203855994Y-146031877D01*
X203973968Y-146080864D01*
X204284669Y-146081136D01*
X204571823Y-145962486D01*
X204754928Y-145779700D01*
X211563717Y-145779700D01*
X211667174Y-146030087D01*
X211858576Y-146221822D01*
X212098820Y-146321581D01*
X212197504Y-146560417D01*
X212388906Y-146752152D01*
X212639111Y-146856047D01*
X212910030Y-146856283D01*
X213160417Y-146752826D01*
X213352152Y-146561424D01*
X213456047Y-146311219D01*
X213456283Y-146040300D01*
X213352826Y-145789913D01*
X213161424Y-145598178D01*
X212921180Y-145498419D01*
X212822496Y-145259583D01*
X212631094Y-145067848D01*
X212380889Y-144963953D01*
X212109970Y-144963717D01*
X211859583Y-145067174D01*
X211667848Y-145258576D01*
X211563953Y-145508781D01*
X211563717Y-145779700D01*
X204754928Y-145779700D01*
X204791714Y-145742979D01*
X204910864Y-145456032D01*
X204911136Y-145145331D01*
X204792486Y-144858177D01*
X204572979Y-144638286D01*
X204431888Y-144579700D01*
X215853717Y-144579700D01*
X215957174Y-144830087D01*
X216148576Y-145021822D01*
X216388820Y-145121581D01*
X216487504Y-145360417D01*
X216678906Y-145552152D01*
X216929111Y-145656047D01*
X217200030Y-145656283D01*
X217450417Y-145552826D01*
X217642152Y-145361424D01*
X217730068Y-145149700D01*
X218303717Y-145149700D01*
X218407174Y-145400087D01*
X218598576Y-145591822D01*
X218838820Y-145691581D01*
X218937504Y-145930417D01*
X219128906Y-146122152D01*
X219379111Y-146226047D01*
X219650030Y-146226283D01*
X219786972Y-146169700D01*
X222333717Y-146169700D01*
X222437174Y-146420087D01*
X222628576Y-146611822D01*
X222868820Y-146711581D01*
X222967504Y-146950417D01*
X223158906Y-147142152D01*
X223409111Y-147246047D01*
X223680030Y-147246283D01*
X223930417Y-147142826D01*
X224122152Y-146951424D01*
X224223807Y-146706614D01*
X224223717Y-146809700D01*
X224327174Y-147060087D01*
X224518576Y-147251822D01*
X224758820Y-147351581D01*
X224857504Y-147590417D01*
X225048906Y-147782152D01*
X225299111Y-147886047D01*
X225570030Y-147886283D01*
X225820417Y-147782826D01*
X226012152Y-147591424D01*
X226116047Y-147341219D01*
X226116061Y-147324669D01*
X229918864Y-147324669D01*
X230037514Y-147611823D01*
X230257021Y-147831714D01*
X230543968Y-147950864D01*
X230854669Y-147951136D01*
X231141823Y-147832486D01*
X231361714Y-147612979D01*
X231480864Y-147326032D01*
X231481136Y-147015331D01*
X231362486Y-146728177D01*
X231142979Y-146508286D01*
X230856032Y-146389136D01*
X230545331Y-146388864D01*
X230258177Y-146507514D01*
X230038286Y-146727021D01*
X229919136Y-147013968D01*
X229918864Y-147324669D01*
X226116061Y-147324669D01*
X226116283Y-147070300D01*
X226012826Y-146819913D01*
X225821424Y-146628178D01*
X225581180Y-146528419D01*
X225482496Y-146289583D01*
X225291094Y-146097848D01*
X225040889Y-145993953D01*
X224769970Y-145993717D01*
X224519583Y-146097174D01*
X224327848Y-146288576D01*
X224226193Y-146533386D01*
X224226283Y-146430300D01*
X224122826Y-146179913D01*
X223931424Y-145988178D01*
X223691180Y-145888419D01*
X223592496Y-145649583D01*
X223401094Y-145457848D01*
X223150889Y-145353953D01*
X222879970Y-145353717D01*
X222629583Y-145457174D01*
X222437848Y-145648576D01*
X222333953Y-145898781D01*
X222333717Y-146169700D01*
X219786972Y-146169700D01*
X219900417Y-146122826D01*
X220092152Y-145931424D01*
X220196047Y-145681219D01*
X220196283Y-145410300D01*
X220092826Y-145159913D01*
X219901424Y-144968178D01*
X219661180Y-144868419D01*
X219562496Y-144629583D01*
X219371094Y-144437848D01*
X219120889Y-144333953D01*
X218849970Y-144333717D01*
X218599583Y-144437174D01*
X218407848Y-144628576D01*
X218303953Y-144878781D01*
X218303717Y-145149700D01*
X217730068Y-145149700D01*
X217746047Y-145111219D01*
X217746283Y-144840300D01*
X217642826Y-144589913D01*
X217451424Y-144398178D01*
X217211180Y-144298419D01*
X217112496Y-144059583D01*
X216921094Y-143867848D01*
X216670889Y-143763953D01*
X216399970Y-143763717D01*
X216149583Y-143867174D01*
X215957848Y-144058576D01*
X215853953Y-144308781D01*
X215853717Y-144579700D01*
X204431888Y-144579700D01*
X204286032Y-144519136D01*
X203975331Y-144518864D01*
X203688177Y-144637514D01*
X203468286Y-144857021D01*
X203349136Y-145143968D01*
X203348864Y-145454669D01*
X203404006Y-145588123D01*
X203286032Y-145539136D01*
X202975331Y-145538864D01*
X202688177Y-145657514D01*
X202468286Y-145877021D01*
X202349136Y-146163968D01*
X202348864Y-146474669D01*
X174981979Y-146474669D01*
X174942826Y-146379913D01*
X174751424Y-146188178D01*
X174511180Y-146088419D01*
X174412496Y-145849583D01*
X174221094Y-145657848D01*
X173970889Y-145553953D01*
X173699970Y-145553717D01*
X173449583Y-145657174D01*
X173257848Y-145848576D01*
X173153953Y-146098781D01*
X173153717Y-146369700D01*
X167456000Y-146369700D01*
X167456000Y-142764669D01*
X176798864Y-142764669D01*
X176917514Y-143051823D01*
X177137021Y-143271714D01*
X177423968Y-143390864D01*
X177734669Y-143391136D01*
X178021823Y-143272486D01*
X178241714Y-143052979D01*
X178336515Y-142824669D01*
X182188864Y-142824669D01*
X182307514Y-143111823D01*
X182527021Y-143331714D01*
X182813968Y-143450864D01*
X183124669Y-143451136D01*
X183411823Y-143332486D01*
X183631714Y-143112979D01*
X183651855Y-143064473D01*
X194358847Y-143064473D01*
X194492689Y-143388395D01*
X194740302Y-143636440D01*
X195063989Y-143770847D01*
X195414473Y-143771153D01*
X195738395Y-143637311D01*
X195986440Y-143389698D01*
X196120847Y-143066011D01*
X196121153Y-142715527D01*
X195987311Y-142391605D01*
X195739698Y-142143560D01*
X195416011Y-142009153D01*
X195065527Y-142008847D01*
X194741605Y-142142689D01*
X194493560Y-142390302D01*
X194359153Y-142713989D01*
X194358847Y-143064473D01*
X183651855Y-143064473D01*
X183750864Y-142826032D01*
X183751136Y-142515331D01*
X183632486Y-142228177D01*
X183412979Y-142008286D01*
X183126032Y-141889136D01*
X182815331Y-141888864D01*
X182528177Y-142007514D01*
X182308286Y-142227021D01*
X182189136Y-142513968D01*
X182188864Y-142824669D01*
X178336515Y-142824669D01*
X178360864Y-142766032D01*
X178361136Y-142455331D01*
X178242486Y-142168177D01*
X178022979Y-141948286D01*
X177736032Y-141829136D01*
X177425331Y-141828864D01*
X177138177Y-141947514D01*
X176918286Y-142167021D01*
X176799136Y-142453968D01*
X176798864Y-142764669D01*
X167456000Y-142764669D01*
X167456000Y-141504473D01*
X185898847Y-141504473D01*
X186032689Y-141828395D01*
X186280302Y-142076440D01*
X186603989Y-142210847D01*
X186954473Y-142211153D01*
X187278395Y-142077311D01*
X187526440Y-141829698D01*
X187660847Y-141506011D01*
X187661153Y-141155527D01*
X187527311Y-140831605D01*
X187279698Y-140583560D01*
X186956011Y-140449153D01*
X186605527Y-140448847D01*
X186281605Y-140582689D01*
X186033560Y-140830302D01*
X185899153Y-141153989D01*
X185898847Y-141504473D01*
X167456000Y-141504473D01*
X167456000Y-134814865D01*
X192378882Y-134814865D01*
X192482339Y-135065252D01*
X192673741Y-135256987D01*
X192923946Y-135360882D01*
X193194865Y-135361118D01*
X193445252Y-135257661D01*
X193636987Y-135066259D01*
X193740882Y-134816054D01*
X193741118Y-134545135D01*
X193637661Y-134294748D01*
X193446259Y-134103013D01*
X193196054Y-133999118D01*
X192925135Y-133998882D01*
X192674748Y-134102339D01*
X192483013Y-134293741D01*
X192379118Y-134543946D01*
X192378882Y-134814865D01*
X167456000Y-134814865D01*
X167456000Y-130434473D01*
X192038847Y-130434473D01*
X192172689Y-130758395D01*
X192420302Y-131006440D01*
X192743989Y-131140847D01*
X193094473Y-131141153D01*
X193418395Y-131007311D01*
X193666440Y-130759698D01*
X193800847Y-130436011D01*
X193801153Y-130085527D01*
X193667311Y-129761605D01*
X193419698Y-129513560D01*
X193096011Y-129379153D01*
X192745527Y-129378847D01*
X192421605Y-129512689D01*
X192173560Y-129760302D01*
X192039153Y-130083989D01*
X192038847Y-130434473D01*
X167456000Y-130434473D01*
X167456000Y-128304473D01*
X192038847Y-128304473D01*
X192172689Y-128628395D01*
X192420302Y-128876440D01*
X192743989Y-129010847D01*
X193094473Y-129011153D01*
X193418395Y-128877311D01*
X193666440Y-128629698D01*
X193797333Y-128314473D01*
X206508847Y-128314473D01*
X206642689Y-128638395D01*
X206890302Y-128886440D01*
X207213989Y-129020847D01*
X207564473Y-129021153D01*
X207888395Y-128887311D01*
X208136440Y-128639698D01*
X208270847Y-128316011D01*
X208271153Y-127965527D01*
X208137311Y-127641605D01*
X207889698Y-127393560D01*
X207566011Y-127259153D01*
X207215527Y-127258847D01*
X206891605Y-127392689D01*
X206643560Y-127640302D01*
X206509153Y-127963989D01*
X206508847Y-128314473D01*
X193797333Y-128314473D01*
X193800847Y-128306011D01*
X193801153Y-127955527D01*
X193667311Y-127631605D01*
X193419698Y-127383560D01*
X193096011Y-127249153D01*
X192745527Y-127248847D01*
X192421605Y-127382689D01*
X192173560Y-127630302D01*
X192039153Y-127953989D01*
X192038847Y-128304473D01*
X167456000Y-128304473D01*
X167456000Y-126384669D01*
X204558864Y-126384669D01*
X204677514Y-126671823D01*
X204897021Y-126891714D01*
X205183968Y-127010864D01*
X205494669Y-127011136D01*
X205781823Y-126892486D01*
X206001714Y-126672979D01*
X206120864Y-126386032D01*
X206121136Y-126075331D01*
X206002486Y-125788177D01*
X205782979Y-125568286D01*
X205496032Y-125449136D01*
X205185331Y-125448864D01*
X204898177Y-125567514D01*
X204678286Y-125787021D01*
X204559136Y-126073968D01*
X204558864Y-126384669D01*
X167456000Y-126384669D01*
X167456000Y-123814865D01*
X196068882Y-123814865D01*
X196172339Y-124065252D01*
X196363741Y-124256987D01*
X196613946Y-124360882D01*
X196884865Y-124361118D01*
X197135252Y-124257661D01*
X197326987Y-124066259D01*
X197430882Y-123816054D01*
X197431118Y-123545135D01*
X197327661Y-123294748D01*
X197136259Y-123103013D01*
X196886054Y-122999118D01*
X196615135Y-122998882D01*
X196364748Y-123102339D01*
X196173013Y-123293741D01*
X196069118Y-123543946D01*
X196068882Y-123814865D01*
X167456000Y-123814865D01*
X167456000Y-122794865D01*
X197168882Y-122794865D01*
X197272339Y-123045252D01*
X197463741Y-123236987D01*
X197713946Y-123340882D01*
X197984865Y-123341118D01*
X198235252Y-123237661D01*
X198426987Y-123046259D01*
X198530882Y-122796054D01*
X198531118Y-122525135D01*
X198427661Y-122274748D01*
X198236259Y-122083013D01*
X197986054Y-121979118D01*
X197715135Y-121978882D01*
X197464748Y-122082339D01*
X197273013Y-122273741D01*
X197169118Y-122523946D01*
X197168882Y-122794865D01*
X167456000Y-122794865D01*
X167456000Y-121214865D01*
X206898882Y-121214865D01*
X207002339Y-121465252D01*
X207193741Y-121656987D01*
X207443946Y-121760882D01*
X207714865Y-121761118D01*
X207965252Y-121657661D01*
X208156987Y-121466259D01*
X208260882Y-121216054D01*
X208261118Y-120945135D01*
X208157661Y-120694748D01*
X207966259Y-120503013D01*
X207716054Y-120399118D01*
X207445135Y-120398882D01*
X207194748Y-120502339D01*
X207003013Y-120693741D01*
X206899118Y-120943946D01*
X206898882Y-121214865D01*
X167456000Y-121214865D01*
X167456000Y-120500000D01*
X167421289Y-120325496D01*
X167322441Y-120177559D01*
X167174504Y-120078711D01*
X167000000Y-120044000D01*
X137456000Y-120044000D01*
X137456000Y-119684865D01*
X195768882Y-119684865D01*
X195872339Y-119935252D01*
X196063741Y-120126987D01*
X196313946Y-120230882D01*
X196584865Y-120231118D01*
X196835252Y-120127661D01*
X197026987Y-119936259D01*
X197130882Y-119686054D01*
X197131118Y-119415135D01*
X197027661Y-119164748D01*
X196836259Y-118973013D01*
X196586054Y-118869118D01*
X196315135Y-118868882D01*
X196064748Y-118972339D01*
X195873013Y-119163741D01*
X195769118Y-119413946D01*
X195768882Y-119684865D01*
X137456000Y-119684865D01*
X137456000Y-116614865D01*
X187028882Y-116614865D01*
X187132339Y-116865252D01*
X187323741Y-117056987D01*
X187573946Y-117160882D01*
X187844865Y-117161118D01*
X188095252Y-117057661D01*
X188286987Y-116866259D01*
X188387223Y-116624865D01*
X190368882Y-116624865D01*
X190472339Y-116875252D01*
X190663741Y-117066987D01*
X190913946Y-117170882D01*
X191184865Y-117171118D01*
X191435252Y-117067661D01*
X191595058Y-116908132D01*
X191693741Y-117006987D01*
X191943946Y-117110882D01*
X192214865Y-117111118D01*
X192465252Y-117007661D01*
X192509884Y-116963106D01*
X192523741Y-116976987D01*
X192773946Y-117080882D01*
X193044865Y-117081118D01*
X193295252Y-116977661D01*
X193409945Y-116863167D01*
X193423741Y-116876987D01*
X193519889Y-116916912D01*
X193493013Y-116943741D01*
X193389118Y-117193946D01*
X193388882Y-117464865D01*
X193476381Y-117676631D01*
X193244748Y-117772339D01*
X193053013Y-117963741D01*
X192949118Y-118213946D01*
X192948882Y-118484865D01*
X193052339Y-118735252D01*
X193243741Y-118926987D01*
X193493946Y-119030882D01*
X193764865Y-119031118D01*
X194015252Y-118927661D01*
X194206987Y-118736259D01*
X194310882Y-118486054D01*
X194310935Y-118424865D01*
X202498882Y-118424865D01*
X202602339Y-118675252D01*
X202793741Y-118866987D01*
X203043946Y-118970882D01*
X203314865Y-118971118D01*
X203565252Y-118867661D01*
X203756987Y-118676259D01*
X203857223Y-118434865D01*
X205488882Y-118434865D01*
X205592339Y-118685252D01*
X205783741Y-118876987D01*
X206033946Y-118980882D01*
X206304865Y-118981118D01*
X206555252Y-118877661D01*
X206746987Y-118686259D01*
X206850882Y-118436054D01*
X206851118Y-118165135D01*
X206747661Y-117914748D01*
X206556259Y-117723013D01*
X206306054Y-117619118D01*
X206035135Y-117618882D01*
X205784748Y-117722339D01*
X205593013Y-117913741D01*
X205489118Y-118163946D01*
X205488882Y-118434865D01*
X203857223Y-118434865D01*
X203860882Y-118426054D01*
X203861118Y-118155135D01*
X203757661Y-117904748D01*
X203566259Y-117713013D01*
X203316054Y-117609118D01*
X203045135Y-117608882D01*
X202794748Y-117712339D01*
X202603013Y-117903741D01*
X202499118Y-118153946D01*
X202498882Y-118424865D01*
X194310935Y-118424865D01*
X194311118Y-118215135D01*
X194223619Y-118003369D01*
X194455252Y-117907661D01*
X194646987Y-117716259D01*
X194750882Y-117466054D01*
X194751118Y-117195135D01*
X194730348Y-117144865D01*
X197038882Y-117144865D01*
X197142339Y-117395252D01*
X197333741Y-117586987D01*
X197583946Y-117690882D01*
X197854865Y-117691118D01*
X198105252Y-117587661D01*
X198296987Y-117396259D01*
X198400882Y-117146054D01*
X198401118Y-116875135D01*
X198297661Y-116624748D01*
X198106259Y-116433013D01*
X197856054Y-116329118D01*
X197585135Y-116328882D01*
X197334748Y-116432339D01*
X197143013Y-116623741D01*
X197039118Y-116873946D01*
X197038882Y-117144865D01*
X194730348Y-117144865D01*
X194647661Y-116944748D01*
X194456259Y-116753013D01*
X194360111Y-116713088D01*
X194386987Y-116686259D01*
X194490882Y-116436054D01*
X194491118Y-116165135D01*
X194387661Y-115914748D01*
X194208091Y-115734865D01*
X210438882Y-115734865D01*
X210542339Y-115985252D01*
X210733741Y-116176987D01*
X210983946Y-116280882D01*
X211254865Y-116281118D01*
X211505252Y-116177661D01*
X211696987Y-115986259D01*
X211800882Y-115736054D01*
X211801118Y-115465135D01*
X211697661Y-115214748D01*
X211506259Y-115023013D01*
X211256054Y-114919118D01*
X210985135Y-114918882D01*
X210734748Y-115022339D01*
X210543013Y-115213741D01*
X210439118Y-115463946D01*
X210438882Y-115734865D01*
X194208091Y-115734865D01*
X194196259Y-115723013D01*
X193946054Y-115619118D01*
X193675135Y-115618882D01*
X193424748Y-115722339D01*
X193310055Y-115836833D01*
X193296259Y-115823013D01*
X193046054Y-115719118D01*
X192775135Y-115718882D01*
X192524748Y-115822339D01*
X192480116Y-115866894D01*
X192466259Y-115853013D01*
X192216054Y-115749118D01*
X191945135Y-115748882D01*
X191694748Y-115852339D01*
X191534942Y-116011868D01*
X191436259Y-115913013D01*
X191186054Y-115809118D01*
X190915135Y-115808882D01*
X190664748Y-115912339D01*
X190473013Y-116103741D01*
X190369118Y-116353946D01*
X190368882Y-116624865D01*
X188387223Y-116624865D01*
X188390882Y-116616054D01*
X188391118Y-116345135D01*
X188355066Y-116257882D01*
X188526987Y-116086259D01*
X188630882Y-115836054D01*
X188631118Y-115565135D01*
X188527661Y-115314748D01*
X188453011Y-115239968D01*
X188606987Y-115086259D01*
X188710882Y-114836054D01*
X188711118Y-114565135D01*
X188607661Y-114314748D01*
X188578002Y-114285037D01*
X188696987Y-114166259D01*
X188776624Y-113974473D01*
X190308847Y-113974473D01*
X190442689Y-114298395D01*
X190690302Y-114546440D01*
X191013989Y-114680847D01*
X191364473Y-114681153D01*
X191688395Y-114547311D01*
X191921246Y-114314865D01*
X194268882Y-114314865D01*
X194372339Y-114565252D01*
X194563741Y-114756987D01*
X194813946Y-114860882D01*
X195084865Y-114861118D01*
X195335252Y-114757661D01*
X195335548Y-114757365D01*
X212136382Y-114757365D01*
X212239839Y-115007752D01*
X212431241Y-115199487D01*
X212681446Y-115303382D01*
X212952365Y-115303618D01*
X213202752Y-115200161D01*
X213394487Y-115008759D01*
X213498382Y-114758554D01*
X213498618Y-114487635D01*
X213395161Y-114237248D01*
X213203759Y-114045513D01*
X212953554Y-113941618D01*
X212682635Y-113941382D01*
X212432248Y-114044839D01*
X212240513Y-114236241D01*
X212136618Y-114486446D01*
X212136382Y-114757365D01*
X195335548Y-114757365D01*
X195526987Y-114566259D01*
X195630882Y-114316054D01*
X195631118Y-114045135D01*
X195527661Y-113794748D01*
X195336259Y-113603013D01*
X195086054Y-113499118D01*
X194815135Y-113498882D01*
X194564748Y-113602339D01*
X194373013Y-113793741D01*
X194269118Y-114043946D01*
X194268882Y-114314865D01*
X191921246Y-114314865D01*
X191936440Y-114299698D01*
X192070847Y-113976011D01*
X192071153Y-113625527D01*
X192008901Y-113474865D01*
X201598882Y-113474865D01*
X201702339Y-113725252D01*
X201893741Y-113916987D01*
X202143946Y-114020882D01*
X202414865Y-114021118D01*
X202665252Y-113917661D01*
X202856987Y-113726259D01*
X202950762Y-113500425D01*
X203002339Y-113625252D01*
X203193741Y-113816987D01*
X203443946Y-113920882D01*
X203714865Y-113921118D01*
X203965252Y-113817661D01*
X204146827Y-113636402D01*
X204253946Y-113680882D01*
X204524865Y-113681118D01*
X204775252Y-113577661D01*
X204966987Y-113386259D01*
X205033544Y-113225972D01*
X205213946Y-113300882D01*
X205484865Y-113301118D01*
X205735252Y-113197661D01*
X205926987Y-113006259D01*
X205994004Y-112844865D01*
X215508882Y-112844865D01*
X215612339Y-113095252D01*
X215803741Y-113286987D01*
X216053946Y-113390882D01*
X216279042Y-113391078D01*
X216278882Y-113574865D01*
X216382339Y-113825252D01*
X216573741Y-114016987D01*
X216823946Y-114120882D01*
X217094865Y-114121118D01*
X217345252Y-114017661D01*
X217388122Y-113974865D01*
X225938882Y-113974865D01*
X226042339Y-114225252D01*
X226233741Y-114416987D01*
X226483946Y-114520882D01*
X226754865Y-114521118D01*
X227005252Y-114417661D01*
X227196987Y-114226259D01*
X227300882Y-113976054D01*
X227301118Y-113705135D01*
X227197661Y-113454748D01*
X227006259Y-113263013D01*
X226756054Y-113159118D01*
X226485135Y-113158882D01*
X226234748Y-113262339D01*
X226043013Y-113453741D01*
X225939118Y-113703946D01*
X225938882Y-113974865D01*
X217388122Y-113974865D01*
X217536987Y-113826259D01*
X217640882Y-113576054D01*
X217641118Y-113305135D01*
X217537661Y-113054748D01*
X217346259Y-112863013D01*
X217096054Y-112759118D01*
X216870958Y-112758922D01*
X216871118Y-112575135D01*
X216767661Y-112324748D01*
X216576259Y-112133013D01*
X216326054Y-112029118D01*
X216055135Y-112028882D01*
X215804748Y-112132339D01*
X215613013Y-112323741D01*
X215509118Y-112573946D01*
X215508882Y-112844865D01*
X205994004Y-112844865D01*
X206030882Y-112756054D01*
X206031118Y-112485135D01*
X205927661Y-112234748D01*
X205736259Y-112043013D01*
X205486054Y-111939118D01*
X205215135Y-111938882D01*
X204964748Y-112042339D01*
X204773013Y-112233741D01*
X204706456Y-112394028D01*
X204526054Y-112319118D01*
X204255135Y-112318882D01*
X204004748Y-112422339D01*
X203823173Y-112603598D01*
X203716054Y-112559118D01*
X203445135Y-112558882D01*
X203194748Y-112662339D01*
X203003013Y-112853741D01*
X202909238Y-113079575D01*
X202857661Y-112954748D01*
X202666259Y-112763013D01*
X202416054Y-112659118D01*
X202145135Y-112658882D01*
X201894748Y-112762339D01*
X201703013Y-112953741D01*
X201599118Y-113203946D01*
X201598882Y-113474865D01*
X192008901Y-113474865D01*
X191937311Y-113301605D01*
X191689698Y-113053560D01*
X191366011Y-112919153D01*
X191015527Y-112918847D01*
X190691605Y-113052689D01*
X190443560Y-113300302D01*
X190309153Y-113623989D01*
X190308847Y-113974473D01*
X188776624Y-113974473D01*
X188800882Y-113916054D01*
X188801118Y-113645135D01*
X188697661Y-113394748D01*
X188506259Y-113203013D01*
X188256054Y-113099118D01*
X187985135Y-113098882D01*
X187734748Y-113202339D01*
X187543013Y-113393741D01*
X187439118Y-113643946D01*
X187438882Y-113914865D01*
X187542339Y-114165252D01*
X187571998Y-114194963D01*
X187453013Y-114313741D01*
X187349118Y-114563946D01*
X187348882Y-114834865D01*
X187452339Y-115085252D01*
X187526989Y-115160032D01*
X187373013Y-115313741D01*
X187269118Y-115563946D01*
X187268882Y-115834865D01*
X187304934Y-115922118D01*
X187133013Y-116093741D01*
X187029118Y-116343946D01*
X187028882Y-116614865D01*
X137456000Y-116614865D01*
X137456000Y-111080000D01*
X226075631Y-111080000D01*
X226170371Y-111556288D01*
X226440166Y-111960065D01*
X226843943Y-112229860D01*
X227320231Y-112324600D01*
X227679769Y-112324600D01*
X228156057Y-112229860D01*
X228559834Y-111960065D01*
X228829629Y-111556288D01*
X228924369Y-111080000D01*
X228829629Y-110603712D01*
X228559834Y-110199935D01*
X228156057Y-109930140D01*
X227679769Y-109835400D01*
X227320231Y-109835400D01*
X226843943Y-109930140D01*
X226440166Y-110199935D01*
X226170371Y-110603712D01*
X226075631Y-111080000D01*
X137456000Y-111080000D01*
X137456000Y-109274865D01*
X202518882Y-109274865D01*
X202622339Y-109525252D01*
X202813741Y-109716987D01*
X203063946Y-109820882D01*
X203334865Y-109821118D01*
X203585252Y-109717661D01*
X203776987Y-109526259D01*
X203880882Y-109276054D01*
X203881118Y-109005135D01*
X203777661Y-108754748D01*
X203586259Y-108563013D01*
X203336054Y-108459118D01*
X203065135Y-108458882D01*
X202814748Y-108562339D01*
X202623013Y-108753741D01*
X202519118Y-109003946D01*
X202518882Y-109274865D01*
X137456000Y-109274865D01*
X137456000Y-108314865D01*
X211388882Y-108314865D01*
X211492339Y-108565252D01*
X211683741Y-108756987D01*
X211933946Y-108860882D01*
X212204865Y-108861118D01*
X212455252Y-108757661D01*
X212646987Y-108566259D01*
X212657890Y-108540000D01*
X226075631Y-108540000D01*
X226170371Y-109016288D01*
X226440166Y-109420065D01*
X226843943Y-109689860D01*
X227320231Y-109784600D01*
X227679769Y-109784600D01*
X228156057Y-109689860D01*
X228559834Y-109420065D01*
X228829629Y-109016288D01*
X228924369Y-108540000D01*
X228829629Y-108063712D01*
X228559834Y-107659935D01*
X228156057Y-107390140D01*
X227679769Y-107295400D01*
X227320231Y-107295400D01*
X226843943Y-107390140D01*
X226440166Y-107659935D01*
X226170371Y-108063712D01*
X226075631Y-108540000D01*
X212657890Y-108540000D01*
X212750882Y-108316054D01*
X212751118Y-108045135D01*
X212647661Y-107794748D01*
X212456259Y-107603013D01*
X212206054Y-107499118D01*
X211935135Y-107498882D01*
X211684748Y-107602339D01*
X211493013Y-107793741D01*
X211389118Y-108043946D01*
X211388882Y-108314865D01*
X137456000Y-108314865D01*
X137456000Y-107184865D01*
X181158882Y-107184865D01*
X181262339Y-107435252D01*
X181453741Y-107626987D01*
X181703946Y-107730882D01*
X181974865Y-107731118D01*
X182225252Y-107627661D01*
X182375495Y-107477679D01*
X182432339Y-107615252D01*
X182623741Y-107806987D01*
X182873946Y-107910882D01*
X183144865Y-107911118D01*
X183395252Y-107807661D01*
X183494928Y-107708158D01*
X183503741Y-107716987D01*
X183753946Y-107820882D01*
X184024865Y-107821118D01*
X184275252Y-107717661D01*
X184415041Y-107578115D01*
X184513741Y-107676987D01*
X184763946Y-107780882D01*
X185034865Y-107781118D01*
X185285252Y-107677661D01*
X185298070Y-107664865D01*
X208068882Y-107664865D01*
X208172339Y-107915252D01*
X208363741Y-108106987D01*
X208613946Y-108210882D01*
X208884865Y-108211118D01*
X209135252Y-108107661D01*
X209326987Y-107916259D01*
X209430882Y-107666054D01*
X209431118Y-107395135D01*
X209327661Y-107144748D01*
X209136259Y-106953013D01*
X208886054Y-106849118D01*
X208615135Y-106848882D01*
X208364748Y-106952339D01*
X208173013Y-107143741D01*
X208069118Y-107393946D01*
X208068882Y-107664865D01*
X185298070Y-107664865D01*
X185476987Y-107486259D01*
X185580882Y-107236054D01*
X185581118Y-106965135D01*
X185477661Y-106714748D01*
X185286259Y-106523013D01*
X185036054Y-106419118D01*
X184765135Y-106418882D01*
X184514748Y-106522339D01*
X184374959Y-106661885D01*
X184276259Y-106563013D01*
X184026054Y-106459118D01*
X183755135Y-106458882D01*
X183504748Y-106562339D01*
X183405072Y-106661842D01*
X183396259Y-106653013D01*
X183146054Y-106549118D01*
X182875135Y-106548882D01*
X182624748Y-106652339D01*
X182474505Y-106802321D01*
X182417661Y-106664748D01*
X182226259Y-106473013D01*
X181976054Y-106369118D01*
X181705135Y-106368882D01*
X181454748Y-106472339D01*
X181263013Y-106663741D01*
X181159118Y-106913946D01*
X181158882Y-107184865D01*
X137456000Y-107184865D01*
X137456000Y-105174473D01*
X213468847Y-105174473D01*
X213602689Y-105498395D01*
X213850302Y-105746440D01*
X214173989Y-105880847D01*
X214524473Y-105881153D01*
X214848395Y-105747311D01*
X215096440Y-105499698D01*
X215230847Y-105176011D01*
X215230881Y-105136400D01*
X226095536Y-105136400D01*
X226095536Y-106863600D01*
X226122103Y-107004790D01*
X226205546Y-107134465D01*
X226332866Y-107221459D01*
X226484000Y-107252064D01*
X228516000Y-107252064D01*
X228657190Y-107225497D01*
X228786865Y-107142054D01*
X228873859Y-107014734D01*
X228904464Y-106863600D01*
X228904464Y-105136400D01*
X228877897Y-104995210D01*
X228794454Y-104865535D01*
X228667134Y-104778541D01*
X228516000Y-104747936D01*
X226484000Y-104747936D01*
X226342810Y-104774503D01*
X226213135Y-104857946D01*
X226126141Y-104985266D01*
X226095536Y-105136400D01*
X215230881Y-105136400D01*
X215231153Y-104825527D01*
X215097311Y-104501605D01*
X214849698Y-104253560D01*
X214526011Y-104119153D01*
X214175527Y-104118847D01*
X213851605Y-104252689D01*
X213603560Y-104500302D01*
X213469153Y-104823989D01*
X213468847Y-105174473D01*
X137456000Y-105174473D01*
X137456000Y-103956000D01*
X167000000Y-103956000D01*
X167174504Y-103921289D01*
X167322441Y-103822441D01*
X167421289Y-103674504D01*
X167456000Y-103500000D01*
X167456000Y-101134865D01*
X191443882Y-101134865D01*
X191547339Y-101385252D01*
X191738741Y-101576987D01*
X191988946Y-101680882D01*
X192259865Y-101681118D01*
X192500283Y-101581780D01*
X192738946Y-101680882D01*
X193009865Y-101681118D01*
X193146008Y-101624865D01*
X194608882Y-101624865D01*
X194712339Y-101875252D01*
X194903741Y-102066987D01*
X195006988Y-102109859D01*
X194953013Y-102163741D01*
X194849118Y-102413946D01*
X194848882Y-102684865D01*
X194952339Y-102935252D01*
X195143741Y-103126987D01*
X195393946Y-103230882D01*
X195664865Y-103231118D01*
X195915252Y-103127661D01*
X196106987Y-102936259D01*
X196210882Y-102686054D01*
X196211118Y-102415135D01*
X196107661Y-102164748D01*
X195916259Y-101973013D01*
X195813012Y-101930141D01*
X195866987Y-101876259D01*
X195904937Y-101784865D01*
X200788882Y-101784865D01*
X200892339Y-102035252D01*
X201083741Y-102226987D01*
X201333946Y-102330882D01*
X201604865Y-102331118D01*
X201855252Y-102227661D01*
X201975049Y-102108072D01*
X202103741Y-102236987D01*
X202353946Y-102340882D01*
X202624865Y-102341118D01*
X202875252Y-102237661D01*
X203066987Y-102046259D01*
X203170882Y-101796054D01*
X203171118Y-101525135D01*
X203067661Y-101274748D01*
X203048852Y-101255906D01*
X207286205Y-101255906D01*
X207389662Y-101506293D01*
X207581064Y-101698028D01*
X207831269Y-101801923D01*
X208102188Y-101802159D01*
X208352575Y-101698702D01*
X208544310Y-101507300D01*
X208644069Y-101267056D01*
X208882905Y-101168372D01*
X209074640Y-100976970D01*
X209178535Y-100726765D01*
X209178771Y-100455846D01*
X209075314Y-100205459D01*
X208883912Y-100013724D01*
X208633707Y-99909829D01*
X208362788Y-99909593D01*
X208112401Y-100013050D01*
X207920666Y-100204452D01*
X207820907Y-100444696D01*
X207582071Y-100543380D01*
X207390336Y-100734782D01*
X207286441Y-100984987D01*
X207286205Y-101255906D01*
X203048852Y-101255906D01*
X202876259Y-101083013D01*
X202626054Y-100979118D01*
X202355135Y-100978882D01*
X202104748Y-101082339D01*
X201984951Y-101201928D01*
X201856259Y-101073013D01*
X201606054Y-100969118D01*
X201335135Y-100968882D01*
X201084748Y-101072339D01*
X200893013Y-101263741D01*
X200789118Y-101513946D01*
X200788882Y-101784865D01*
X195904937Y-101784865D01*
X195970882Y-101626054D01*
X195971118Y-101355135D01*
X195867661Y-101104748D01*
X195676259Y-100913013D01*
X195426054Y-100809118D01*
X195155135Y-100808882D01*
X194904748Y-100912339D01*
X194713013Y-101103741D01*
X194609118Y-101353946D01*
X194608882Y-101624865D01*
X193146008Y-101624865D01*
X193260252Y-101577661D01*
X193451987Y-101386259D01*
X193555882Y-101136054D01*
X193556118Y-100865135D01*
X193452661Y-100614748D01*
X193261259Y-100423013D01*
X193011054Y-100319118D01*
X192740135Y-100318882D01*
X192499717Y-100418220D01*
X192261054Y-100319118D01*
X191990135Y-100318882D01*
X191739748Y-100422339D01*
X191548013Y-100613741D01*
X191444118Y-100863946D01*
X191443882Y-101134865D01*
X167456000Y-101134865D01*
X167456000Y-98969700D01*
X214953717Y-98969700D01*
X215057174Y-99220087D01*
X215248576Y-99411822D01*
X215488820Y-99511581D01*
X215587504Y-99750417D01*
X215778906Y-99942152D01*
X216029111Y-100046047D01*
X216300030Y-100046283D01*
X216550417Y-99942826D01*
X216742152Y-99751424D01*
X216846047Y-99501219D01*
X216846283Y-99230300D01*
X216742826Y-98979913D01*
X216551424Y-98788178D01*
X216311180Y-98688419D01*
X216212496Y-98449583D01*
X216021094Y-98257848D01*
X215770889Y-98153953D01*
X215499970Y-98153717D01*
X215249583Y-98257174D01*
X215057848Y-98448576D01*
X214953953Y-98698781D01*
X214953717Y-98969700D01*
X167456000Y-98969700D01*
X167456000Y-95454669D01*
X168943864Y-95454669D01*
X169062514Y-95741823D01*
X169282021Y-95961714D01*
X169568968Y-96080864D01*
X169879669Y-96081136D01*
X170166823Y-95962486D01*
X170199865Y-95929502D01*
X170232021Y-95961714D01*
X170518968Y-96080864D01*
X170829669Y-96081136D01*
X171116823Y-95962486D01*
X171320725Y-95758940D01*
X171338741Y-95776987D01*
X171588946Y-95880882D01*
X171859865Y-95881118D01*
X172100283Y-95781780D01*
X172338946Y-95880882D01*
X172609865Y-95881118D01*
X172860252Y-95777661D01*
X173051987Y-95586259D01*
X173143943Y-95364806D01*
X173143882Y-95434865D01*
X173247339Y-95685252D01*
X173438741Y-95876987D01*
X173688946Y-95980882D01*
X173959865Y-95981118D01*
X174200283Y-95881780D01*
X174438946Y-95980882D01*
X174629094Y-95981048D01*
X174628882Y-96224865D01*
X174732339Y-96475252D01*
X174923741Y-96666987D01*
X175173946Y-96770882D01*
X175444865Y-96771118D01*
X175695252Y-96667661D01*
X175863174Y-96500030D01*
X190753717Y-96500030D01*
X190857174Y-96750417D01*
X191048576Y-96942152D01*
X191298781Y-97046047D01*
X191569700Y-97046283D01*
X191820087Y-96942826D01*
X191932567Y-96830541D01*
X200425852Y-96830541D01*
X200529309Y-97080928D01*
X200720711Y-97272663D01*
X200970916Y-97376558D01*
X201241835Y-97376794D01*
X201492222Y-97273337D01*
X201683957Y-97081935D01*
X201689037Y-97069700D01*
X207153717Y-97069700D01*
X207257174Y-97320087D01*
X207448576Y-97511822D01*
X207688820Y-97611581D01*
X207787504Y-97850417D01*
X207978906Y-98042152D01*
X208229111Y-98146047D01*
X208500030Y-98146283D01*
X208750417Y-98042826D01*
X208942152Y-97851424D01*
X209046047Y-97601219D01*
X209046283Y-97330300D01*
X208942826Y-97079913D01*
X208751424Y-96888178D01*
X208511180Y-96788419D01*
X208462127Y-96669700D01*
X214253717Y-96669700D01*
X214357174Y-96920087D01*
X214548576Y-97111822D01*
X214788820Y-97211581D01*
X214887504Y-97450417D01*
X215078906Y-97642152D01*
X215329111Y-97746047D01*
X215600030Y-97746283D01*
X215850417Y-97642826D01*
X216042152Y-97451424D01*
X216146047Y-97201219D01*
X216146283Y-96930300D01*
X216042826Y-96679913D01*
X215851424Y-96488178D01*
X215611180Y-96388419D01*
X215512496Y-96149583D01*
X215321094Y-95957848D01*
X215070889Y-95853953D01*
X214799970Y-95853717D01*
X214549583Y-95957174D01*
X214357848Y-96148576D01*
X214253953Y-96398781D01*
X214253717Y-96669700D01*
X208462127Y-96669700D01*
X208412496Y-96549583D01*
X208221094Y-96357848D01*
X207970889Y-96253953D01*
X207699970Y-96253717D01*
X207449583Y-96357174D01*
X207257848Y-96548576D01*
X207153953Y-96798781D01*
X207153717Y-97069700D01*
X201689037Y-97069700D01*
X201783716Y-96841691D01*
X202022552Y-96743007D01*
X202214287Y-96551605D01*
X202318182Y-96301400D01*
X202318418Y-96030481D01*
X202214961Y-95780094D01*
X202030054Y-95594865D01*
X217413882Y-95594865D01*
X217517339Y-95845252D01*
X217708741Y-96036987D01*
X217958946Y-96140882D01*
X218229865Y-96141118D01*
X218470283Y-96041780D01*
X218708946Y-96140882D01*
X218979865Y-96141118D01*
X219230252Y-96037661D01*
X219386050Y-95882133D01*
X219387339Y-95885252D01*
X219578741Y-96076987D01*
X219828946Y-96180882D01*
X220099865Y-96181118D01*
X220340283Y-96081780D01*
X220578946Y-96180882D01*
X220849865Y-96181118D01*
X221100252Y-96077661D01*
X221291987Y-95886259D01*
X221350917Y-95744341D01*
X221438576Y-95832152D01*
X221688781Y-95936047D01*
X221959700Y-95936283D01*
X222210087Y-95832826D01*
X222401822Y-95641424D01*
X222501581Y-95401180D01*
X222740417Y-95302496D01*
X222932152Y-95111094D01*
X222943043Y-95084865D01*
X223043882Y-95084865D01*
X223147339Y-95335252D01*
X223338741Y-95526987D01*
X223588946Y-95630882D01*
X223859865Y-95631118D01*
X224100283Y-95531780D01*
X224338946Y-95630882D01*
X224609865Y-95631118D01*
X224860252Y-95527661D01*
X225051987Y-95336259D01*
X225119725Y-95173129D01*
X225218576Y-95272152D01*
X225468781Y-95376047D01*
X225739700Y-95376283D01*
X225990087Y-95272826D01*
X226181822Y-95081424D01*
X226281581Y-94841180D01*
X226520417Y-94742496D01*
X226712152Y-94551094D01*
X226816047Y-94300889D01*
X226816283Y-94029970D01*
X226712826Y-93779583D01*
X226521424Y-93587848D01*
X226271219Y-93483953D01*
X226000300Y-93483717D01*
X225749913Y-93587174D01*
X225558178Y-93778576D01*
X225458419Y-94018820D01*
X225219583Y-94117504D01*
X225027848Y-94308906D01*
X224960110Y-94472036D01*
X224861259Y-94373013D01*
X224611054Y-94269118D01*
X224340135Y-94268882D01*
X224099717Y-94368220D01*
X223861054Y-94269118D01*
X223590135Y-94268882D01*
X223339748Y-94372339D01*
X223148013Y-94563741D01*
X223044118Y-94813946D01*
X223043882Y-95084865D01*
X222943043Y-95084865D01*
X223036047Y-94860889D01*
X223036283Y-94589970D01*
X222932826Y-94339583D01*
X222741424Y-94147848D01*
X222491219Y-94043953D01*
X222220300Y-94043717D01*
X221969913Y-94147174D01*
X221778178Y-94338576D01*
X221678419Y-94578820D01*
X221439583Y-94677504D01*
X221247848Y-94868906D01*
X221188918Y-95010824D01*
X221101259Y-94923013D01*
X220851054Y-94819118D01*
X220580135Y-94818882D01*
X220339717Y-94918220D01*
X220101054Y-94819118D01*
X219830135Y-94818882D01*
X219579748Y-94922339D01*
X219423950Y-95077867D01*
X219422661Y-95074748D01*
X219231259Y-94883013D01*
X218981054Y-94779118D01*
X218710135Y-94778882D01*
X218469717Y-94878220D01*
X218231054Y-94779118D01*
X217960135Y-94778882D01*
X217709748Y-94882339D01*
X217518013Y-95073741D01*
X217414118Y-95323946D01*
X217413882Y-95594865D01*
X202030054Y-95594865D01*
X202023559Y-95588359D01*
X201773354Y-95484464D01*
X201502435Y-95484228D01*
X201252048Y-95587685D01*
X201060313Y-95779087D01*
X200960554Y-96019331D01*
X200721718Y-96118015D01*
X200529983Y-96309417D01*
X200426088Y-96559622D01*
X200425852Y-96830541D01*
X191932567Y-96830541D01*
X192011822Y-96751424D01*
X192111581Y-96511180D01*
X192350417Y-96412496D01*
X192542152Y-96221094D01*
X192646047Y-95970889D01*
X192646283Y-95699970D01*
X192542826Y-95449583D01*
X192351424Y-95257848D01*
X192101219Y-95153953D01*
X191830300Y-95153717D01*
X191579913Y-95257174D01*
X191388178Y-95448576D01*
X191288419Y-95688820D01*
X191049583Y-95787504D01*
X190857848Y-95978906D01*
X190753953Y-96229111D01*
X190753717Y-96500030D01*
X175863174Y-96500030D01*
X175886987Y-96476259D01*
X175990882Y-96226054D01*
X175991043Y-96041080D01*
X176034865Y-96041118D01*
X176285252Y-95937661D01*
X176476987Y-95746259D01*
X176520423Y-95641656D01*
X176688820Y-95711581D01*
X176787504Y-95950417D01*
X176978906Y-96142152D01*
X177229111Y-96246047D01*
X177500030Y-96246283D01*
X177750417Y-96142826D01*
X177942152Y-95951424D01*
X178046047Y-95701219D01*
X178046191Y-95534865D01*
X178143882Y-95534865D01*
X178247339Y-95785252D01*
X178438741Y-95976987D01*
X178688946Y-96080882D01*
X178959865Y-96081118D01*
X179200283Y-95981780D01*
X179438946Y-96080882D01*
X179709865Y-96081118D01*
X179960252Y-95977661D01*
X180151987Y-95786259D01*
X180255882Y-95536054D01*
X180256118Y-95265135D01*
X180152661Y-95014748D01*
X180038143Y-94900030D01*
X200453717Y-94900030D01*
X200557174Y-95150417D01*
X200748576Y-95342152D01*
X200998781Y-95446047D01*
X201269700Y-95446283D01*
X201520087Y-95342826D01*
X201711822Y-95151424D01*
X201811581Y-94911180D01*
X202050417Y-94812496D01*
X202242152Y-94621094D01*
X202346047Y-94370889D01*
X202346283Y-94099970D01*
X202242826Y-93849583D01*
X202051424Y-93657848D01*
X201801219Y-93553953D01*
X201530300Y-93553717D01*
X201279913Y-93657174D01*
X201088178Y-93848576D01*
X200988419Y-94088820D01*
X200749583Y-94187504D01*
X200557848Y-94378906D01*
X200453953Y-94629111D01*
X200453717Y-94900030D01*
X180038143Y-94900030D01*
X179961259Y-94823013D01*
X179711054Y-94719118D01*
X179440135Y-94718882D01*
X179199717Y-94818220D01*
X178961054Y-94719118D01*
X178690135Y-94718882D01*
X178439748Y-94822339D01*
X178248013Y-95013741D01*
X178144118Y-95263946D01*
X178143882Y-95534865D01*
X178046191Y-95534865D01*
X178046283Y-95430300D01*
X177942826Y-95179913D01*
X177751424Y-94988178D01*
X177511180Y-94888419D01*
X177412496Y-94649583D01*
X177221094Y-94457848D01*
X176970889Y-94353953D01*
X176699970Y-94353717D01*
X176449583Y-94457174D01*
X176257848Y-94648576D01*
X176214412Y-94753179D01*
X176036054Y-94679118D01*
X175765135Y-94678882D01*
X175514748Y-94782339D01*
X175323013Y-94973741D01*
X175249844Y-95149950D01*
X175152661Y-94914748D01*
X174961259Y-94723013D01*
X174711054Y-94619118D01*
X174440135Y-94618882D01*
X174199717Y-94718220D01*
X173961054Y-94619118D01*
X173690135Y-94618882D01*
X173439748Y-94722339D01*
X173248013Y-94913741D01*
X173156057Y-95135194D01*
X173156118Y-95065135D01*
X173052661Y-94814748D01*
X172861259Y-94623013D01*
X172611054Y-94519118D01*
X172340135Y-94518882D01*
X172099717Y-94618220D01*
X171861054Y-94519118D01*
X171590135Y-94518882D01*
X171339748Y-94622339D01*
X171220697Y-94741183D01*
X171117979Y-94638286D01*
X170831032Y-94519136D01*
X170520331Y-94518864D01*
X170233177Y-94637514D01*
X170200135Y-94670498D01*
X170167979Y-94638286D01*
X169881032Y-94519136D01*
X169570331Y-94518864D01*
X169283177Y-94637514D01*
X169063286Y-94857021D01*
X168944136Y-95143968D01*
X168943864Y-95454669D01*
X167456000Y-95454669D01*
X167456000Y-93224865D01*
X180258882Y-93224865D01*
X180362339Y-93475252D01*
X180553741Y-93666987D01*
X180803946Y-93770882D01*
X181074865Y-93771118D01*
X181325252Y-93667661D01*
X181516987Y-93476259D01*
X181620882Y-93226054D01*
X181621118Y-92955135D01*
X181517661Y-92704748D01*
X181326259Y-92513013D01*
X181076054Y-92409118D01*
X180805135Y-92408882D01*
X180554748Y-92512339D01*
X180363013Y-92703741D01*
X180259118Y-92953946D01*
X180258882Y-93224865D01*
X167456000Y-93224865D01*
X167456000Y-90893629D01*
X227727424Y-90893629D01*
X227846074Y-91180783D01*
X228065581Y-91400674D01*
X228352528Y-91519824D01*
X228663229Y-91520096D01*
X228950383Y-91401446D01*
X229170274Y-91181939D01*
X229289424Y-90894992D01*
X229289696Y-90584291D01*
X229171046Y-90297137D01*
X228951539Y-90077246D01*
X228664592Y-89958096D01*
X228353891Y-89957824D01*
X228066737Y-90076474D01*
X227846846Y-90295981D01*
X227727696Y-90582928D01*
X227727424Y-90893629D01*
X167456000Y-90893629D01*
X167456000Y-89904865D01*
X182758882Y-89904865D01*
X182862339Y-90155252D01*
X183053741Y-90346987D01*
X183303946Y-90450882D01*
X183574865Y-90451118D01*
X183825252Y-90347661D01*
X184016987Y-90156259D01*
X184028702Y-90128046D01*
X184052339Y-90185252D01*
X184243741Y-90376987D01*
X184493946Y-90480882D01*
X184764865Y-90481118D01*
X185015252Y-90377661D01*
X185206987Y-90186259D01*
X185310882Y-89936054D01*
X185310917Y-89894865D01*
X186478882Y-89894865D01*
X186582339Y-90145252D01*
X186773741Y-90336987D01*
X187023946Y-90440882D01*
X187294865Y-90441118D01*
X187545252Y-90337661D01*
X187736987Y-90146259D01*
X187840882Y-89896054D01*
X187840935Y-89834865D01*
X187948882Y-89834865D01*
X188052339Y-90085252D01*
X188243741Y-90276987D01*
X188493946Y-90380882D01*
X188764865Y-90381118D01*
X189015252Y-90277661D01*
X189206987Y-90086259D01*
X189282308Y-89904865D01*
X190288882Y-89904865D01*
X190392339Y-90155252D01*
X190583741Y-90346987D01*
X190833946Y-90450882D01*
X191104865Y-90451118D01*
X191355252Y-90347661D01*
X191546987Y-90156259D01*
X191625934Y-89966135D01*
X191712339Y-90175252D01*
X191903741Y-90366987D01*
X192153946Y-90470882D01*
X192424865Y-90471118D01*
X192675252Y-90367661D01*
X192866987Y-90176259D01*
X192970882Y-89926054D01*
X192970917Y-89884865D01*
X194198882Y-89884865D01*
X194302339Y-90135252D01*
X194493741Y-90326987D01*
X194743946Y-90430882D01*
X195014865Y-90431118D01*
X195265252Y-90327661D01*
X195456987Y-90136259D01*
X195521228Y-89981552D01*
X195572339Y-90105252D01*
X195763741Y-90296987D01*
X196013946Y-90400882D01*
X196284865Y-90401118D01*
X196535252Y-90297661D01*
X196726987Y-90106259D01*
X196798156Y-89934865D01*
X198028882Y-89934865D01*
X198132339Y-90185252D01*
X198323741Y-90376987D01*
X198573946Y-90480882D01*
X198844865Y-90481118D01*
X199095252Y-90377661D01*
X199286987Y-90186259D01*
X199359512Y-90011601D01*
X199402339Y-90115252D01*
X199593741Y-90306987D01*
X199843946Y-90410882D01*
X200114865Y-90411118D01*
X200365252Y-90307661D01*
X200556987Y-90116259D01*
X200644766Y-89904865D01*
X201628882Y-89904865D01*
X201732339Y-90155252D01*
X201923741Y-90346987D01*
X202173946Y-90450882D01*
X202444865Y-90451118D01*
X202695252Y-90347661D01*
X202886987Y-90156259D01*
X202990882Y-89906054D01*
X202990917Y-89864865D01*
X203218882Y-89864865D01*
X203322339Y-90115252D01*
X203513741Y-90306987D01*
X203763946Y-90410882D01*
X204034865Y-90411118D01*
X204285252Y-90307661D01*
X204476987Y-90116259D01*
X204577223Y-89874865D01*
X205568882Y-89874865D01*
X205672339Y-90125252D01*
X205863741Y-90316987D01*
X206113946Y-90420882D01*
X206384865Y-90421118D01*
X206635252Y-90317661D01*
X206826987Y-90126259D01*
X206889696Y-89975240D01*
X206972339Y-90175252D01*
X207163741Y-90366987D01*
X207413946Y-90470882D01*
X207684865Y-90471118D01*
X207935252Y-90367661D01*
X208126987Y-90176259D01*
X208230882Y-89926054D01*
X208230944Y-89854865D01*
X209368882Y-89854865D01*
X209472339Y-90105252D01*
X209663741Y-90296987D01*
X209913946Y-90400882D01*
X210184865Y-90401118D01*
X210435252Y-90297661D01*
X210626987Y-90106259D01*
X210730882Y-89856054D01*
X210730909Y-89824865D01*
X210798882Y-89824865D01*
X210902339Y-90075252D01*
X211093741Y-90266987D01*
X211343946Y-90370882D01*
X211614865Y-90371118D01*
X211865252Y-90267661D01*
X212056987Y-90076259D01*
X212144766Y-89864865D01*
X213308882Y-89864865D01*
X213412339Y-90115252D01*
X213603741Y-90306987D01*
X213853946Y-90410882D01*
X214124865Y-90411118D01*
X214375252Y-90307661D01*
X214566987Y-90116259D01*
X214568347Y-90112984D01*
X214602339Y-90195252D01*
X214793741Y-90386987D01*
X215043946Y-90490882D01*
X215314865Y-90491118D01*
X215565252Y-90387661D01*
X215756987Y-90196259D01*
X215860882Y-89946054D01*
X215860961Y-89854865D01*
X216938882Y-89854865D01*
X217042339Y-90105252D01*
X217233741Y-90296987D01*
X217483946Y-90400882D01*
X217754865Y-90401118D01*
X218005252Y-90297661D01*
X218196987Y-90106259D01*
X218247270Y-89985165D01*
X218342339Y-90215252D01*
X218533741Y-90406987D01*
X218783946Y-90510882D01*
X219054865Y-90511118D01*
X219305252Y-90407661D01*
X219496987Y-90216259D01*
X219600882Y-89966054D01*
X219601118Y-89695135D01*
X219497661Y-89444748D01*
X219306259Y-89253013D01*
X219277830Y-89241208D01*
X224833824Y-89241208D01*
X224988175Y-89614766D01*
X225273731Y-89900821D01*
X225647018Y-90055824D01*
X226051208Y-90056176D01*
X226424766Y-89901825D01*
X226710821Y-89616269D01*
X226865824Y-89242982D01*
X226866176Y-88838792D01*
X226711825Y-88465234D01*
X226426269Y-88179179D01*
X226052982Y-88024176D01*
X225648792Y-88023824D01*
X225275234Y-88178175D01*
X224989179Y-88463731D01*
X224834176Y-88837018D01*
X224833824Y-89241208D01*
X219277830Y-89241208D01*
X219056054Y-89149118D01*
X218785135Y-89148882D01*
X218534748Y-89252339D01*
X218343013Y-89443741D01*
X218292730Y-89564835D01*
X218197661Y-89334748D01*
X218006259Y-89143013D01*
X217756054Y-89039118D01*
X217485135Y-89038882D01*
X217234748Y-89142339D01*
X217043013Y-89333741D01*
X216939118Y-89583946D01*
X216938882Y-89854865D01*
X215860961Y-89854865D01*
X215861118Y-89675135D01*
X215757661Y-89424748D01*
X215566259Y-89233013D01*
X215316054Y-89129118D01*
X215045135Y-89128882D01*
X214794748Y-89232339D01*
X214603013Y-89423741D01*
X214601653Y-89427016D01*
X214567661Y-89344748D01*
X214376259Y-89153013D01*
X214126054Y-89049118D01*
X213855135Y-89048882D01*
X213604748Y-89152339D01*
X213413013Y-89343741D01*
X213309118Y-89593946D01*
X213308882Y-89864865D01*
X212144766Y-89864865D01*
X212160882Y-89826054D01*
X212161118Y-89555135D01*
X212057661Y-89304748D01*
X211866259Y-89113013D01*
X211616054Y-89009118D01*
X211345135Y-89008882D01*
X211094748Y-89112339D01*
X210903013Y-89303741D01*
X210799118Y-89553946D01*
X210798882Y-89824865D01*
X210730909Y-89824865D01*
X210731118Y-89585135D01*
X210627661Y-89334748D01*
X210436259Y-89143013D01*
X210186054Y-89039118D01*
X209915135Y-89038882D01*
X209664748Y-89142339D01*
X209473013Y-89333741D01*
X209369118Y-89583946D01*
X209368882Y-89854865D01*
X208230944Y-89854865D01*
X208231118Y-89655135D01*
X208127661Y-89404748D01*
X207936259Y-89213013D01*
X207686054Y-89109118D01*
X207415135Y-89108882D01*
X207164748Y-89212339D01*
X206973013Y-89403741D01*
X206910304Y-89554760D01*
X206827661Y-89354748D01*
X206636259Y-89163013D01*
X206386054Y-89059118D01*
X206115135Y-89058882D01*
X205864748Y-89162339D01*
X205673013Y-89353741D01*
X205569118Y-89603946D01*
X205568882Y-89874865D01*
X204577223Y-89874865D01*
X204580882Y-89866054D01*
X204581118Y-89595135D01*
X204477661Y-89344748D01*
X204286259Y-89153013D01*
X204036054Y-89049118D01*
X203765135Y-89048882D01*
X203514748Y-89152339D01*
X203323013Y-89343741D01*
X203219118Y-89593946D01*
X203218882Y-89864865D01*
X202990917Y-89864865D01*
X202991118Y-89635135D01*
X202887661Y-89384748D01*
X202696259Y-89193013D01*
X202446054Y-89089118D01*
X202175135Y-89088882D01*
X201924748Y-89192339D01*
X201733013Y-89383741D01*
X201629118Y-89633946D01*
X201628882Y-89904865D01*
X200644766Y-89904865D01*
X200660882Y-89866054D01*
X200661118Y-89595135D01*
X200557661Y-89344748D01*
X200366259Y-89153013D01*
X200116054Y-89049118D01*
X199845135Y-89048882D01*
X199594748Y-89152339D01*
X199403013Y-89343741D01*
X199330488Y-89518399D01*
X199287661Y-89414748D01*
X199096259Y-89223013D01*
X198846054Y-89119118D01*
X198575135Y-89118882D01*
X198324748Y-89222339D01*
X198133013Y-89413741D01*
X198029118Y-89663946D01*
X198028882Y-89934865D01*
X196798156Y-89934865D01*
X196830882Y-89856054D01*
X196831118Y-89585135D01*
X196727661Y-89334748D01*
X196536259Y-89143013D01*
X196286054Y-89039118D01*
X196015135Y-89038882D01*
X195764748Y-89142339D01*
X195573013Y-89333741D01*
X195508772Y-89488448D01*
X195457661Y-89364748D01*
X195266259Y-89173013D01*
X195016054Y-89069118D01*
X194745135Y-89068882D01*
X194494748Y-89172339D01*
X194303013Y-89363741D01*
X194199118Y-89613946D01*
X194198882Y-89884865D01*
X192970917Y-89884865D01*
X192971118Y-89655135D01*
X192867661Y-89404748D01*
X192676259Y-89213013D01*
X192426054Y-89109118D01*
X192155135Y-89108882D01*
X191904748Y-89212339D01*
X191713013Y-89403741D01*
X191634066Y-89593865D01*
X191547661Y-89384748D01*
X191356259Y-89193013D01*
X191106054Y-89089118D01*
X190835135Y-89088882D01*
X190584748Y-89192339D01*
X190393013Y-89383741D01*
X190289118Y-89633946D01*
X190288882Y-89904865D01*
X189282308Y-89904865D01*
X189310882Y-89836054D01*
X189311118Y-89565135D01*
X189207661Y-89314748D01*
X189016259Y-89123013D01*
X188766054Y-89019118D01*
X188495135Y-89018882D01*
X188244748Y-89122339D01*
X188053013Y-89313741D01*
X187949118Y-89563946D01*
X187948882Y-89834865D01*
X187840935Y-89834865D01*
X187841118Y-89625135D01*
X187737661Y-89374748D01*
X187546259Y-89183013D01*
X187296054Y-89079118D01*
X187025135Y-89078882D01*
X186774748Y-89182339D01*
X186583013Y-89373741D01*
X186479118Y-89623946D01*
X186478882Y-89894865D01*
X185310917Y-89894865D01*
X185311118Y-89665135D01*
X185207661Y-89414748D01*
X185016259Y-89223013D01*
X184766054Y-89119118D01*
X184495135Y-89118882D01*
X184244748Y-89222339D01*
X184053013Y-89413741D01*
X184041298Y-89441954D01*
X184017661Y-89384748D01*
X183826259Y-89193013D01*
X183576054Y-89089118D01*
X183305135Y-89088882D01*
X183054748Y-89192339D01*
X182863013Y-89383741D01*
X182759118Y-89633946D01*
X182758882Y-89904865D01*
X167456000Y-89904865D01*
X167456000Y-88684865D01*
X170378882Y-88684865D01*
X170482339Y-88935252D01*
X170673741Y-89126987D01*
X170923946Y-89230882D01*
X171194865Y-89231118D01*
X171445252Y-89127661D01*
X171636987Y-88936259D01*
X171740882Y-88686054D01*
X171741118Y-88415135D01*
X171637661Y-88164748D01*
X171446259Y-87973013D01*
X171196054Y-87869118D01*
X170925135Y-87868882D01*
X170674748Y-87972339D01*
X170483013Y-88163741D01*
X170379118Y-88413946D01*
X170378882Y-88684865D01*
X167456000Y-88684865D01*
X167456000Y-87434865D01*
X181418882Y-87434865D01*
X181522339Y-87685252D01*
X181713741Y-87876987D01*
X181963946Y-87980882D01*
X182234865Y-87981118D01*
X182485252Y-87877661D01*
X182676987Y-87686259D01*
X182750051Y-87510302D01*
X182822339Y-87685252D01*
X183013741Y-87876987D01*
X183263946Y-87980882D01*
X183534865Y-87981118D01*
X183785252Y-87877661D01*
X183976987Y-87686259D01*
X184039851Y-87534865D01*
X185218882Y-87534865D01*
X185322339Y-87785252D01*
X185513741Y-87976987D01*
X185763946Y-88080882D01*
X186034865Y-88081118D01*
X186285252Y-87977661D01*
X186476987Y-87786259D01*
X186550051Y-87610302D01*
X186622339Y-87785252D01*
X186813741Y-87976987D01*
X187063946Y-88080882D01*
X187334865Y-88081118D01*
X187585252Y-87977661D01*
X187776987Y-87786259D01*
X187880882Y-87536054D01*
X187880970Y-87434865D01*
X189118882Y-87434865D01*
X189222339Y-87685252D01*
X189413741Y-87876987D01*
X189663946Y-87980882D01*
X189934865Y-87981118D01*
X190185252Y-87877661D01*
X190376987Y-87686259D01*
X190399928Y-87631012D01*
X190422339Y-87685252D01*
X190613741Y-87876987D01*
X190863946Y-87980882D01*
X191134865Y-87981118D01*
X191385252Y-87877661D01*
X191576987Y-87686259D01*
X191680882Y-87436054D01*
X191680883Y-87434865D01*
X192918882Y-87434865D01*
X193022339Y-87685252D01*
X193213741Y-87876987D01*
X193463946Y-87980882D01*
X193734865Y-87981118D01*
X193985252Y-87877661D01*
X194176987Y-87686259D01*
X194199928Y-87631012D01*
X194222339Y-87685252D01*
X194413741Y-87876987D01*
X194663946Y-87980882D01*
X194934865Y-87981118D01*
X195185252Y-87877661D01*
X195376987Y-87686259D01*
X195480882Y-87436054D01*
X195480883Y-87434865D01*
X196718882Y-87434865D01*
X196822339Y-87685252D01*
X197013741Y-87876987D01*
X197263946Y-87980882D01*
X197534865Y-87981118D01*
X197785252Y-87877661D01*
X197976987Y-87686259D01*
X198029341Y-87560178D01*
X198122339Y-87785252D01*
X198313741Y-87976987D01*
X198563946Y-88080882D01*
X198834865Y-88081118D01*
X199085252Y-87977661D01*
X199276987Y-87786259D01*
X199380882Y-87536054D01*
X199380883Y-87534865D01*
X200418882Y-87534865D01*
X200522339Y-87785252D01*
X200713741Y-87976987D01*
X200963946Y-88080882D01*
X201234865Y-88081118D01*
X201485252Y-87977661D01*
X201676987Y-87786259D01*
X201780882Y-87536054D01*
X201780970Y-87434865D01*
X201818882Y-87434865D01*
X201922339Y-87685252D01*
X202113741Y-87876987D01*
X202363946Y-87980882D01*
X202634865Y-87981118D01*
X202885252Y-87877661D01*
X203076987Y-87686259D01*
X203180882Y-87436054D01*
X203180883Y-87434865D01*
X204318882Y-87434865D01*
X204422339Y-87685252D01*
X204613741Y-87876987D01*
X204863946Y-87980882D01*
X205134865Y-87981118D01*
X205385252Y-87877661D01*
X205576987Y-87686259D01*
X205629341Y-87560178D01*
X205722339Y-87785252D01*
X205913741Y-87976987D01*
X206163946Y-88080882D01*
X206434865Y-88081118D01*
X206685252Y-87977661D01*
X206876987Y-87786259D01*
X206980882Y-87536054D01*
X206980970Y-87434865D01*
X208118882Y-87434865D01*
X208222339Y-87685252D01*
X208413741Y-87876987D01*
X208663946Y-87980882D01*
X208934865Y-87981118D01*
X209185252Y-87877661D01*
X209376987Y-87686259D01*
X209429341Y-87560178D01*
X209522339Y-87785252D01*
X209713741Y-87976987D01*
X209963946Y-88080882D01*
X210234865Y-88081118D01*
X210485252Y-87977661D01*
X210676987Y-87786259D01*
X210780882Y-87536054D01*
X210781118Y-87265135D01*
X210756216Y-87204865D01*
X211958882Y-87204865D01*
X212062339Y-87455252D01*
X212253741Y-87646987D01*
X212503946Y-87750882D01*
X212774865Y-87751118D01*
X213025252Y-87647661D01*
X213199660Y-87473556D01*
X213262339Y-87625252D01*
X213453741Y-87816987D01*
X213703946Y-87920882D01*
X213974865Y-87921118D01*
X214225252Y-87817661D01*
X214416987Y-87626259D01*
X214500613Y-87424865D01*
X215678882Y-87424865D01*
X215782339Y-87675252D01*
X215973741Y-87866987D01*
X216223946Y-87970882D01*
X216494865Y-87971118D01*
X216745252Y-87867661D01*
X216936987Y-87676259D01*
X217039256Y-87429971D01*
X217132339Y-87655252D01*
X217323741Y-87846987D01*
X217573946Y-87950882D01*
X217844865Y-87951118D01*
X218095252Y-87847661D01*
X218286987Y-87656259D01*
X218390882Y-87406054D01*
X218391118Y-87135135D01*
X218287661Y-86884748D01*
X218096259Y-86693013D01*
X217846054Y-86589118D01*
X217575135Y-86588882D01*
X217324748Y-86692339D01*
X217133013Y-86883741D01*
X217030744Y-87130029D01*
X216937661Y-86904748D01*
X216746259Y-86713013D01*
X216496054Y-86609118D01*
X216225135Y-86608882D01*
X215974748Y-86712339D01*
X215783013Y-86903741D01*
X215679118Y-87153946D01*
X215678882Y-87424865D01*
X214500613Y-87424865D01*
X214520882Y-87376054D01*
X214521118Y-87105135D01*
X214417661Y-86854748D01*
X214226259Y-86663013D01*
X213976054Y-86559118D01*
X213705135Y-86558882D01*
X213454748Y-86662339D01*
X213280340Y-86836444D01*
X213217661Y-86684748D01*
X213026259Y-86493013D01*
X212776054Y-86389118D01*
X212505135Y-86388882D01*
X212254748Y-86492339D01*
X212063013Y-86683741D01*
X211959118Y-86933946D01*
X211958882Y-87204865D01*
X210756216Y-87204865D01*
X210677661Y-87014748D01*
X210486259Y-86823013D01*
X210236054Y-86719118D01*
X209965135Y-86718882D01*
X209714748Y-86822339D01*
X209523013Y-87013741D01*
X209470659Y-87139822D01*
X209377661Y-86914748D01*
X209186259Y-86723013D01*
X208936054Y-86619118D01*
X208665135Y-86618882D01*
X208414748Y-86722339D01*
X208223013Y-86913741D01*
X208119118Y-87163946D01*
X208118882Y-87434865D01*
X206980970Y-87434865D01*
X206981118Y-87265135D01*
X206877661Y-87014748D01*
X206686259Y-86823013D01*
X206436054Y-86719118D01*
X206165135Y-86718882D01*
X205914748Y-86822339D01*
X205723013Y-87013741D01*
X205670659Y-87139822D01*
X205577661Y-86914748D01*
X205386259Y-86723013D01*
X205136054Y-86619118D01*
X204865135Y-86618882D01*
X204614748Y-86722339D01*
X204423013Y-86913741D01*
X204319118Y-87163946D01*
X204318882Y-87434865D01*
X203180883Y-87434865D01*
X203181118Y-87165135D01*
X203077661Y-86914748D01*
X202886259Y-86723013D01*
X202636054Y-86619118D01*
X202365135Y-86618882D01*
X202114748Y-86722339D01*
X201923013Y-86913741D01*
X201819118Y-87163946D01*
X201818882Y-87434865D01*
X201780970Y-87434865D01*
X201781118Y-87265135D01*
X201677661Y-87014748D01*
X201486259Y-86823013D01*
X201236054Y-86719118D01*
X200965135Y-86718882D01*
X200714748Y-86822339D01*
X200523013Y-87013741D01*
X200419118Y-87263946D01*
X200418882Y-87534865D01*
X199380883Y-87534865D01*
X199381118Y-87265135D01*
X199277661Y-87014748D01*
X199086259Y-86823013D01*
X198836054Y-86719118D01*
X198565135Y-86718882D01*
X198314748Y-86822339D01*
X198123013Y-87013741D01*
X198070659Y-87139822D01*
X197977661Y-86914748D01*
X197786259Y-86723013D01*
X197536054Y-86619118D01*
X197265135Y-86618882D01*
X197014748Y-86722339D01*
X196823013Y-86913741D01*
X196719118Y-87163946D01*
X196718882Y-87434865D01*
X195480883Y-87434865D01*
X195481118Y-87165135D01*
X195377661Y-86914748D01*
X195186259Y-86723013D01*
X194936054Y-86619118D01*
X194665135Y-86618882D01*
X194414748Y-86722339D01*
X194223013Y-86913741D01*
X194200072Y-86968988D01*
X194177661Y-86914748D01*
X193986259Y-86723013D01*
X193736054Y-86619118D01*
X193465135Y-86618882D01*
X193214748Y-86722339D01*
X193023013Y-86913741D01*
X192919118Y-87163946D01*
X192918882Y-87434865D01*
X191680883Y-87434865D01*
X191681118Y-87165135D01*
X191577661Y-86914748D01*
X191386259Y-86723013D01*
X191136054Y-86619118D01*
X190865135Y-86618882D01*
X190614748Y-86722339D01*
X190423013Y-86913741D01*
X190400072Y-86968988D01*
X190377661Y-86914748D01*
X190186259Y-86723013D01*
X189936054Y-86619118D01*
X189665135Y-86618882D01*
X189414748Y-86722339D01*
X189223013Y-86913741D01*
X189119118Y-87163946D01*
X189118882Y-87434865D01*
X187880970Y-87434865D01*
X187881118Y-87265135D01*
X187777661Y-87014748D01*
X187586259Y-86823013D01*
X187336054Y-86719118D01*
X187065135Y-86718882D01*
X186814748Y-86822339D01*
X186623013Y-87013741D01*
X186549949Y-87189698D01*
X186477661Y-87014748D01*
X186286259Y-86823013D01*
X186036054Y-86719118D01*
X185765135Y-86718882D01*
X185514748Y-86822339D01*
X185323013Y-87013741D01*
X185219118Y-87263946D01*
X185218882Y-87534865D01*
X184039851Y-87534865D01*
X184080882Y-87436054D01*
X184081118Y-87165135D01*
X183977661Y-86914748D01*
X183786259Y-86723013D01*
X183536054Y-86619118D01*
X183265135Y-86618882D01*
X183014748Y-86722339D01*
X182823013Y-86913741D01*
X182749949Y-87089698D01*
X182677661Y-86914748D01*
X182486259Y-86723013D01*
X182236054Y-86619118D01*
X181965135Y-86618882D01*
X181714748Y-86722339D01*
X181523013Y-86913741D01*
X181419118Y-87163946D01*
X181418882Y-87434865D01*
X167456000Y-87434865D01*
X167456000Y-86191208D01*
X170453824Y-86191208D01*
X170608175Y-86564766D01*
X170893731Y-86850821D01*
X171267018Y-87005824D01*
X171671208Y-87006176D01*
X172044766Y-86851825D01*
X172330821Y-86566269D01*
X172485824Y-86192982D01*
X172485892Y-86114865D01*
X180308882Y-86114865D01*
X180412339Y-86365252D01*
X180603741Y-86556987D01*
X180853946Y-86660882D01*
X181124865Y-86661118D01*
X181375252Y-86557661D01*
X181566987Y-86366259D01*
X181670882Y-86116054D01*
X181671118Y-85845135D01*
X181567661Y-85594748D01*
X181376259Y-85403013D01*
X181126054Y-85299118D01*
X180855135Y-85298882D01*
X180604748Y-85402339D01*
X180413013Y-85593741D01*
X180309118Y-85843946D01*
X180308882Y-86114865D01*
X172485892Y-86114865D01*
X172486176Y-85788792D01*
X172331825Y-85415234D01*
X172046269Y-85129179D01*
X171672982Y-84974176D01*
X171268792Y-84973824D01*
X170895234Y-85128175D01*
X170609179Y-85413731D01*
X170454176Y-85787018D01*
X170453824Y-86191208D01*
X167456000Y-86191208D01*
X167456000Y-84726509D01*
X225682724Y-84726509D01*
X225801374Y-85013663D01*
X226020881Y-85233554D01*
X226307828Y-85352704D01*
X226618529Y-85352976D01*
X226905683Y-85234326D01*
X227125574Y-85014819D01*
X227244724Y-84727872D01*
X227244996Y-84417171D01*
X227126346Y-84130017D01*
X226906839Y-83910126D01*
X226619892Y-83790976D01*
X226309191Y-83790704D01*
X226022037Y-83909354D01*
X225802146Y-84128861D01*
X225682996Y-84415808D01*
X225682724Y-84726509D01*
X167456000Y-84726509D01*
X167456000Y-83634865D01*
X182718882Y-83634865D01*
X182822339Y-83885252D01*
X183013741Y-84076987D01*
X183263946Y-84180882D01*
X183534865Y-84181118D01*
X183785252Y-84077661D01*
X183909339Y-83953789D01*
X183922339Y-83985252D01*
X184113741Y-84176987D01*
X184363946Y-84280882D01*
X184634865Y-84281118D01*
X184885252Y-84177661D01*
X185076987Y-83986259D01*
X185180882Y-83736054D01*
X185180970Y-83634865D01*
X186618882Y-83634865D01*
X186722339Y-83885252D01*
X186913741Y-84076987D01*
X187163946Y-84180882D01*
X187434865Y-84181118D01*
X187685252Y-84077661D01*
X187876987Y-83886259D01*
X187899928Y-83831012D01*
X187922339Y-83885252D01*
X188113741Y-84076987D01*
X188363946Y-84180882D01*
X188634865Y-84181118D01*
X188885252Y-84077661D01*
X189076987Y-83886259D01*
X189180882Y-83636054D01*
X189181118Y-83365135D01*
X189077661Y-83114748D01*
X188886259Y-82923013D01*
X188636054Y-82819118D01*
X188365135Y-82818882D01*
X188114748Y-82922339D01*
X187923013Y-83113741D01*
X187900072Y-83168988D01*
X187877661Y-83114748D01*
X187686259Y-82923013D01*
X187436054Y-82819118D01*
X187165135Y-82818882D01*
X186914748Y-82922339D01*
X186723013Y-83113741D01*
X186619118Y-83363946D01*
X186618882Y-83634865D01*
X185180970Y-83634865D01*
X185181118Y-83465135D01*
X185077661Y-83214748D01*
X184886259Y-83023013D01*
X184636054Y-82919118D01*
X184365135Y-82918882D01*
X184114748Y-83022339D01*
X183990661Y-83146211D01*
X183977661Y-83114748D01*
X183786259Y-82923013D01*
X183536054Y-82819118D01*
X183265135Y-82818882D01*
X183014748Y-82922339D01*
X182823013Y-83113741D01*
X182719118Y-83363946D01*
X182718882Y-83634865D01*
X167456000Y-83634865D01*
X167456000Y-82334865D01*
X184118882Y-82334865D01*
X184222339Y-82585252D01*
X184413741Y-82776987D01*
X184663946Y-82880882D01*
X184934865Y-82881118D01*
X185185252Y-82777661D01*
X185376987Y-82586259D01*
X185399928Y-82531012D01*
X185422339Y-82585252D01*
X185613741Y-82776987D01*
X185863946Y-82880882D01*
X186134865Y-82881118D01*
X186385252Y-82777661D01*
X186576987Y-82586259D01*
X186680882Y-82336054D01*
X186680883Y-82334865D01*
X189218882Y-82334865D01*
X189322339Y-82585252D01*
X189513741Y-82776987D01*
X189763946Y-82880882D01*
X190034865Y-82881118D01*
X190285252Y-82777661D01*
X190476987Y-82586259D01*
X190499928Y-82531012D01*
X190522339Y-82585252D01*
X190713741Y-82776987D01*
X190839822Y-82829341D01*
X190614748Y-82922339D01*
X190423013Y-83113741D01*
X190319118Y-83363946D01*
X190318882Y-83634865D01*
X190422339Y-83885252D01*
X190613741Y-84076987D01*
X190863946Y-84180882D01*
X191134865Y-84181118D01*
X191385252Y-84077661D01*
X191576987Y-83886259D01*
X191599928Y-83831012D01*
X191622339Y-83885252D01*
X191813741Y-84076987D01*
X192063946Y-84180882D01*
X192334865Y-84181118D01*
X192585252Y-84077661D01*
X192776987Y-83886259D01*
X192880882Y-83636054D01*
X192880883Y-83634865D01*
X192918882Y-83634865D01*
X193022339Y-83885252D01*
X193213741Y-84076987D01*
X193463946Y-84180882D01*
X193734865Y-84181118D01*
X193985252Y-84077661D01*
X194176987Y-83886259D01*
X194250051Y-83710302D01*
X194322339Y-83885252D01*
X194513741Y-84076987D01*
X194763946Y-84180882D01*
X195034865Y-84181118D01*
X195285252Y-84077661D01*
X195476987Y-83886259D01*
X195580882Y-83636054D01*
X195581118Y-83365135D01*
X195477661Y-83114748D01*
X195286259Y-82923013D01*
X195036054Y-82819118D01*
X194765135Y-82818882D01*
X194514748Y-82922339D01*
X194323013Y-83113741D01*
X194249949Y-83289698D01*
X194177661Y-83114748D01*
X193986259Y-82923013D01*
X193736054Y-82819118D01*
X193465135Y-82818882D01*
X193214748Y-82922339D01*
X193023013Y-83113741D01*
X192919118Y-83363946D01*
X192918882Y-83634865D01*
X192880883Y-83634865D01*
X192881118Y-83365135D01*
X192777661Y-83114748D01*
X192586259Y-82923013D01*
X192336054Y-82819118D01*
X192065135Y-82818882D01*
X191814748Y-82922339D01*
X191623013Y-83113741D01*
X191600072Y-83168988D01*
X191577661Y-83114748D01*
X191386259Y-82923013D01*
X191260178Y-82870659D01*
X191485252Y-82777661D01*
X191676987Y-82586259D01*
X191780882Y-82336054D01*
X191780883Y-82334865D01*
X195418882Y-82334865D01*
X195522339Y-82585252D01*
X195713741Y-82776987D01*
X195963946Y-82880882D01*
X196234865Y-82881118D01*
X196485252Y-82777661D01*
X196676987Y-82586259D01*
X196750051Y-82410302D01*
X196822339Y-82585252D01*
X197013741Y-82776987D01*
X197189698Y-82850051D01*
X197014748Y-82922339D01*
X196823013Y-83113741D01*
X196719118Y-83363946D01*
X196718882Y-83634865D01*
X196822339Y-83885252D01*
X197013741Y-84076987D01*
X197263946Y-84180882D01*
X197534865Y-84181118D01*
X197785252Y-84077661D01*
X197976987Y-83886259D01*
X198050051Y-83710302D01*
X198122339Y-83885252D01*
X198313741Y-84076987D01*
X198563946Y-84180882D01*
X198834865Y-84181118D01*
X199085252Y-84077661D01*
X199276987Y-83886259D01*
X199323242Y-83774865D01*
X209598882Y-83774865D01*
X209702339Y-84025252D01*
X209893741Y-84216987D01*
X210143946Y-84320882D01*
X210414865Y-84321118D01*
X210665252Y-84217661D01*
X210856987Y-84026259D01*
X210920433Y-83873465D01*
X211043741Y-83996987D01*
X211293946Y-84100882D01*
X211564865Y-84101118D01*
X211815252Y-83997661D01*
X212006987Y-83806259D01*
X212110882Y-83556054D01*
X212111118Y-83285135D01*
X212007661Y-83034748D01*
X211816259Y-82843013D01*
X211566054Y-82739118D01*
X211295135Y-82738882D01*
X211044748Y-82842339D01*
X210853013Y-83033741D01*
X210789567Y-83186535D01*
X210666259Y-83063013D01*
X210416054Y-82959118D01*
X210145135Y-82958882D01*
X209894748Y-83062339D01*
X209703013Y-83253741D01*
X209599118Y-83503946D01*
X209598882Y-83774865D01*
X199323242Y-83774865D01*
X199380882Y-83636054D01*
X199381118Y-83365135D01*
X199277661Y-83114748D01*
X199086259Y-82923013D01*
X198836054Y-82819118D01*
X198565135Y-82818882D01*
X198314748Y-82922339D01*
X198123013Y-83113741D01*
X198049949Y-83289698D01*
X197977661Y-83114748D01*
X197786259Y-82923013D01*
X197610302Y-82849949D01*
X197785252Y-82777661D01*
X197976987Y-82586259D01*
X198080882Y-82336054D01*
X198080883Y-82334865D01*
X200518882Y-82334865D01*
X200622339Y-82585252D01*
X200813741Y-82776987D01*
X201063946Y-82880882D01*
X201334865Y-82881118D01*
X201585252Y-82777661D01*
X201776987Y-82586259D01*
X201850051Y-82410302D01*
X201922339Y-82585252D01*
X202113741Y-82776987D01*
X202363946Y-82880882D01*
X202634865Y-82881118D01*
X202885252Y-82777661D01*
X203076987Y-82586259D01*
X203180882Y-82336054D01*
X203180883Y-82334865D01*
X205618882Y-82334865D01*
X205722339Y-82585252D01*
X205913741Y-82776987D01*
X206163946Y-82880882D01*
X206434865Y-82881118D01*
X206685252Y-82777661D01*
X206876987Y-82586259D01*
X206950051Y-82410302D01*
X207022339Y-82585252D01*
X207213741Y-82776987D01*
X207463946Y-82880882D01*
X207734865Y-82881118D01*
X207985252Y-82777661D01*
X208176987Y-82586259D01*
X208280882Y-82336054D01*
X208281118Y-82065135D01*
X208177661Y-81814748D01*
X207986259Y-81623013D01*
X207736054Y-81519118D01*
X207465135Y-81518882D01*
X207214748Y-81622339D01*
X207023013Y-81813741D01*
X206949949Y-81989698D01*
X206877661Y-81814748D01*
X206686259Y-81623013D01*
X206436054Y-81519118D01*
X206165135Y-81518882D01*
X205914748Y-81622339D01*
X205723013Y-81813741D01*
X205619118Y-82063946D01*
X205618882Y-82334865D01*
X203180883Y-82334865D01*
X203181118Y-82065135D01*
X203077661Y-81814748D01*
X202886259Y-81623013D01*
X202636054Y-81519118D01*
X202365135Y-81518882D01*
X202114748Y-81622339D01*
X201923013Y-81813741D01*
X201849949Y-81989698D01*
X201777661Y-81814748D01*
X201586259Y-81623013D01*
X201336054Y-81519118D01*
X201065135Y-81518882D01*
X200814748Y-81622339D01*
X200623013Y-81813741D01*
X200519118Y-82063946D01*
X200518882Y-82334865D01*
X198080883Y-82334865D01*
X198081118Y-82065135D01*
X197977661Y-81814748D01*
X197786259Y-81623013D01*
X197536054Y-81519118D01*
X197265135Y-81518882D01*
X197014748Y-81622339D01*
X196823013Y-81813741D01*
X196749949Y-81989698D01*
X196677661Y-81814748D01*
X196486259Y-81623013D01*
X196236054Y-81519118D01*
X195965135Y-81518882D01*
X195714748Y-81622339D01*
X195523013Y-81813741D01*
X195419118Y-82063946D01*
X195418882Y-82334865D01*
X191780883Y-82334865D01*
X191781118Y-82065135D01*
X191677661Y-81814748D01*
X191486259Y-81623013D01*
X191236054Y-81519118D01*
X190965135Y-81518882D01*
X190714748Y-81622339D01*
X190523013Y-81813741D01*
X190500072Y-81868988D01*
X190477661Y-81814748D01*
X190286259Y-81623013D01*
X190036054Y-81519118D01*
X189765135Y-81518882D01*
X189514748Y-81622339D01*
X189323013Y-81813741D01*
X189219118Y-82063946D01*
X189218882Y-82334865D01*
X186680883Y-82334865D01*
X186681118Y-82065135D01*
X186577661Y-81814748D01*
X186386259Y-81623013D01*
X186136054Y-81519118D01*
X185865135Y-81518882D01*
X185614748Y-81622339D01*
X185423013Y-81813741D01*
X185400072Y-81868988D01*
X185377661Y-81814748D01*
X185186259Y-81623013D01*
X184936054Y-81519118D01*
X184665135Y-81518882D01*
X184414748Y-81622339D01*
X184223013Y-81813741D01*
X184119118Y-82063946D01*
X184118882Y-82334865D01*
X167456000Y-82334865D01*
X167456000Y-74956000D01*
X229544000Y-74956000D01*
X229544000Y-136000000D01*
M02*
