G04 #@! TF.FileFunction,Legend,Top*
%FSLAX46Y46*%
G04 Gerber Fmt 4.6, Leading zero omitted, Abs format (unit mm)*
G04 Created by KiCad (PCBNEW 4.0.4-stable) date Mon Nov 14 15:58:05 2016*
%MOMM*%
%LPD*%
G01*
G04 APERTURE LIST*
%ADD10C,0.100000*%
%ADD11C,0.300000*%
%ADD12C,0.150000*%
G04 APERTURE END LIST*
D10*
D11*
X209250000Y-149303571D02*
X209250000Y-150303571D01*
X208892857Y-148732143D02*
X208535714Y-149803571D01*
X209464286Y-149803571D01*
X210035714Y-150303571D02*
X210035714Y-148803571D01*
X210178571Y-149732143D02*
X210607142Y-150303571D01*
X210607142Y-149303571D02*
X210035714Y-149875000D01*
X213107143Y-150303571D02*
X212392857Y-150303571D01*
X212392857Y-148803571D01*
X214464286Y-150160714D02*
X214392857Y-150232143D01*
X214178571Y-150303571D01*
X214035714Y-150303571D01*
X213821429Y-150232143D01*
X213678571Y-150089286D01*
X213607143Y-149946429D01*
X213535714Y-149660714D01*
X213535714Y-149446429D01*
X213607143Y-149160714D01*
X213678571Y-149017857D01*
X213821429Y-148875000D01*
X214035714Y-148803571D01*
X214178571Y-148803571D01*
X214392857Y-148875000D01*
X214464286Y-148946429D01*
X215107143Y-150303571D02*
X215107143Y-148803571D01*
X215464286Y-148803571D01*
X215678571Y-148875000D01*
X215821429Y-149017857D01*
X215892857Y-149160714D01*
X215964286Y-149446429D01*
X215964286Y-149660714D01*
X215892857Y-149946429D01*
X215821429Y-150089286D01*
X215678571Y-150232143D01*
X215464286Y-150303571D01*
X215107143Y-150303571D01*
X216607143Y-149732143D02*
X217750000Y-149732143D01*
X217178571Y-150303571D02*
X217178571Y-149160714D01*
X219321429Y-150160714D02*
X219250000Y-150232143D01*
X219035714Y-150303571D01*
X218892857Y-150303571D01*
X218678572Y-150232143D01*
X218535714Y-150089286D01*
X218464286Y-149946429D01*
X218392857Y-149660714D01*
X218392857Y-149446429D01*
X218464286Y-149160714D01*
X218535714Y-149017857D01*
X218678572Y-148875000D01*
X218892857Y-148803571D01*
X219035714Y-148803571D01*
X219250000Y-148875000D01*
X219321429Y-148946429D01*
X220607143Y-150303571D02*
X220607143Y-149517857D01*
X220535714Y-149375000D01*
X220392857Y-149303571D01*
X220107143Y-149303571D01*
X219964286Y-149375000D01*
X220607143Y-150232143D02*
X220464286Y-150303571D01*
X220107143Y-150303571D01*
X219964286Y-150232143D01*
X219892857Y-150089286D01*
X219892857Y-149946429D01*
X219964286Y-149803571D01*
X220107143Y-149732143D01*
X220464286Y-149732143D01*
X220607143Y-149660714D01*
X221321429Y-150303571D02*
X221321429Y-149303571D01*
X221321429Y-149446429D02*
X221392857Y-149375000D01*
X221535715Y-149303571D01*
X221750000Y-149303571D01*
X221892857Y-149375000D01*
X221964286Y-149517857D01*
X221964286Y-150303571D01*
X221964286Y-149517857D02*
X222035715Y-149375000D01*
X222178572Y-149303571D01*
X222392857Y-149303571D01*
X222535715Y-149375000D01*
X222607143Y-149517857D01*
X222607143Y-150303571D01*
X223892857Y-150232143D02*
X223750000Y-150303571D01*
X223464286Y-150303571D01*
X223321429Y-150232143D01*
X223250000Y-150089286D01*
X223250000Y-149517857D01*
X223321429Y-149375000D01*
X223464286Y-149303571D01*
X223750000Y-149303571D01*
X223892857Y-149375000D01*
X223964286Y-149517857D01*
X223964286Y-149660714D01*
X223250000Y-149803571D01*
X224607143Y-150303571D02*
X224607143Y-149303571D01*
X224607143Y-149589286D02*
X224678571Y-149446429D01*
X224750000Y-149375000D01*
X224892857Y-149303571D01*
X225035714Y-149303571D01*
X226178571Y-150303571D02*
X226178571Y-149517857D01*
X226107142Y-149375000D01*
X225964285Y-149303571D01*
X225678571Y-149303571D01*
X225535714Y-149375000D01*
X226178571Y-150232143D02*
X226035714Y-150303571D01*
X225678571Y-150303571D01*
X225535714Y-150232143D01*
X225464285Y-150089286D01*
X225464285Y-149946429D01*
X225535714Y-149803571D01*
X225678571Y-149732143D01*
X226035714Y-149732143D01*
X226178571Y-149660714D01*
X226821428Y-150232143D02*
X226964285Y-150303571D01*
X227250000Y-150303571D01*
X227392857Y-150232143D01*
X227464285Y-150089286D01*
X227464285Y-150017857D01*
X227392857Y-149875000D01*
X227250000Y-149803571D01*
X227035714Y-149803571D01*
X226892857Y-149732143D01*
X226821428Y-149589286D01*
X226821428Y-149517857D01*
X226892857Y-149375000D01*
X227035714Y-149303571D01*
X227250000Y-149303571D01*
X227392857Y-149375000D01*
X214892858Y-152853571D02*
X214392858Y-152139286D01*
X214035715Y-152853571D02*
X214035715Y-151353571D01*
X214607143Y-151353571D01*
X214750001Y-151425000D01*
X214821429Y-151496429D01*
X214892858Y-151639286D01*
X214892858Y-151853571D01*
X214821429Y-151996429D01*
X214750001Y-152067857D01*
X214607143Y-152139286D01*
X214035715Y-152139286D01*
X216107143Y-152782143D02*
X215964286Y-152853571D01*
X215678572Y-152853571D01*
X215535715Y-152782143D01*
X215464286Y-152639286D01*
X215464286Y-152067857D01*
X215535715Y-151925000D01*
X215678572Y-151853571D01*
X215964286Y-151853571D01*
X216107143Y-151925000D01*
X216178572Y-152067857D01*
X216178572Y-152210714D01*
X215464286Y-152353571D01*
X216678572Y-151853571D02*
X217035715Y-152853571D01*
X217392857Y-151853571D01*
X219892857Y-152853571D02*
X219035714Y-152853571D01*
X219464286Y-152853571D02*
X219464286Y-151353571D01*
X219321429Y-151567857D01*
X219178571Y-151710714D01*
X219035714Y-151782143D01*
X220535714Y-152710714D02*
X220607142Y-152782143D01*
X220535714Y-152853571D01*
X220464285Y-152782143D01*
X220535714Y-152710714D01*
X220535714Y-152853571D01*
X221178571Y-151496429D02*
X221250000Y-151425000D01*
X221392857Y-151353571D01*
X221750000Y-151353571D01*
X221892857Y-151425000D01*
X221964286Y-151496429D01*
X222035714Y-151639286D01*
X222035714Y-151782143D01*
X221964286Y-151996429D01*
X221107143Y-152853571D01*
X222035714Y-152853571D01*
D12*
X199500000Y-112700000D02*
X199500000Y-112300000D01*
X197500000Y-113500000D02*
X199500000Y-113500000D01*
X197500000Y-112300000D02*
X197500000Y-112700000D01*
X197500000Y-101700000D02*
X197500000Y-101300000D01*
X199500000Y-101700000D02*
X199500000Y-101300000D01*
X197500000Y-100500000D02*
X199500000Y-100500000D01*
X167750000Y-164200000D02*
X188250000Y-164200000D01*
X188250000Y-164200000D02*
X188250000Y-162600000D01*
X167750000Y-164200000D02*
X167750000Y-162600000D01*
X198225000Y-86450000D02*
X198225000Y-85950000D01*
X197175000Y-85950000D02*
X197175000Y-86450000D01*
X193995000Y-90830000D02*
X193995000Y-91330000D01*
X195045000Y-91330000D02*
X195045000Y-90830000D01*
X213900000Y-124080000D02*
X212900000Y-124080000D01*
X212900000Y-125780000D02*
X213900000Y-125780000D01*
X187750000Y-128750000D02*
X188750000Y-128750000D01*
X188750000Y-127050000D02*
X187750000Y-127050000D01*
X195990000Y-127505000D02*
X195490000Y-127505000D01*
X195490000Y-128455000D02*
X195990000Y-128455000D01*
X218525000Y-129580000D02*
X218525000Y-130080000D01*
X219475000Y-130080000D02*
X219475000Y-129580000D01*
X219025000Y-135500000D02*
X219025000Y-133500000D01*
X216975000Y-133500000D02*
X216975000Y-135500000D01*
X193410000Y-121690000D02*
X194410000Y-121690000D01*
X194410000Y-119990000D02*
X193410000Y-119990000D01*
X193670000Y-130300000D02*
X193670000Y-131300000D01*
X195370000Y-131300000D02*
X195370000Y-130300000D01*
X183295000Y-90710000D02*
X183295000Y-91210000D01*
X184345000Y-91210000D02*
X184345000Y-90710000D01*
X184595000Y-90710000D02*
X184595000Y-91210000D01*
X185645000Y-91210000D02*
X185645000Y-90710000D01*
X186495000Y-90710000D02*
X186495000Y-91210000D01*
X187545000Y-91210000D02*
X187545000Y-90710000D01*
X187795000Y-90710000D02*
X187795000Y-91210000D01*
X188845000Y-91210000D02*
X188845000Y-90710000D01*
X213425000Y-86350000D02*
X213425000Y-85850000D01*
X212375000Y-85850000D02*
X212375000Y-86350000D01*
X214725000Y-86350000D02*
X214725000Y-85850000D01*
X213675000Y-85850000D02*
X213675000Y-86350000D01*
X216525000Y-86350000D02*
X216525000Y-85850000D01*
X215475000Y-85850000D02*
X215475000Y-86350000D01*
X217825000Y-86350000D02*
X217825000Y-85850000D01*
X216775000Y-85850000D02*
X216775000Y-86350000D01*
X213775000Y-90750000D02*
X213775000Y-91250000D01*
X214825000Y-91250000D02*
X214825000Y-90750000D01*
X215075000Y-90750000D02*
X215075000Y-91250000D01*
X216125000Y-91250000D02*
X216125000Y-90750000D01*
X216875000Y-90750000D02*
X216875000Y-91250000D01*
X217925000Y-91250000D02*
X217925000Y-90750000D01*
X218175000Y-90750000D02*
X218175000Y-91250000D01*
X219225000Y-91250000D02*
X219225000Y-90750000D01*
X182895000Y-86350000D02*
X182895000Y-85850000D01*
X181845000Y-85850000D02*
X181845000Y-86350000D01*
X184195000Y-86350000D02*
X184195000Y-85850000D01*
X183145000Y-85850000D02*
X183145000Y-86350000D01*
X186095000Y-86350000D02*
X186095000Y-85850000D01*
X185045000Y-85850000D02*
X185045000Y-86350000D01*
X187395000Y-86350000D02*
X187395000Y-85850000D01*
X186345000Y-85850000D02*
X186345000Y-86350000D01*
X190625000Y-86350000D02*
X190625000Y-85850000D01*
X189575000Y-85850000D02*
X189575000Y-86350000D01*
X191925000Y-86350000D02*
X191925000Y-85850000D01*
X190875000Y-85850000D02*
X190875000Y-86350000D01*
X193725000Y-86350000D02*
X193725000Y-85850000D01*
X192675000Y-85850000D02*
X192675000Y-86350000D01*
X195025000Y-86350000D02*
X195025000Y-85850000D01*
X193975000Y-85850000D02*
X193975000Y-86350000D01*
X185270000Y-92035000D02*
X184770000Y-92035000D01*
X184770000Y-93085000D02*
X185270000Y-93085000D01*
X187370000Y-92035000D02*
X186870000Y-92035000D01*
X186870000Y-93085000D02*
X187370000Y-93085000D01*
X214250000Y-83975000D02*
X213750000Y-83975000D01*
X213750000Y-85025000D02*
X214250000Y-85025000D01*
X216350000Y-83975000D02*
X215850000Y-83975000D01*
X215850000Y-85025000D02*
X216350000Y-85025000D01*
X215650000Y-92075000D02*
X215150000Y-92075000D01*
X215150000Y-93125000D02*
X215650000Y-93125000D01*
X217850000Y-92075000D02*
X217350000Y-92075000D01*
X217350000Y-93125000D02*
X217850000Y-93125000D01*
X183820000Y-83975000D02*
X183320000Y-83975000D01*
X183320000Y-85025000D02*
X183820000Y-85025000D01*
X185920000Y-83975000D02*
X185420000Y-83975000D01*
X185420000Y-85025000D02*
X185920000Y-85025000D01*
X191450000Y-83975000D02*
X190950000Y-83975000D01*
X190950000Y-85025000D02*
X191450000Y-85025000D01*
X193650000Y-83975000D02*
X193150000Y-83975000D01*
X193150000Y-85025000D02*
X193650000Y-85025000D01*
X205825000Y-86350000D02*
X205825000Y-85850000D01*
X204775000Y-85850000D02*
X204775000Y-86350000D01*
X207125000Y-86350000D02*
X207125000Y-85850000D01*
X206075000Y-85850000D02*
X206075000Y-86350000D01*
X208925000Y-86350000D02*
X208925000Y-85850000D01*
X207875000Y-85850000D02*
X207875000Y-86350000D01*
X210225000Y-86350000D02*
X210225000Y-85850000D01*
X209175000Y-85850000D02*
X209175000Y-86350000D01*
X199525000Y-86450000D02*
X199525000Y-85950000D01*
X198475000Y-85950000D02*
X198475000Y-86450000D01*
X201325000Y-86450000D02*
X201325000Y-85950000D01*
X200275000Y-85950000D02*
X200275000Y-86450000D01*
X202625000Y-86450000D02*
X202625000Y-85950000D01*
X201575000Y-85950000D02*
X201575000Y-86450000D01*
X190795000Y-90830000D02*
X190795000Y-91330000D01*
X191845000Y-91330000D02*
X191845000Y-90830000D01*
X192095000Y-90830000D02*
X192095000Y-91330000D01*
X193145000Y-91330000D02*
X193145000Y-90830000D01*
X195295000Y-90830000D02*
X195295000Y-91330000D01*
X196345000Y-91330000D02*
X196345000Y-90830000D01*
X206075000Y-90760000D02*
X206075000Y-91260000D01*
X207125000Y-91260000D02*
X207125000Y-90760000D01*
X207375000Y-90760000D02*
X207375000Y-91260000D01*
X208425000Y-91260000D02*
X208425000Y-90760000D01*
X209275000Y-90760000D02*
X209275000Y-91260000D01*
X210325000Y-91260000D02*
X210325000Y-90760000D01*
X210575000Y-90760000D02*
X210575000Y-91260000D01*
X211625000Y-91260000D02*
X211625000Y-90760000D01*
X198475000Y-90850000D02*
X198475000Y-91350000D01*
X199525000Y-91350000D02*
X199525000Y-90850000D01*
X199775000Y-90850000D02*
X199775000Y-91350000D01*
X200825000Y-91350000D02*
X200825000Y-90850000D01*
X201575000Y-90850000D02*
X201575000Y-91350000D01*
X202625000Y-91350000D02*
X202625000Y-90850000D01*
X202875000Y-90850000D02*
X202875000Y-91350000D01*
X203925000Y-91350000D02*
X203925000Y-90850000D01*
X206650000Y-83975000D02*
X206150000Y-83975000D01*
X206150000Y-85025000D02*
X206650000Y-85025000D01*
X208850000Y-83975000D02*
X208350000Y-83975000D01*
X208350000Y-85025000D02*
X208850000Y-85025000D01*
X199050000Y-84075000D02*
X198550000Y-84075000D01*
X198550000Y-85125000D02*
X199050000Y-85125000D01*
X201250000Y-84075000D02*
X200750000Y-84075000D01*
X200750000Y-85125000D02*
X201250000Y-85125000D01*
X192770000Y-92155000D02*
X192270000Y-92155000D01*
X192270000Y-93205000D02*
X192770000Y-93205000D01*
X194870000Y-92155000D02*
X194370000Y-92155000D01*
X194370000Y-93205000D02*
X194870000Y-93205000D01*
X208050000Y-92085000D02*
X207550000Y-92085000D01*
X207550000Y-93135000D02*
X208050000Y-93135000D01*
X210150000Y-92085000D02*
X209650000Y-92085000D01*
X209650000Y-93135000D02*
X210150000Y-93135000D01*
X200350000Y-92175000D02*
X199850000Y-92175000D01*
X199850000Y-93225000D02*
X200350000Y-93225000D01*
X202550000Y-92175000D02*
X202050000Y-92175000D01*
X202050000Y-93225000D02*
X202550000Y-93225000D01*
X217025000Y-124780000D02*
X217025000Y-124280000D01*
X215975000Y-124280000D02*
X215975000Y-124780000D01*
X218225000Y-129980000D02*
X218225000Y-129480000D01*
X217175000Y-129480000D02*
X217175000Y-129980000D01*
X218225000Y-127780000D02*
X218225000Y-127280000D01*
X217175000Y-127280000D02*
X217175000Y-127780000D01*
X198305000Y-124460000D02*
X198305000Y-123960000D01*
X197255000Y-123960000D02*
X197255000Y-124460000D01*
X198355000Y-126720000D02*
X198355000Y-126220000D01*
X197305000Y-126220000D02*
X197305000Y-126720000D01*
X198375000Y-128700000D02*
X198375000Y-128200000D01*
X197325000Y-128200000D02*
X197325000Y-128700000D01*
X213200000Y-128330000D02*
G75*
G03X213200000Y-128330000I-100000J0D01*
G01*
X213350000Y-127780000D02*
X213350000Y-128280000D01*
X216250000Y-127780000D02*
X213350000Y-127780000D01*
X216250000Y-128280000D02*
X216250000Y-127780000D01*
X213350000Y-128280000D02*
X216250000Y-128280000D01*
X191785000Y-123515000D02*
X192285000Y-123515000D01*
X195035000Y-126765000D02*
X194535000Y-126765000D01*
X195035000Y-123515000D02*
X194535000Y-123515000D01*
X191785000Y-126765000D02*
X191785000Y-126265000D01*
X195035000Y-126765000D02*
X195035000Y-126265000D01*
X195035000Y-123515000D02*
X195035000Y-124015000D01*
X191785000Y-123515000D02*
X191785000Y-124015000D01*
X213325000Y-120575000D02*
X213470000Y-120575000D01*
X213325000Y-116425000D02*
X213470000Y-116425000D01*
X218475000Y-116425000D02*
X218330000Y-116425000D01*
X218475000Y-120575000D02*
X218330000Y-120575000D01*
X213325000Y-120575000D02*
X213325000Y-116425000D01*
X218475000Y-120575000D02*
X218475000Y-116425000D01*
X213470000Y-120575000D02*
X213470000Y-121975000D01*
X213482500Y-131630000D02*
X213101500Y-131630000D01*
X214498500Y-131630000D02*
X214117500Y-131630000D01*
X214117500Y-131630000D02*
X213482500Y-132011000D01*
X213482500Y-132011000D02*
X213482500Y-131249000D01*
X213482500Y-131249000D02*
X214117500Y-131630000D01*
X214117500Y-132138000D02*
X214117500Y-131122000D01*
X215800000Y-130730000D02*
X212260000Y-130730000D01*
X215800000Y-132530000D02*
X212260000Y-132530000D01*
X197500000Y-140350000D02*
X196500000Y-140350000D01*
X196500000Y-142050000D02*
X197500000Y-142050000D01*
X200700000Y-142050000D02*
X201700000Y-142050000D01*
X201700000Y-140350000D02*
X200700000Y-140350000D01*
X196975000Y-121250000D02*
X196975000Y-121750000D01*
X198025000Y-121750000D02*
X198025000Y-121250000D01*
X212525000Y-120850000D02*
X212525000Y-120350000D01*
X211475000Y-120350000D02*
X211475000Y-120850000D01*
X208975000Y-109250000D02*
X208975000Y-109750000D01*
X210025000Y-109750000D02*
X210025000Y-109250000D01*
X211250000Y-109525000D02*
X211750000Y-109525000D01*
X211750000Y-108475000D02*
X211250000Y-108475000D01*
X203515000Y-139760000D02*
X203515000Y-140260000D01*
X204565000Y-140260000D02*
X204565000Y-139760000D01*
X203525000Y-137160000D02*
X203525000Y-137660000D01*
X204575000Y-137660000D02*
X204575000Y-137160000D01*
X195750000Y-132950000D02*
X195750000Y-136450000D01*
X195750000Y-136450000D02*
X202250000Y-136450000D01*
X202250000Y-136450000D02*
X202250000Y-132950000D01*
X202250000Y-132950000D02*
X195750000Y-132950000D01*
X198000000Y-152150000D02*
X197000000Y-152150000D01*
X197000000Y-153850000D02*
X198000000Y-153850000D01*
X210000000Y-144850000D02*
X211000000Y-144850000D01*
X211000000Y-143150000D02*
X210000000Y-143150000D01*
X207000000Y-143150000D02*
X206000000Y-143150000D01*
X206000000Y-144850000D02*
X207000000Y-144850000D01*
X201000000Y-153850000D02*
X202000000Y-153850000D01*
X202000000Y-152150000D02*
X201000000Y-152150000D01*
X186750000Y-152400000D02*
X185750000Y-152400000D01*
X185750000Y-154100000D02*
X186750000Y-154100000D01*
X189750000Y-154100000D02*
X190750000Y-154100000D01*
X190750000Y-152400000D02*
X189750000Y-152400000D01*
X179540000Y-155595000D02*
X180040000Y-155595000D01*
X180040000Y-154545000D02*
X179540000Y-154545000D01*
X212975000Y-143250000D02*
X212975000Y-143750000D01*
X214025000Y-143750000D02*
X214025000Y-143250000D01*
X212975000Y-141250000D02*
X212975000Y-141750000D01*
X214025000Y-141750000D02*
X214025000Y-141250000D01*
X233380000Y-150385000D02*
X232880000Y-150385000D01*
X232880000Y-151435000D02*
X233380000Y-151435000D01*
X203725000Y-151750000D02*
X203725000Y-152250000D01*
X204775000Y-152250000D02*
X204775000Y-151750000D01*
X203725000Y-149500000D02*
X203725000Y-150000000D01*
X204775000Y-150000000D02*
X204775000Y-149500000D01*
X192475000Y-152000000D02*
X192475000Y-152500000D01*
X193525000Y-152500000D02*
X193525000Y-152000000D01*
X192475000Y-149750000D02*
X192475000Y-150250000D01*
X193525000Y-150250000D02*
X193525000Y-149750000D01*
X205750000Y-136250000D02*
X205750000Y-139750000D01*
X205750000Y-139750000D02*
X212250000Y-139750000D01*
X212250000Y-139750000D02*
X212250000Y-136250000D01*
X212250000Y-136250000D02*
X205750000Y-136250000D01*
X196250000Y-145750000D02*
X196250000Y-149250000D01*
X196250000Y-149250000D02*
X202750000Y-149250000D01*
X202750000Y-149250000D02*
X202750000Y-145750000D01*
X202750000Y-145750000D02*
X196250000Y-145750000D01*
X185000000Y-146000000D02*
X185000000Y-149500000D01*
X185000000Y-149500000D02*
X191500000Y-149500000D01*
X191500000Y-149500000D02*
X191500000Y-146000000D01*
X191500000Y-146000000D02*
X185000000Y-146000000D01*
X208750000Y-164200000D02*
X229250000Y-164200000D01*
X229250000Y-164200000D02*
X229250000Y-162600000D01*
X208750000Y-164200000D02*
X208750000Y-162600000D01*
X189150000Y-161000000D02*
X189150000Y-162000000D01*
X190850000Y-162000000D02*
X190850000Y-161000000D01*
X191150000Y-161000000D02*
X191150000Y-162000000D01*
X192850000Y-162000000D02*
X192850000Y-161000000D01*
X193150000Y-161000000D02*
X193150000Y-162000000D01*
X194850000Y-162000000D02*
X194850000Y-161000000D01*
X232500000Y-156350000D02*
X233500000Y-156350000D01*
X233500000Y-154650000D02*
X232500000Y-154650000D01*
X232500000Y-162350000D02*
X233500000Y-162350000D01*
X233500000Y-160650000D02*
X232500000Y-160650000D01*
X232500000Y-160350000D02*
X233500000Y-160350000D01*
X233500000Y-158650000D02*
X232500000Y-158650000D01*
X232500000Y-158350000D02*
X233500000Y-158350000D01*
X233500000Y-156650000D02*
X232500000Y-156650000D01*
X195150000Y-161000000D02*
X195150000Y-162000000D01*
X196850000Y-162000000D02*
X196850000Y-161000000D01*
X185670000Y-155965000D02*
X185170000Y-155965000D01*
X185170000Y-157015000D02*
X185670000Y-157015000D01*
X185690000Y-154695000D02*
X185190000Y-154695000D01*
X185190000Y-155745000D02*
X185690000Y-155745000D01*
X193555000Y-157940000D02*
X193555000Y-157440000D01*
X192505000Y-157440000D02*
X192505000Y-157940000D01*
X233390000Y-153215000D02*
X232890000Y-153215000D01*
X232890000Y-154265000D02*
X233390000Y-154265000D01*
X233360000Y-151815000D02*
X232860000Y-151815000D01*
X232860000Y-152865000D02*
X233360000Y-152865000D01*
X210100000Y-122750000D02*
X207400000Y-122750000D01*
X210100000Y-124250000D02*
X207400000Y-124250000D01*
X208600000Y-123350000D02*
X208600000Y-123600000D01*
X208600000Y-123600000D02*
X208750000Y-123450000D01*
X208850000Y-123850000D02*
X208850000Y-123150000D01*
X208500000Y-123500000D02*
X208150000Y-123500000D01*
X208850000Y-123500000D02*
X208500000Y-123850000D01*
X208500000Y-123850000D02*
X208500000Y-123150000D01*
X208500000Y-123150000D02*
X208850000Y-123500000D01*
X210100000Y-119250000D02*
X207400000Y-119250000D01*
X210100000Y-120750000D02*
X207400000Y-120750000D01*
X208600000Y-119850000D02*
X208600000Y-120100000D01*
X208600000Y-120100000D02*
X208750000Y-119950000D01*
X208850000Y-120350000D02*
X208850000Y-119650000D01*
X208500000Y-120000000D02*
X208150000Y-120000000D01*
X208850000Y-120000000D02*
X208500000Y-120350000D01*
X208500000Y-120350000D02*
X208500000Y-119650000D01*
X208500000Y-119650000D02*
X208850000Y-120000000D01*
X207500000Y-125775000D02*
X208000000Y-125775000D01*
X208000000Y-124725000D02*
X207500000Y-124725000D01*
X207500000Y-122275000D02*
X208000000Y-122275000D01*
X208000000Y-121225000D02*
X207500000Y-121225000D01*
X217650000Y-123500000D02*
X217650000Y-124500000D01*
X219350000Y-124500000D02*
X219350000Y-123500000D01*
X189200000Y-142050000D02*
X190200000Y-142050000D01*
X190200000Y-140350000D02*
X189200000Y-140350000D01*
X226230000Y-107270000D02*
X226230000Y-112350000D01*
X226230000Y-112350000D02*
X228770000Y-112350000D01*
X228770000Y-112350000D02*
X228770000Y-107270000D01*
X229050000Y-104450000D02*
X229050000Y-106000000D01*
X228770000Y-107270000D02*
X226230000Y-107270000D01*
X225950000Y-106000000D02*
X225950000Y-104450000D01*
X225950000Y-104450000D02*
X229050000Y-104450000D01*
X193725000Y-137500000D02*
X193725000Y-137000000D01*
X192675000Y-137000000D02*
X192675000Y-137500000D01*
X193725000Y-139450000D02*
X193725000Y-138950000D01*
X192675000Y-138950000D02*
X192675000Y-139450000D01*
X185250000Y-133750000D02*
X185250000Y-137250000D01*
X185250000Y-137250000D02*
X191750000Y-137250000D01*
X191750000Y-137250000D02*
X191750000Y-133750000D01*
X191750000Y-133750000D02*
X185250000Y-133750000D01*
X185570000Y-140095000D02*
X185070000Y-140095000D01*
X185070000Y-141145000D02*
X185570000Y-141145000D01*
X179000000Y-140350000D02*
X178000000Y-140350000D01*
X178000000Y-142050000D02*
X179000000Y-142050000D01*
X181700000Y-142050000D02*
X182700000Y-142050000D01*
X182700000Y-140350000D02*
X181700000Y-140350000D01*
X232500000Y-136975000D02*
X230500000Y-136975000D01*
X230500000Y-139025000D02*
X232500000Y-139025000D01*
X228985000Y-142850000D02*
X228985000Y-143350000D01*
X229935000Y-143350000D02*
X229935000Y-142850000D01*
X234500000Y-146975000D02*
X232500000Y-146975000D01*
X232500000Y-149025000D02*
X234500000Y-149025000D01*
X230500000Y-142000000D02*
X230500000Y-144000000D01*
X236500000Y-144000000D02*
X236500000Y-142000000D01*
X167975000Y-88250000D02*
X167975000Y-88750000D01*
X169025000Y-88750000D02*
X169025000Y-88250000D01*
X211250000Y-83025000D02*
X211750000Y-83025000D01*
X211750000Y-81975000D02*
X211250000Y-81975000D01*
X183575000Y-138650000D02*
X183575000Y-139150000D01*
X184625000Y-139150000D02*
X184625000Y-138650000D01*
X183575000Y-136550000D02*
X183575000Y-137050000D01*
X184625000Y-137050000D02*
X184625000Y-136550000D01*
X227575000Y-146950000D02*
X227575000Y-147450000D01*
X228625000Y-147450000D02*
X228625000Y-146950000D01*
X227225000Y-147450000D02*
X227225000Y-146950000D01*
X226175000Y-146950000D02*
X226175000Y-147450000D01*
X176750000Y-133850000D02*
X176750000Y-137350000D01*
X176750000Y-137350000D02*
X183250000Y-137350000D01*
X183250000Y-137350000D02*
X183250000Y-133850000D01*
X183250000Y-133850000D02*
X176750000Y-133850000D01*
X228740000Y-142740000D02*
G75*
G03X228740000Y-142740000I-100000J0D01*
G01*
X228390000Y-143390000D02*
X228390000Y-142890000D01*
X225490000Y-143390000D02*
X228390000Y-143390000D01*
X225490000Y-142890000D02*
X225490000Y-143390000D01*
X228390000Y-142890000D02*
X225490000Y-142890000D01*
X196266667Y-101490476D02*
X196266667Y-101014285D01*
X196552381Y-101585714D02*
X195552381Y-101252381D01*
X196552381Y-100919047D01*
X195552381Y-100680952D02*
X195552381Y-100061904D01*
X195933333Y-100395238D01*
X195933333Y-100252380D01*
X195980952Y-100157142D01*
X196028571Y-100109523D01*
X196123810Y-100061904D01*
X196361905Y-100061904D01*
X196457143Y-100109523D01*
X196504762Y-100157142D01*
X196552381Y-100252380D01*
X196552381Y-100538095D01*
X196504762Y-100633333D01*
X196457143Y-100680952D01*
X195552381Y-99442857D02*
X195552381Y-99347618D01*
X195600000Y-99252380D01*
X195647619Y-99204761D01*
X195742857Y-99157142D01*
X195933333Y-99109523D01*
X196171429Y-99109523D01*
X196361905Y-99157142D01*
X196457143Y-99204761D01*
X196504762Y-99252380D01*
X196552381Y-99347618D01*
X196552381Y-99442857D01*
X196504762Y-99538095D01*
X196457143Y-99585714D01*
X196361905Y-99633333D01*
X196171429Y-99680952D01*
X195933333Y-99680952D01*
X195742857Y-99633333D01*
X195647619Y-99585714D01*
X195600000Y-99538095D01*
X195552381Y-99442857D01*
X201028571Y-101180952D02*
X201076190Y-101038095D01*
X201123810Y-100990476D01*
X201219048Y-100942857D01*
X201361905Y-100942857D01*
X201457143Y-100990476D01*
X201504762Y-101038095D01*
X201552381Y-101133333D01*
X201552381Y-101514286D01*
X200552381Y-101514286D01*
X200552381Y-101180952D01*
X200600000Y-101085714D01*
X200647619Y-101038095D01*
X200742857Y-100990476D01*
X200838095Y-100990476D01*
X200933333Y-101038095D01*
X200980952Y-101085714D01*
X201028571Y-101180952D01*
X201028571Y-101514286D01*
X200552381Y-100609524D02*
X200552381Y-99990476D01*
X200933333Y-100323810D01*
X200933333Y-100180952D01*
X200980952Y-100085714D01*
X201028571Y-100038095D01*
X201123810Y-99990476D01*
X201361905Y-99990476D01*
X201457143Y-100038095D01*
X201504762Y-100085714D01*
X201552381Y-100180952D01*
X201552381Y-100466667D01*
X201504762Y-100561905D01*
X201457143Y-100609524D01*
X200552381Y-99371429D02*
X200552381Y-99276190D01*
X200600000Y-99180952D01*
X200647619Y-99133333D01*
X200742857Y-99085714D01*
X200933333Y-99038095D01*
X201171429Y-99038095D01*
X201361905Y-99085714D01*
X201457143Y-99133333D01*
X201504762Y-99180952D01*
X201552381Y-99276190D01*
X201552381Y-99371429D01*
X201504762Y-99466667D01*
X201457143Y-99514286D01*
X201361905Y-99561905D01*
X201171429Y-99609524D01*
X200933333Y-99609524D01*
X200742857Y-99561905D01*
X200647619Y-99514286D01*
X200600000Y-99466667D01*
X200552381Y-99371429D01*
X200928571Y-113504761D02*
X200976190Y-113361904D01*
X201023810Y-113314285D01*
X201119048Y-113266666D01*
X201261905Y-113266666D01*
X201357143Y-113314285D01*
X201404762Y-113361904D01*
X201452381Y-113457142D01*
X201452381Y-113838095D01*
X200452381Y-113838095D01*
X200452381Y-113504761D01*
X200500000Y-113409523D01*
X200547619Y-113361904D01*
X200642857Y-113314285D01*
X200738095Y-113314285D01*
X200833333Y-113361904D01*
X200880952Y-113409523D01*
X200928571Y-113504761D01*
X200928571Y-113838095D01*
X201452381Y-112314285D02*
X201452381Y-112885714D01*
X201452381Y-112600000D02*
X200452381Y-112600000D01*
X200595238Y-112695238D01*
X200690476Y-112790476D01*
X200738095Y-112885714D01*
X196266667Y-113814286D02*
X196266667Y-113338095D01*
X196552381Y-113909524D02*
X195552381Y-113576191D01*
X196552381Y-113242857D01*
X196552381Y-112385714D02*
X196552381Y-112957143D01*
X196552381Y-112671429D02*
X195552381Y-112671429D01*
X195695238Y-112766667D01*
X195790476Y-112861905D01*
X195838095Y-112957143D01*
M02*
