G04 #@! TF.FileFunction,Paste,Bot*
%FSLAX46Y46*%
G04 Gerber Fmt 4.6, Leading zero omitted, Abs format (unit mm)*
G04 Created by KiCad (PCBNEW 4.0.4-stable) date Mon Nov 14 15:58:05 2016*
%MOMM*%
%LPD*%
G01*
G04 APERTURE LIST*
%ADD10C,0.100000*%
%ADD11C,0.635000*%
G04 APERTURE END LIST*
D10*
D11*
X173895000Y-80275000D03*
X173895000Y-81545000D03*
X173895000Y-82815000D03*
X173895000Y-84085000D03*
X173895000Y-85355000D03*
X173895000Y-86625000D03*
X173895000Y-87895000D03*
X173895000Y-89165000D03*
X173895000Y-90435000D03*
X173895000Y-91705000D03*
X175165000Y-80275000D03*
X175165000Y-81545000D03*
X175165000Y-82815000D03*
X175165000Y-84085000D03*
X175165000Y-85355000D03*
X175165000Y-86625000D03*
X175165000Y-87895000D03*
X175165000Y-89165000D03*
X175165000Y-90435000D03*
X175165000Y-91705000D03*
X176435000Y-80275000D03*
X176435000Y-81545000D03*
X176435000Y-82815000D03*
X176435000Y-84085000D03*
X176435000Y-85355000D03*
X176435000Y-86625000D03*
X176435000Y-87895000D03*
X176435000Y-89165000D03*
X176435000Y-90435000D03*
X176435000Y-91705000D03*
X177705000Y-80275000D03*
X177705000Y-81545000D03*
X177705000Y-82815000D03*
X177705000Y-84085000D03*
X177705000Y-85355000D03*
X177705000Y-86625000D03*
X177705000Y-87895000D03*
X177705000Y-89165000D03*
X177705000Y-90435000D03*
X177705000Y-91705000D03*
X178975000Y-80275000D03*
X178975000Y-81545000D03*
X178975000Y-82815000D03*
X178975000Y-84085000D03*
X178975000Y-85355000D03*
X178975000Y-86625000D03*
X178975000Y-87895000D03*
X178975000Y-89165000D03*
X178975000Y-90435000D03*
X178975000Y-91705000D03*
X180245000Y-80275000D03*
X180245000Y-81545000D03*
X180245000Y-82815000D03*
X180245000Y-84085000D03*
X180245000Y-85355000D03*
X180245000Y-86625000D03*
X180245000Y-87895000D03*
X180245000Y-89165000D03*
X180245000Y-90435000D03*
X180245000Y-91705000D03*
X181515000Y-80275000D03*
X181515000Y-81545000D03*
X181515000Y-82815000D03*
X181515000Y-84085000D03*
X181515000Y-85355000D03*
X181515000Y-86625000D03*
X181515000Y-87895000D03*
X181515000Y-89165000D03*
X181515000Y-90435000D03*
X181515000Y-91705000D03*
X182785000Y-80275000D03*
X182785000Y-81545000D03*
X182785000Y-82815000D03*
X182785000Y-84085000D03*
X182785000Y-85355000D03*
X182785000Y-86625000D03*
X182785000Y-87895000D03*
X182785000Y-89165000D03*
X182785000Y-90435000D03*
X182785000Y-91705000D03*
X184055000Y-80275000D03*
X184055000Y-81545000D03*
X184055000Y-82815000D03*
X184055000Y-84085000D03*
X184055000Y-85355000D03*
X184055000Y-86625000D03*
X184055000Y-87895000D03*
X184055000Y-89165000D03*
X184055000Y-90435000D03*
X184055000Y-91705000D03*
X185325000Y-80275000D03*
X185325000Y-81545000D03*
X185325000Y-82815000D03*
X185325000Y-84085000D03*
X185325000Y-85355000D03*
X185325000Y-86625000D03*
X185325000Y-87895000D03*
X185325000Y-89165000D03*
X185325000Y-90435000D03*
X185325000Y-91705000D03*
X186595000Y-80275000D03*
X186595000Y-81545000D03*
X186595000Y-82815000D03*
X186595000Y-84085000D03*
X186595000Y-85355000D03*
X186595000Y-86625000D03*
X186595000Y-87895000D03*
X186595000Y-89165000D03*
X186595000Y-90435000D03*
X186595000Y-91705000D03*
X187865000Y-80275000D03*
X187865000Y-81545000D03*
X187865000Y-82815000D03*
X187865000Y-84085000D03*
X187865000Y-85355000D03*
X187865000Y-86625000D03*
X187865000Y-87895000D03*
X187865000Y-89165000D03*
X187865000Y-90435000D03*
X187865000Y-91705000D03*
X189135000Y-80275000D03*
X189135000Y-81545000D03*
X189135000Y-82815000D03*
X189135000Y-84085000D03*
X189135000Y-85355000D03*
X189135000Y-86625000D03*
X189135000Y-87895000D03*
X189135000Y-89165000D03*
X189135000Y-90435000D03*
X189135000Y-91705000D03*
X190405000Y-80275000D03*
X190405000Y-81545000D03*
X190405000Y-82815000D03*
X190405000Y-84085000D03*
X190405000Y-85355000D03*
X190405000Y-86625000D03*
X190405000Y-87895000D03*
X190405000Y-89165000D03*
X190405000Y-90435000D03*
X190405000Y-91705000D03*
X191675000Y-80275000D03*
X191675000Y-81545000D03*
X191675000Y-82815000D03*
X191675000Y-84085000D03*
X191675000Y-85355000D03*
X191675000Y-86625000D03*
X191675000Y-87895000D03*
X191675000Y-89165000D03*
X191675000Y-90435000D03*
X191675000Y-91705000D03*
X192945000Y-80275000D03*
X192945000Y-81545000D03*
X192945000Y-82815000D03*
X192945000Y-84085000D03*
X192945000Y-85355000D03*
X192945000Y-86625000D03*
X192945000Y-87895000D03*
X192945000Y-89165000D03*
X192945000Y-90435000D03*
X192945000Y-91705000D03*
X194215000Y-80275000D03*
X194215000Y-81545000D03*
X194215000Y-82815000D03*
X194215000Y-84085000D03*
X194215000Y-85355000D03*
X194215000Y-86625000D03*
X194215000Y-87895000D03*
X194215000Y-89165000D03*
X194215000Y-90435000D03*
X194215000Y-91705000D03*
X195485000Y-80275000D03*
X195485000Y-81545000D03*
X195485000Y-82815000D03*
X195485000Y-84085000D03*
X195485000Y-85355000D03*
X195485000Y-86625000D03*
X195485000Y-87895000D03*
X195485000Y-89165000D03*
X195485000Y-90435000D03*
X195485000Y-91705000D03*
X196755000Y-80275000D03*
X196755000Y-81545000D03*
X196755000Y-82815000D03*
X196755000Y-84085000D03*
X196755000Y-85355000D03*
X196755000Y-86625000D03*
X196755000Y-87895000D03*
X196755000Y-89165000D03*
X196755000Y-90435000D03*
X196755000Y-91705000D03*
X198025000Y-80275000D03*
X198025000Y-81545000D03*
X198025000Y-82815000D03*
X198025000Y-84085000D03*
X198025000Y-85355000D03*
X198025000Y-86625000D03*
X198025000Y-87895000D03*
X198025000Y-89165000D03*
X198025000Y-90435000D03*
X198025000Y-91705000D03*
X199295000Y-80275000D03*
X199295000Y-81545000D03*
X199295000Y-82815000D03*
X199295000Y-84085000D03*
X199295000Y-85355000D03*
X199295000Y-86625000D03*
X199295000Y-87895000D03*
X199295000Y-89165000D03*
X199295000Y-90435000D03*
X199295000Y-91705000D03*
X200565000Y-80275000D03*
X200565000Y-81545000D03*
X200565000Y-82815000D03*
X200565000Y-84085000D03*
X200565000Y-85355000D03*
X200565000Y-86625000D03*
X200565000Y-87895000D03*
X200565000Y-89165000D03*
X200565000Y-90435000D03*
X200565000Y-91705000D03*
X201835000Y-80275000D03*
X201835000Y-81545000D03*
X201835000Y-82815000D03*
X201835000Y-84085000D03*
X201835000Y-85355000D03*
X201835000Y-86625000D03*
X201835000Y-87895000D03*
X201835000Y-89165000D03*
X201835000Y-90435000D03*
X201835000Y-91705000D03*
X203105000Y-80275000D03*
X203105000Y-81545000D03*
X203105000Y-82815000D03*
X203105000Y-84085000D03*
X203105000Y-85355000D03*
X203105000Y-86625000D03*
X203105000Y-87895000D03*
X203105000Y-89165000D03*
X203105000Y-90435000D03*
X203105000Y-91705000D03*
X204375000Y-80275000D03*
X204375000Y-81545000D03*
X204375000Y-82815000D03*
X204375000Y-84085000D03*
X204375000Y-85355000D03*
X204375000Y-86625000D03*
X204375000Y-87895000D03*
X204375000Y-89165000D03*
X204375000Y-90435000D03*
X204375000Y-91705000D03*
X205645000Y-80275000D03*
X205645000Y-81545000D03*
X205645000Y-82815000D03*
X205645000Y-84085000D03*
X205645000Y-85355000D03*
X205645000Y-86625000D03*
X205645000Y-87895000D03*
X205645000Y-89165000D03*
X205645000Y-90435000D03*
X205645000Y-91705000D03*
X206915000Y-80275000D03*
X206915000Y-81545000D03*
X206915000Y-82815000D03*
X206915000Y-84085000D03*
X206915000Y-85355000D03*
X206915000Y-86625000D03*
X206915000Y-87895000D03*
X206915000Y-89165000D03*
X206915000Y-90435000D03*
X206915000Y-91705000D03*
X208185000Y-80275000D03*
X208185000Y-81545000D03*
X208185000Y-82815000D03*
X208185000Y-84085000D03*
X208185000Y-85355000D03*
X208185000Y-86625000D03*
X208185000Y-87895000D03*
X208185000Y-89165000D03*
X208185000Y-90435000D03*
X208185000Y-91705000D03*
X209455000Y-80275000D03*
X209455000Y-81545000D03*
X209455000Y-82815000D03*
X209455000Y-84085000D03*
X209455000Y-85355000D03*
X209455000Y-86625000D03*
X209455000Y-87895000D03*
X209455000Y-89165000D03*
X209455000Y-90435000D03*
X209455000Y-91705000D03*
X210725000Y-80275000D03*
X210725000Y-81545000D03*
X210725000Y-82815000D03*
X210725000Y-84085000D03*
X210725000Y-85355000D03*
X210725000Y-86625000D03*
X210725000Y-87895000D03*
X210725000Y-89165000D03*
X210725000Y-90435000D03*
X210725000Y-91705000D03*
X211995000Y-80275000D03*
X211995000Y-81545000D03*
X211995000Y-82815000D03*
X211995000Y-84085000D03*
X211995000Y-85355000D03*
X211995000Y-86625000D03*
X211995000Y-87895000D03*
X211995000Y-89165000D03*
X211995000Y-90435000D03*
X211995000Y-91705000D03*
X213265000Y-80275000D03*
X213265000Y-81545000D03*
X213265000Y-82815000D03*
X213265000Y-84085000D03*
X213265000Y-85355000D03*
X213265000Y-86625000D03*
X213265000Y-87895000D03*
X213265000Y-89165000D03*
X213265000Y-90435000D03*
X213265000Y-91705000D03*
X214535000Y-80275000D03*
X214535000Y-81545000D03*
X214535000Y-82815000D03*
X214535000Y-84085000D03*
X214535000Y-85355000D03*
X214535000Y-86625000D03*
X214535000Y-87895000D03*
X214535000Y-89165000D03*
X214535000Y-90435000D03*
X214535000Y-91705000D03*
X215805000Y-80275000D03*
X215805000Y-81545000D03*
X215805000Y-82815000D03*
X215805000Y-84085000D03*
X215805000Y-85355000D03*
X215805000Y-86625000D03*
X215805000Y-87895000D03*
X215805000Y-89165000D03*
X215805000Y-90435000D03*
X215805000Y-91705000D03*
X217075000Y-80275000D03*
X217075000Y-81545000D03*
X217075000Y-82815000D03*
X217075000Y-84085000D03*
X217075000Y-85355000D03*
X217075000Y-86625000D03*
X217075000Y-87895000D03*
X217075000Y-89165000D03*
X217075000Y-90435000D03*
X217075000Y-91705000D03*
X218345000Y-80275000D03*
X218345000Y-81545000D03*
X218345000Y-82815000D03*
X218345000Y-84085000D03*
X218345000Y-85355000D03*
X218345000Y-86625000D03*
X218345000Y-87895000D03*
X218345000Y-89165000D03*
X218345000Y-90435000D03*
X218345000Y-91705000D03*
X219615000Y-80275000D03*
X219615000Y-81545000D03*
X219615000Y-82815000D03*
X219615000Y-84085000D03*
X219615000Y-85355000D03*
X219615000Y-86625000D03*
X219615000Y-87895000D03*
X219615000Y-89165000D03*
X219615000Y-90435000D03*
X219615000Y-91705000D03*
X220885000Y-80275000D03*
X220885000Y-81545000D03*
X220885000Y-82815000D03*
X220885000Y-84085000D03*
X220885000Y-85355000D03*
X220885000Y-86625000D03*
X220885000Y-87895000D03*
X220885000Y-89165000D03*
X220885000Y-90435000D03*
X220885000Y-91705000D03*
X222155000Y-80275000D03*
X222155000Y-81545000D03*
X222155000Y-82815000D03*
X222155000Y-84085000D03*
X222155000Y-85355000D03*
X222155000Y-86625000D03*
X222155000Y-87895000D03*
X222155000Y-89165000D03*
X222155000Y-90435000D03*
X222155000Y-91705000D03*
X223425000Y-80275000D03*
X223425000Y-81545000D03*
X223425000Y-82815000D03*
X223425000Y-84085000D03*
X223425000Y-85355000D03*
X223425000Y-86625000D03*
X223425000Y-87895000D03*
X223425000Y-89165000D03*
X223425000Y-90435000D03*
X223425000Y-91705000D03*
M02*
