G04 #@! TF.FileFunction,Legend,Bot*
%FSLAX46Y46*%
G04 Gerber Fmt 4.6, Leading zero omitted, Abs format (unit mm)*
G04 Created by KiCad (PCBNEW 4.0.4-stable) date Mon Nov 14 15:58:05 2016*
%MOMM*%
%LPD*%
G01*
G04 APERTURE LIST*
%ADD10C,0.100000*%
%ADD11C,0.150000*%
G04 APERTURE END LIST*
D10*
D11*
X226560000Y-85240000D02*
X226560000Y-86740000D01*
X226560000Y-78640000D02*
X226560000Y-85240000D01*
X226560000Y-86740000D02*
X226560000Y-93340000D01*
X226560000Y-93340000D02*
X170760000Y-93340000D01*
X170760000Y-93340000D02*
X170760000Y-86740000D01*
X170760000Y-86740000D02*
X169860000Y-86740000D01*
X169860000Y-86740000D02*
X169860000Y-85240000D01*
X169860000Y-85240000D02*
X170760000Y-85240000D01*
X170760000Y-85240000D02*
X170760000Y-78640000D01*
X170760000Y-78640000D02*
X226560000Y-78640000D01*
X223710714Y-94030714D02*
X223710714Y-94697381D01*
X223948810Y-93649762D02*
X224186905Y-94364048D01*
X223567857Y-94364048D01*
X222996429Y-93697381D02*
X222901190Y-93697381D01*
X222805952Y-93745000D01*
X222758333Y-93792619D01*
X222710714Y-93887857D01*
X222663095Y-94078333D01*
X222663095Y-94316429D01*
X222710714Y-94506905D01*
X222758333Y-94602143D01*
X222805952Y-94649762D01*
X222901190Y-94697381D01*
X222996429Y-94697381D01*
X223091667Y-94649762D01*
X223139286Y-94602143D01*
X223186905Y-94506905D01*
X223234524Y-94316429D01*
X223234524Y-94078333D01*
X223186905Y-93887857D01*
X223139286Y-93792619D01*
X223091667Y-93745000D01*
X222996429Y-93697381D01*
X173609285Y-94697381D02*
X174180714Y-94697381D01*
X173895000Y-94697381D02*
X173895000Y-93697381D01*
X173990238Y-93840238D01*
X174085476Y-93935476D01*
X174180714Y-93983095D01*
X170346905Y-92157381D02*
X170346905Y-91157381D01*
X169775476Y-92157381D02*
X170204048Y-91585952D01*
X169775476Y-91157381D02*
X170346905Y-91728810D01*
D10*
X170275476Y-80408333D02*
X169894524Y-80408333D01*
X170351667Y-80636905D02*
X170085000Y-79836905D01*
X169818333Y-80636905D01*
M02*
