M48
;DRILL file {KiCad 4.0.4-stable} date Mon Nov 14 15:58:10 2016
;FORMAT={-:-/ absolute / inch / decimal}
FMAT,2
INCH,TZ
T1C0.012
T2C0.020
T3C0.026
T4C0.040
T5C0.050
%
G90
G05
M72
T1
X6.6618Y-3.3366
X6.6858Y-3.4512
X6.6894Y-5.1409
X6.6898Y-3.5283
X6.6902Y-5.2969
X6.6906Y-3.1559
X6.6906Y-4.9583
X6.6906Y-5.2142
X6.6913Y-5.389
X6.6913Y-5.5154
X6.6913Y-5.75
X6.6941Y-5.8512
X6.6949Y-3.2602
X6.7201Y-5.902
X6.7346Y-3.4862
X6.7374Y-4.524
X6.7386Y-4.6453
X6.7386Y-4.7413
X6.7551Y-5.213
X6.7555Y-5.0378
X6.7555Y-5.5709
X6.7608Y-3.748
X6.7618Y-5.7996
X6.7799Y-3.3421
X6.7803Y-3.161
X6.7815Y-3.2606
X6.7831Y-3.4449
X6.7904Y-3.748
X6.7949Y-3.0591
X6.8004Y-3.535
X6.813Y-4.7606
X6.8138Y-4.6445
X6.8165Y-4.5228
X6.8264Y-3.6461
X6.8435Y-3.752
X6.8439Y-5.7573
X6.8606Y-3.1213
X6.861Y-2.9906
X6.8648Y-5.7782
X6.8701Y-5.8091
X6.873Y-3.752
X6.8907Y-5.9213
X6.8961Y-3.6563
X6.902Y-3.7831
X6.9069Y-5.7966
X6.9106Y-3.1882
X6.911Y-3.4331
X6.9126Y-2.9598
X6.9144Y-6.0118
X6.9203Y-5.9213
X6.9252Y-3.7543
X6.9278Y-5.8175
X6.9439Y-6.0118
X6.9449Y-3.6398
X6.962Y-3.7415
X6.9717Y-3.237
X6.9717Y-3.337
X6.9734Y-6.1299
X6.9829Y-3.7624
X6.9917Y-5.3421
X7.003Y-6.1299
X7.024Y-4.6598
X7.0287Y-5.0181
X7.0295Y-5.0693
X7.0404Y-3.7559
X7.0654Y-3.1295
X7.0699Y-3.7559
X7.0933Y-6.2035
X7.0949Y-3.7193
X7.1Y-4.9429
X7.1004Y-3.6433
X7.1102Y-6.139
X7.1161Y-3.8035
X7.1189Y-3.3354
X7.1236Y-3.2839
X7.1236Y-3.665
X7.1256Y-3.385
X7.126Y-4.2138
X7.1343Y-4.0862
X7.1591Y-4.2146
X7.1602Y-6.1217
X7.1693Y-3.437
X7.1697Y-3.4799
X7.1701Y-3.3339
X7.1717Y-3.2858
X7.1744Y-3.2394
X7.2051Y-4.2217
X7.2063Y-6.087
X7.2091Y-6.1843
X7.2205Y-3.2874
X7.2205Y-3.437
X7.222Y-3.5343
X7.2272Y-3.6457
X7.2291Y-3.1827
X7.2398Y-4.2181
X7.2638Y-3.2913
X7.2689Y-3.5354
X7.2756Y-3.2362
X7.2795Y-4.2165
X7.2839Y-3.1256
X7.3177Y-3.2819
X7.3189Y-3.4409
X7.3209Y-3.537
X7.3228Y-3.2362
X7.3256Y-3.0732
X7.3299Y-3.1866
X7.3614Y-3.0075
X7.3661Y-3.237
X7.3685Y-3.5339
X7.3693Y-3.335
X7.3701Y-3.4409
X7.374Y-3.2874
X7.3827Y-3.1283
X7.3902Y-4.5858
X7.3996Y-4.5551
X7.4028Y-4.5157
X7.4039Y-3.6417
X7.4063Y-4.4795
X7.4142Y-2.961
X7.4201Y-3.435
X7.4213Y-3.2874
X7.4256Y-3.485
X7.4264Y-3.5315
X7.4276Y-4.2933
X7.4283Y-3.2362
X7.4287Y-4.1185
X7.4299Y-3.7925
X7.4327Y-4.4366
X7.4382Y-3.9846
X7.4437Y-3.0909
X7.448Y-6.278
X7.4677Y-3.0087
X7.4713Y-3.3354
X7.4724Y-3.437
X7.474Y-3.2843
X7.4764Y-3.2362
X7.4854Y-4.1736
X7.515Y-6.2748
X7.5185Y-3.5343
X7.5197Y-3.2874
X7.5197Y-3.437
X7.5197Y-3.6409
X7.5217Y-4.5862
X7.5228Y-3.0689
X7.5236Y-3.2362
X7.5244Y-3.9917
X7.5368Y-3.7939
X7.5492Y-3.685
X7.5512Y-4.2091
X7.5577Y-3.773
X7.5622Y-4.5839
X7.563Y-6.1823
X7.564Y-3.9764
X7.5669Y-3.2874
X7.5705Y-3.535
X7.587Y-3.1217
X7.5913Y-6.2756
X7.5935Y-3.9764
X7.5949Y-4.5827
X7.6008Y-5.3024
X7.622Y-3.2874
X7.622Y-3.437
X7.6232Y-4.6594
X7.6252Y-3.4831
X7.6256Y-4.0118
X7.6287Y-3.7709
X7.6303Y-4.5787
X7.6406Y-4.6193
X7.6409Y-4.6909
X7.6449Y-3.1197
X7.6693Y-3.437
X7.6705Y-3.3398
X7.6724Y-3.5335
X7.6732Y-3.2874
X7.6752Y-4.4953
X7.6858Y-3.0819
X7.6886Y-3.9957
X7.698Y-4.0374
X7.6988Y-4.5961
X7.7008Y-4.7008
X7.7114Y-3.6433
X7.7138Y-4.4587
X7.7138Y-4.9709
X7.7165Y-6.2654
X7.7181Y-4.6465
X7.7193Y-3.4862
X7.7205Y-3.2362
X7.7205Y-5.0079
X7.7224Y-3.5323
X7.7311Y-3.0299
X7.7343Y-4.7067
X7.7461Y-4.8693
X7.748Y-4.5594
X7.7697Y-3.4839
X7.7717Y-3.2362
X7.7717Y-3.2874
X7.7717Y-3.437
X7.7717Y-4.4906
X7.7732Y-3.335
X7.7795Y-2.9898
X7.7843Y-4.6067
X7.7894Y-4.8291
X7.8106Y-2.9579
X7.8138Y-4.4528
X7.815Y-3.9902
X7.8224Y-4.637
X7.8228Y-3.2874
X7.8228Y-3.4409
X7.8232Y-3.5354
X7.8433Y-3.6382
X7.8646Y-4.4917
X7.8667Y-3.2809
X7.8685Y-4.565
X7.8732Y-3.5327
X7.9028Y-3.9819
X7.9154Y-4.4606
X7.9173Y-3.4409
X7.9176Y-3.8069
X7.9187Y-3.7309
X7.9213Y-3.2362
X7.9217Y-3.5394
X7.9319Y-4.002
X7.9385Y-3.786
X7.9396Y-3.71
X7.9398Y-6.1898
X7.9638Y-4.4622
X7.965Y-3.5343
X7.9654Y-3.1248
X7.972Y-4.0024
X7.9724Y-3.2362
X7.9724Y-3.437
X7.9732Y-3.3362
X7.9732Y-3.4874
X7.9815Y-4.3205
X7.989Y-4.0291
X7.9965Y-3.9795
X7.9992Y-4.6571
X8.Y-4.2969
X8.0051Y-6.1693
X8.015Y-4.4583
X8.0177Y-3.6378
X8.0181Y-3.2823
X8.0213Y-3.1917
X8.0213Y-3.2366
X8.0276Y-3.5327
X8.0402Y-4.3213
X8.0453Y-3.1126
X8.0469Y-4.4488
X8.0673Y-3.3327
X8.0709Y-3.2374
X8.0709Y-3.437
X8.072Y-3.1862
X8.0752Y-6.4213
X8.0846Y-4.4339
X8.1098Y-4.6965
X8.1169Y-4.6575
X8.1201Y-3.4823
X8.1201Y-3.5331
X8.122Y-3.187
X8.122Y-3.2362
X8.122Y-3.4409
X8.126Y-3.6449
X8.1457Y-4.6181
X8.1713Y-3.535
X8.1724Y-4.7669
X8.1732Y-3.2362
X8.1825Y-3.8163
X8.1877Y-3.9811
X8.1969Y-3.1126
X8.198Y-6.3516
X8.2034Y-3.8372
X8.2086Y-3.9603
X8.2185Y-4.2335
X8.2205Y-3.2846
X8.2205Y-3.437
X8.2217Y-3.2343
X8.2224Y-3.5346
X8.2492Y-3.1094
X8.25Y-4.6161
X8.2583Y-3.0102
X8.2693Y-3.239
X8.2697Y-3.5323
X8.2701Y-3.339
X8.2717Y-3.4409
X8.2787Y-3.2929
X8.2791Y-4.2343
X8.2972Y-4.7795
X8.3079Y-5.1602
X8.3118Y-4.5512
X8.3201Y-3.6461
X8.3209Y-3.4862
X8.324Y-3.2843
X8.326Y-3.5311
X8.3492Y-4.2591
X8.3561Y-5.734
X8.3717Y-3.235
X8.3717Y-3.428
X8.377Y-5.7549
X8.3786Y-4.5127
X8.4161Y-3.4807
X8.4173Y-3.3449
X8.4189Y-3.4346
X8.422Y-3.2394
X8.4248Y-3.5327
X8.4283Y-3.6409
X8.4303Y-5.4465
X8.4362Y-5.2228
X8.4374Y-5.2748
X8.4571Y-4.9606
X8.4571Y-5.0429
X8.4587Y-3.1154
X8.4618Y-5.1346
X8.462Y-3.8006
X8.4681Y-3.3898
X8.4697Y-3.485
X8.4717Y-3.5358
X8.4769Y-4.6422
X8.4829Y-3.8215
X8.4896Y-3.8911
X8.4925Y-4.9476
X8.5104Y-3.912
X8.5114Y-4.4374
X8.5181Y-3.4366
X8.5201Y-3.189
X8.525Y-5.6868
X8.5417Y-4.4661
X8.5459Y-5.7077
X8.5571Y-3.0134
X8.5646Y-4.7236
X8.5661Y-4.8429
X8.5669Y-3.3402
X8.5677Y-3.5323
X8.5709Y-4.9661
X8.5713Y-3.4358
X8.5864Y-3.7583
X8.5917Y-4.672
X8.6028Y-5.1827
X8.6154Y-5.4469
X8.6159Y-3.7583
X8.6161Y-3.6402
X8.6189Y-3.5366
X8.6197Y-4.5421
X8.6201Y-4.7957
X8.6215Y-5.7092
X8.622Y-3.2945
X8.6358Y-3.874
X8.6362Y-3.9925
X8.6378Y-4.0961
X8.6386Y-4.1768
X8.6386Y-4.3445
X8.639Y-3.7122
X8.6394Y-4.224
X8.6423Y-5.7301
X8.6433Y-2.9713
X8.6433Y-4.4654
X8.6449Y-4.624
X8.6465Y-6.202
X8.66Y-3.7598
X8.6717Y-3.126
X8.6896Y-3.7598
X8.6921Y-3.022
X8.7055Y-6.1783
X8.7067Y-3.8445
X8.7079Y-3.9555
X8.7217Y-3.0461
X8.726Y-3.1835
X8.7333Y-3.7502
X8.7362Y-6.1748
X8.7541Y-3.7293
X8.7622Y-4.1142
X8.763Y-4.2374
X8.7638Y-4.5217
X8.7685Y-4.4118
X8.7685Y-6.1748
X8.7764Y-3.7008
X8.7795Y-3.8366
X8.7801Y-5.7494
X8.7858Y-3.9374
X8.7925Y-3.1173
X8.801Y-5.7703
X8.8081Y-3.7382
X8.8305Y-4.0632
X8.8376Y-3.7382
X8.8469Y-3.1815
X8.8545Y-5.7746
X8.8563Y-3.8268
X8.8705Y-3.3587
X8.8709Y-3.2815
X8.8754Y-5.7955
X8.8821Y-3.7282
X8.8827Y-3.6213
X8.903Y-3.7073
X8.922Y-4.4819
X8.937Y-3.9567
X8.9764Y-3.9567
X8.9882Y-3.8602
X9.0429Y-6.1138
X9.0862Y-6.3217
X9.0955Y-6.1624
X9.1008Y-6.2437
T2
X6.6142Y-4.8031
X6.6142Y-4.8819
X6.6142Y-4.9606
X6.6142Y-5.0394
X6.6142Y-5.1378
X6.6142Y-5.2165
X6.6142Y-5.2953
X6.6142Y-5.374
X6.6142Y-5.4724
X6.6142Y-5.5709
X6.6142Y-5.6693
X6.6142Y-5.748
X6.6142Y-5.8268
X6.6142Y-5.9449
X6.6535Y-6.063
X6.6821Y-3.752
X6.7195Y-3.752
X6.7224Y-4.828
X6.7378Y-4.0256
X6.7386Y-4.3815
X6.7404Y-6.388
X6.7665Y-4.8965
X6.8087Y-4.8528
X6.8165Y-3.9972
X6.8165Y-4.3819
X6.8189Y-6.389
X6.8307Y-5.0394
X6.8307Y-5.2165
X6.8307Y-5.374
X6.8307Y-5.5709
X6.8307Y-5.7087
X6.8591Y-4.9323
X6.8961Y-3.9862
X6.8961Y-6.389
X6.9Y-3.8315
X6.9488Y-5.8465
X6.9634Y-6.389
X6.9882Y-5.9252
X6.9882Y-6.0433
X6.9886Y-5.213
X6.9913Y-5.6146
X7.0366Y-5.1421
X7.053Y-6.386
X7.0681Y-5.6173
X7.0854Y-5.1535
X7.1063Y-4.3504
X7.1063Y-4.685
X7.1063Y-4.8228
X7.1346Y-5.6173
X7.1474Y-6.386
X7.1484Y-5.15
X7.1654Y-4.3504
X7.1654Y-4.685
X7.1654Y-4.8228
X7.1654Y-4.9016
X7.1839Y-5.2134
X7.2035Y-5.6169
X7.2244Y-6.3976
X7.2441Y-3.7008
X7.2441Y-3.9173
X7.2441Y-4.0945
X7.2441Y-4.685
X7.2476Y-5.3335
X7.3031Y-4.2717
X7.3031Y-4.3504
X7.3031Y-4.5669
X7.3425Y-4.7638
X7.3425Y-4.8622
X7.3425Y-4.9409
X7.3728Y-5.8512
X7.4016Y-4.7441
X7.5394Y-4.311
X7.5591Y-3.8583
X7.5969Y-4.9098
X7.6323Y-4.9445
X7.635Y-5.6701
X7.6772Y-5.3543
X7.6858Y-4.3823
X7.6902Y-4.4236
X7.7394Y-3.9433
X7.7819Y-4.7012
X7.7953Y-6.2598
X7.874Y-6.2598
X7.9331Y-4.6654
X7.9972Y-5.7606
X8.0118Y-6.2598
X8.0315Y-3.8189
X8.0343Y-3.9106
X8.0366Y-5.7205
X8.0512Y-4.5669
X8.0843Y-4.9697
X8.0969Y-4.0681
X8.1059Y-4.3555
X8.1299Y-3.937
X8.1693Y-3.7598
X8.187Y-4.1583
X8.2394Y-5.9484
X8.2732Y-6.2303
X8.2768Y-6.089
X8.2783Y-5.8154
X8.2874Y-3.9173
X8.2949Y-4.3417
X8.3039Y-3.6949
X8.3071Y-3.7795
X8.3756Y-6.0929
X8.3823Y-5.8102
X8.3921Y-4.0602
X8.3921Y-4.1701
X8.3933Y-4.2327
X8.4213Y-5.7425
X8.4449Y-3.7402
X8.4449Y-3.878
X8.4689Y-5.6945
X8.4769Y-4.6885
X8.4843Y-3.9961
X8.4843Y-5.5185
X8.4858Y-5.5756
X8.5012Y-5.7988
X8.513Y-5.6445
X8.5231Y-4.6422
X8.5291Y-5.9539
X8.5433Y-4.1142
X8.5433Y-4.252
X8.5433Y-4.3307
X8.5602Y-3.7055
X8.6094Y-5.6047
X8.6102Y-5.9909
X8.6157Y-4.7579
X8.6327Y-5.7988
X8.6701Y-6.0492
X8.698Y-5.752
X8.7311Y-5.637
X8.8189Y-6.2138
X8.8563Y-6.0866
X8.8657Y-6.026
X8.8913Y-5.9673
X8.9159Y-3.3296
X8.9748Y-5.8858
X8.9949Y-5.548
X8.9964Y-3.5724
X9.0827Y-5.7941
X9.1185Y-5.885
X9.2126Y-6.1602
X9.2323Y-6.0429
X9.2327Y-6.4386
X9.2654Y-5.8909
X9.2874Y-6.2929
T3
X6.6339Y-3.6811
X6.6339Y-3.7598
X6.6339Y-3.8386
X6.6339Y-3.9173
X6.6339Y-3.9961
X6.6339Y-4.0748
X6.6339Y-4.1535
X6.6339Y-4.2323
X6.6339Y-4.311
X6.6339Y-4.3898
X6.6339Y-4.4685
X6.6339Y-4.5472
X6.6339Y-4.626
X6.6339Y-4.7047
X6.6906Y-6.1681
X7.Y-4.8815
X7.0039Y-4.2776
X7.0047Y-4.4315
X7.0051Y-4.3713
X7.0819Y-6.0382
X7.2713Y-5.6354
X7.311Y-5.7244
X7.3122Y-5.2094
X7.3122Y-5.6756
X7.3421Y-5.1394
X7.3535Y-5.5642
X7.3594Y-5.7665
X7.4091Y-5.7728
X7.4114Y-6.0291
X7.4291Y-5.5209
X7.4551Y-5.3024
X7.4685Y-5.7693
X7.5272Y-4.4803
X7.5945Y-4.8091
X7.5953Y-5.0445
X7.5953Y-5.1283
X7.5965Y-5.5626
X7.6575Y-5.2362
X7.6591Y-6.0764
X7.6594Y-5.922
X7.6866Y-5.6256
X7.7362Y-5.1378
X7.7362Y-5.1969
X7.8008Y-5.7528
X7.8114Y-6.0913
X7.8197Y-5.1067
X7.8358Y-5.4957
X7.8551Y-4.8157
X7.8724Y-6.1248
X7.874Y-5.0984
X7.9331Y-4.8228
X7.9602Y-5.7024
X7.9772Y-5.6429
X8.0457Y-5.8205
X8.0512Y-4.8031
X8.1059Y-5.8205
X8.1102Y-5.2953
X8.1146Y-6.0598
X8.1181Y-5.9358
X8.1374Y-6.2618
X8.1622Y-5.4642
X8.165Y-5.0449
X8.1902Y-5.7362
X8.2059Y-5.3906
X8.2283Y-5.6244
X8.3114Y-4.6035
X8.3291Y-5.4626
X8.3319Y-5.3327
X8.3709Y-4.5606
X8.439Y-4.1339
X8.7205Y-4.7638
X8.7205Y-5.3346
X8.7205Y-5.4055
X8.7205Y-5.4921
X8.7587Y-4.6276
X8.7598Y-4.8819
X8.7598Y-5.0197
X8.7598Y-5.1287
X8.7598Y-5.239
X8.8386Y-4.5669
X8.878Y-4.626
X8.878Y-4.8819
X8.878Y-5.0394
X8.878Y-5.1272
X8.878Y-5.235
X8.878Y-5.365
X8.878Y-5.5118
X8.9567Y-4.5276
X9.0157Y-4.685
X9.0157Y-4.8031
X9.0157Y-4.9213
X9.0157Y-5.0394
X9.0157Y-5.1575
X9.0157Y-5.2756
T4
X8.9567Y-4.1732
X8.9567Y-4.2732
X8.9567Y-4.3732
T5
X6.7508Y-3.3854
X8.8917Y-3.5055
T0
M30
